<svg width="552" height="4" viewBox="0 0 552 4" fill="none" xmlns="http://www.w3.org/2000/svg">
<path d="M5.25783 0.00508478C8.35109 -0.00794172 12.4058 0.00598652 15.4874 0.0251039C16.4532 0.0310332 15.9641 0.0575373 16.6308 0.0628235C17.9347 0.0731286 19.1494 0.0601299 20.4379 0.0724059C20.865 0.076604 20.3334 0.118586 20.7812 0.122027C23.2348 0.140581 25.5561 0.129888 28.0417 0.138812C40.2849 0.182841 52.3197 0.198601 64.7128 0.217729C68.7991 0.224 73.7665 0.262101 77.9872 0.245438C78.4799 0.243456 78.1862 0.206606 78.2799 0.203568C79.7502 0.157073 79.2614 0.231465 80.2214 0.241349C84.0316 0.280375 88.2686 0.283769 91.9355 0.269547C93.4955 0.263388 91.9314 0.190195 93.5021 0.231278C93.6112 0.234054 93.2154 0.273186 93.6432 0.277359C94.6134 0.286746 96.4541 0.279752 97.2061 0.282852C98.6552 0.289026 98.895 0.288632 100.266 0.289078C102.139 0.290028 104.368 0.30948 106.379 0.300613C106.808 0.298604 106.24 0.25849 106.924 0.251663C107.609 0.244848 109.421 0.248249 110.032 0.257705C110.643 0.267167 110.383 0.298696 110.491 0.305923C111.381 0.366921 113.477 0.282439 113.746 0.280349C118.664 0.24475 122.881 0.292876 127.497 0.292739C131.001 0.292533 134.748 0.276644 138.082 0.278823C142.055 0.281574 145.421 0.303311 149.28 0.299574C149.688 0.299226 149.21 0.252061 149.708 0.25154C154.993 0.246051 160.241 0.251192 165.503 0.283033C166.031 0.286268 165.351 0.327679 165.878 0.333387C169.106 0.36742 174.213 0.449174 176.13 0.268873C178.317 0.275913 180.972 0.283188 182.928 0.319532C184.189 0.342924 182.964 0.388037 184.513 0.368787C184.863 0.364498 184.408 0.32499 184.932 0.321546C187.139 0.307083 189.549 0.319925 191.732 0.299512C192.176 0.295267 192.054 0.259866 192.18 0.253492C193.237 0.201865 194.997 0.287207 195.381 0.293408C198.302 0.339652 200.436 0.321454 203.157 0.322583C203.789 0.322865 203.042 0.275314 203.65 0.273877C206.802 0.267062 210.067 0.271149 213.153 0.292248C213.84 0.297056 213.208 0.337561 213.536 0.341931C214.983 0.360706 215.304 0.284203 216.691 0.300732C216.983 0.304119 216.818 0.338794 216.872 0.342602C217.707 0.402383 218.432 0.317678 218.647 0.315808C221.364 0.290255 223.1 0.378683 225.724 0.366161C226.038 0.364574 225.33 0.320699 226.213 0.31892C232.092 0.306808 238.311 0.318861 244.13 0.353954C245.035 0.359351 244.389 0.39231 244.446 0.396373C245.374 0.459857 245.975 0.374796 246.27 0.371593C248.597 0.348534 250.772 0.419867 252.353 0.318553C262.211 0.353712 272.023 0.296819 281.8 0.387583C281.924 0.388634 281.701 0.430527 281.949 0.432444C284.935 0.455966 284.362 0.390857 286.337 0.311228C286.835 0.291233 288.349 0.387372 288.483 0.394419C288.971 0.420387 288.465 0.482712 288.628 0.487741C289.981 0.527233 289.76 0.321121 291.585 0.321055C291.642 0.321398 291.402 0.359336 291.555 0.363108C292.031 0.37495 292.503 0.359875 292.968 0.372934C294.034 0.403152 294.413 0.503305 296.041 0.445016C296.247 0.437452 295.932 0.320536 297.561 0.326059C298.21 0.32836 301.085 0.326356 301.89 0.333933C302.695 0.3415 302.142 0.379176 302.2 0.380808C304.368 0.430627 303.546 0.451275 304.632 0.525033C305.718 0.598513 305.417 0.423257 305.859 0.403696C306.303 0.38419 307.892 0.425295 308.283 0.439584C308.674 0.45388 308.187 0.47782 308.534 0.48591C310.836 0.538764 309.544 0.398919 310.303 0.371103C312.091 0.30524 313.483 0.43521 315.12 0.447946C315.563 0.451385 315.202 0.421783 315.596 0.419015C317.158 0.408443 318.098 0.448997 319.875 0.411813C320.166 0.405753 321.603 0.327611 322.533 0.384957C322.664 0.393226 322.29 0.425615 322.956 0.43287C323.95 0.443758 325.742 0.450837 326.811 0.440011C327.601 0.432001 326.696 0.378632 327.689 0.395211C328.131 0.402614 327.313 0.433835 328.142 0.445138C328.967 0.456437 331.077 0.455066 331.88 0.453988C332.681 0.452886 332.243 0.412403 332.307 0.409676C332.699 0.394054 334.237 0.374533 334.373 0.374581C341.228 0.369639 347.549 0.437876 354.224 0.415291C354.747 0.413577 354.398 0.370888 354.478 0.370186C356.271 0.3523 354.858 0.465801 356.11 0.503791C355.929 0.417162 356.669 0.432848 357.932 0.423347C358.54 0.418699 358.209 0.385155 358.264 0.381721C359.167 0.330773 359.796 0.39658 359.957 0.410042C360.555 0.459562 361.206 0.40105 361.613 0.43415C362.019 0.467003 361.083 0.515707 362.295 0.515083C362.635 0.484072 361.735 0.403034 362.655 0.3899C366.125 0.34022 372.602 0.403803 375.392 0.410407C378.177 0.417007 379.076 0.411285 380.699 0.422492C383.63 0.442756 382.556 0.382631 384.375 0.355109C386.201 0.327592 385.313 0.475528 385.576 0.507331C385.833 0.539119 386.114 0.506396 386.435 0.523871C386.754 0.541342 386.063 0.562965 386.814 0.569525C387.565 0.576079 389.62 0.519526 389.886 0.486273C390.449 0.415825 389.523 0.341886 391.512 0.367866C391.626 0.369407 391.255 0.408307 391.693 0.412238C395.171 0.442184 398.784 0.44404 402.257 0.470526C402.735 0.474229 402.308 0.517503 402.586 0.520147C405.481 0.547826 404.446 0.474861 406.033 0.393805C405.676 0.501673 406.554 0.567667 408.751 0.568304C410.072 0.568725 409.845 0.521613 410.699 0.488409C410.955 0.4784 411.89 0.510748 412.059 0.488592C412.618 0.416168 411.737 0.335094 414.003 0.367377C414.102 0.368911 413.786 0.408555 414.129 0.410956C416.349 0.426671 416.615 0.350916 419.014 0.341742C420.895 0.334543 424.241 0.380737 426.382 0.38825C426.337 0.509525 428.36 0.481755 429.181 0.398138C430.571 0.401561 432.072 0.396834 433.415 0.408392C433.878 0.412332 433.574 0.447444 433.632 0.451238C434.526 0.510753 435.131 0.429403 435.431 0.426214C438.682 0.395212 441.331 0.456868 444.435 0.396612C444.545 0.394441 444.723 0.3102 445.553 0.371709C445.606 0.375949 444.582 0.414277 446.041 0.417241C447.501 0.420212 450.254 0.465371 452.281 0.426335C452.771 0.416938 454.012 0.348551 455.007 0.401982C455.14 0.409238 454.995 0.433398 455.186 0.446843C455.805 0.489682 456.143 0.404536 456.871 0.476872C457.599 0.549206 459.112 0.603378 461.156 0.553471C461.221 0.55202 461.705 0.484533 462.348 0.4856C463.374 0.487361 464.831 0.50142 465.902 0.500981C466.415 0.500746 466.087 0.45884 466.176 0.458073C469.626 0.43459 472.081 0.471949 475.776 0.488163C476.454 0.491218 478.4 0.434073 479.712 0.479252C481.152 0.528709 479.672 0.734443 482.982 0.685428C484.317 0.665823 486.007 0.404813 488.406 0.540042C493.059 0.506533 497.362 0.575743 502.028 0.527896C502.238 0.525776 502.901 0.45293 503.395 0.453922C504.127 0.455535 504.529 0.489581 505.052 0.491824C507.243 0.50208 509.248 0.47295 511.361 0.477481C512.163 0.479127 511.882 0.514332 512.839 0.516299C513.795 0.518234 514.432 0.471876 515.728 0.494265C516.706 0.511331 517.685 0.606084 518.983 0.617129C519.033 0.523665 519.925 0.52559 521.51 0.500918C521.815 0.496131 521.488 0.463601 521.632 0.459658C522.219 0.442892 522.762 0.469853 523.319 0.451602C523.455 0.447218 523.461 0.4153 523.572 0.409915C524.514 0.362909 526.066 0.434706 526.332 0.447207C527.354 0.494683 527.831 0.453169 528.615 0.471865C529.397 0.490558 528.228 0.513927 529.141 0.525271C531.036 0.548734 533.469 0.543579 535.393 0.545046C536.161 0.545434 535.637 0.502828 535.747 0.501894C537.334 0.491088 538.939 0.536409 539.819 0.45154C540.92 0.670978 540.776 0.430256 543.045 0.474184C543.224 0.477737 543.451 0.581508 542.765 0.596742C542.079 0.611963 541.039 0.579525 540.087 0.603273C539.861 0.608846 538.57 0.706086 538.394 0.711976C537.014 0.758012 536.818 0.60294 536.745 0.594423C535.917 0.502508 534.339 0.607265 533.923 0.614504C532.022 0.647671 530.407 0.625863 528.817 0.649538C527.777 0.664839 527.675 0.766417 526.859 0.763307C524.144 0.753031 523.196 0.61133 520.638 0.734194C520.09 0.760398 520.635 0.871419 518.67 0.78412C518.546 0.778617 517.087 0.698754 516.244 0.749269C516.138 0.755639 516.141 0.787994 516.002 0.790712C515.066 0.808294 514.442 0.782517 513.422 0.794863C512.403 0.807208 511.177 0.825612 510.013 0.814638C509.311 0.808076 508.412 0.747793 508.076 0.733034C507.128 0.690518 506.111 0.760227 505.524 0.708743C504.931 0.656999 506.089 0.578418 504.536 0.544986C504.479 0.629048 504.346 0.715329 504.254 0.799868C500.85 0.796908 497.501 0.769726 494.085 0.77344C493.662 0.773984 494.095 0.819176 493.641 0.820925C491.726 0.828105 490.053 0.795889 488.067 0.808718C486.53 0.818822 484.844 0.866671 483.237 0.878726C482.255 0.782535 479.869 0.81519 478.137 0.806399C477.53 0.803362 477.57 0.777671 477.139 0.76929C475.51 0.738293 476.273 0.823296 475.827 0.836673C473.911 0.893765 473.747 0.701365 471.489 0.706119C471.369 0.706306 469.907 0.808863 469.705 0.81525C468.425 0.856895 469.493 0.779553 468.693 0.771976C467.23 0.758128 466.214 0.733636 464.498 0.763675C463.998 0.772573 462.797 0.836496 461.826 0.787052C461.698 0.780577 461.769 0.746678 461.666 0.744693C459.803 0.711602 459.755 0.818116 458.69 0.85419C457.626 0.890256 455.982 0.816728 455.648 0.795536C454.772 0.740714 456.318 0.772107 456.366 0.766727C456.922 0.702704 455.723 0.713727 454.807 0.708317C454.675 0.603878 453.394 0.610147 453.858 0.703129C453.911 0.713285 454.623 0.703545 454.807 0.708317C454.003 0.810786 452.595 0.823909 451.04 0.728153C450.312 0.683274 451 0.630947 448.789 0.65009C447.786 0.658731 448.174 0.730642 447.288 0.750248C445.265 0.79498 442.635 0.727899 440.55 0.738468C439.793 0.742306 440.53 0.78167 440.013 0.785648C438.64 0.796331 437.429 0.766796 436.05 0.781925C435.925 0.783346 436.23 0.824552 435.801 0.825077C432.55 0.829863 429.72 0.80347 426.325 0.802739C424.685 0.802404 421.754 0.82513 420.055 0.820561C417.11 0.812885 413.488 0.752966 410.973 0.767522C409.332 0.77684 409.692 0.818054 408.989 0.846135C407.633 0.900568 405.232 0.803067 404.908 0.787969C404.898 0.787469 406.31 0.777753 405.557 0.756597C405.119 0.712514 404.924 0.787778 404.908 0.787969C404.696 0.778216 401.876 0.76886 401.316 0.776738C401.012 0.781044 401.182 0.820092 401.023 0.821599C397.252 0.856544 393.475 0.866468 389.65 0.848211C389.583 0.847422 389.684 0.803744 389.526 0.802435C387.312 0.783014 385.894 0.836446 384.068 0.868169C382.242 0.899879 380.794 0.889258 379.713 0.814276C378.336 0.823717 376.359 0.790567 375.222 0.770453C374.084 0.750339 373.926 0.835361 373.826 0.837042C370.704 0.89084 368.9 0.842174 365.662 0.834601C364.122 0.830854 361.068 0.843187 359.402 0.852484C358.084 0.859974 357.29 0.840049 356.077 0.852789C355.912 0.854491 356.078 0.892347 356.028 0.893805C354.673 0.939098 355.325 0.846552 355.045 0.830023C354.031 0.769917 353.404 0.737905 351.669 0.766181C351.269 0.772656 350.104 0.90591 349.374 0.913702C348.426 0.92359 348.784 0.875827 347.791 0.887396C347.706 0.888343 347.723 0.917809 347.111 0.91651C344.265 0.910867 341.164 0.893721 338.208 0.896674C337.804 0.896964 338.321 0.943703 337.738 0.944892C335 0.950432 331.999 0.948702 329.332 0.926826C328.675 0.921294 329.087 0.888569 328.944 0.878852C328.069 0.82006 326.829 0.905484 326.624 0.907111C321.74 0.948162 318.003 0.870855 313.025 0.907661C312.754 0.909822 310.669 1.0014 309.738 0.922859C309.674 0.917634 308.754 0.83728 307.94 0.892219C307.889 0.895656 308.463 0.937024 307.462 0.932808C306.461 0.928601 304.85 0.956226 303.474 0.910774C303.038 0.896456 302.008 0.816301 300.709 0.880196C300.624 0.884656 298.618 1.02913 297.902 0.929451C297.786 0.913043 297.907 0.807557 296.356 0.861641C296.06 0.872126 296.598 0.895655 295.817 0.910347C294.621 0.932991 293.036 0.904738 291.566 0.951729C291.309 0.960048 290.218 1.03164 289.342 0.977303C289.205 0.968792 289.466 0.933575 289.003 0.929634C286.804 0.91073 284.502 0.934286 282.269 0.90992C281.478 0.901359 281.883 0.844427 281.058 0.829171C280.234 0.81392 278.573 0.799249 277.71 0.825265C276.847 0.851292 277.79 0.942027 276.497 0.949288C270.878 0.980822 265.311 0.927594 259.7 0.919808C258.868 0.918646 259.558 0.951113 258.331 0.95173C253.81 0.954145 246.003 0.984588 242.079 0.915598C238.936 0.86034 242.892 0.818272 240.49 0.795786C239.33 0.785059 238.076 0.890548 237.796 0.893869C235.063 0.927604 233.163 0.880875 230.702 0.895212C230.194 0.898187 230.692 0.940943 230.26 0.943003C228.783 0.950417 227.231 0.931333 225.819 0.934824C225.186 0.936488 225.302 0.969144 224.72 0.966623C223.326 0.960969 222.093 0.947242 220.734 0.916636C220.61 0.913847 221.445 0.873225 220.414 0.871714C218.744 0.869384 216.672 0.839191 214.751 0.870371C214.182 0.879751 214.159 0.954384 212.934 0.902842C212.677 0.892077 213.005 0.802459 211.578 0.879893C211.338 0.892761 208.941 0.997204 207.765 0.929881C207.454 0.912162 206.662 0.838827 205.977 0.850352C205.884 0.852191 206.256 0.892279 205.688 0.896189C203.687 0.909273 201.59 0.904996 199.533 0.917552C198.984 0.920984 199.802 0.962467 198.984 0.966258C196.733 0.976743 193.924 0.966181 191.723 0.953197C190.912 0.948331 191.473 0.913967 191.414 0.910228C190.464 0.849403 189.903 0.931503 189.588 0.93629C187.629 0.964955 186.136 0.92639 184.33 0.936595C183.832 0.939308 184.185 0.978454 184.086 0.981944C183.057 1.01605 183.823 0.945748 183.172 0.937999C181.347 0.916057 179.313 0.919203 177.468 0.924205C176.79 0.9261 177.552 0.971491 176.943 0.972667C173.343 0.980489 169.6 0.976146 166.086 0.951122C165.425 0.946328 165.841 0.911376 165.703 0.903393C164.753 0.84754 163.36 0.923724 163.039 0.930981C161.582 0.964116 161.016 0.933207 159.729 0.938976C153.442 0.967701 145.68 0.947229 139.746 0.934582C132.013 0.918306 126.012 0.885055 118.638 0.89369C118.169 0.894195 118.642 0.940692 118.238 0.941724C113.022 0.952933 107.887 0.934764 102.66 0.948194C102.231 0.949214 102.849 0.993294 102.161 0.996412C100.749 1.00312 98.9601 1.00072 97.5325 0.986646C96.8361 0.979865 97.7701 0.94204 97.0692 0.935987C95.4371 0.921806 93.6877 0.918667 92.0113 0.925734C91.2978 0.928837 92.3742 0.973919 91.4469 0.97444C85.1304 0.978912 78.927 0.986677 72.5439 0.928298C72.1063 0.924288 71.7224 0.832663 70.792 0.850234C70.7219 0.875662 70.7257 0.905574 70.6951 0.932753C61.4999 0.947394 52.3986 0.915631 43.1776 0.91072C42.7888 0.910524 43.4607 0.959071 42.708 0.958938C38.3516 0.95822 34.1213 0.97167 29.6652 0.923416C29.2231 0.918697 29.4499 0.83329 28.147 0.846207C27.9172 0.848564 25.9548 0.859954 25.4474 0.878494C25.3785 0.881291 25.7366 0.921156 25.1042 0.922318C21.4295 0.928371 17.5786 0.91927 13.9102 0.894913C13.3182 0.890906 13.9487 0.848453 13.527 0.845231C10.5358 0.822695 7.2822 0.854967 4.42397 0.816423C2.51076 0.79047 3.21909 0.717087 2.20243 0.644853C2.05864 0.634662 0.873926 0.633047 0.812661 0.591021C0.655375 0.48534 1.22921 0.369621 0.993752 0.256976C0.944006 0.232713 -0.642631 0.258846 0.29676 0.200214C0.362387 0.19629 1.51271 0.17683 1.79603 0.15694C1.99329 0.143188 1.63782 0.100447 2.04029 0.0828434C2.44273 0.0652563 2.88496 0.101084 3.5522 0.0804019C4.21914 0.0594635 3.92588 0.0108405 5.25783 0.00508478ZM370.101 0.680548C369.048 0.639717 368.892 0.789265 370.031 0.753485C370.086 0.751578 370.155 0.682551 370.101 0.680548ZM497.52 0.656924C496.143 0.590963 495.201 0.687952 496.172 0.738894C497.143 0.789781 497.939 0.676919 497.52 0.656924ZM511.797 0.608767C510.187 0.55676 509.934 0.768824 511.658 0.725954C511.758 0.723532 511.891 0.611787 511.797 0.608767ZM6.91713 0.624284C6.9026 0.622298 6.05098 0.620363 6.03063 0.622331C5.57716 0.669827 7.28004 0.673665 6.91713 0.624284ZM525.964 0.556338C525.461 0.527651 524.015 0.560766 524.639 0.596438C525.142 0.625134 526.589 0.592022 525.964 0.556338ZM315.165 0.520943C315.148 0.518715 314.538 0.516708 314.55 0.529305C314.591 0.569877 315.441 0.558427 315.165 0.520943ZM550.043 0.553896C546.485 0.545913 544.328 0.370738 548.202 0.390505C548.904 0.394081 546.69 0.446367 547.583 0.46216C549.217 0.490932 550.302 0.380944 551.969 0.439882C552.271 0.45067 550.246 0.55474 550.036 0.55414C550.038 0.554058 550.041 0.553977 550.043 0.553896ZM369.494 0.500922C369.473 0.498945 368.628 0.49707 368.608 0.49903C368.15 0.546507 369.853 0.550312 369.494 0.500922ZM279.538 0.428476C279.491 0.424263 277.53 0.420321 277.466 0.424204C276.443 0.501842 280.408 0.51004 279.538 0.428476ZM426.416 0.391485C427.338 0.343723 428.441 0.338099 429.177 0.398077C428.26 0.394893 427.338 0.394424 426.416 0.391485Z" fill="white"/>
<path d="M3.59285 3.00508C5.70657 2.99206 8.47732 3.00599 10.5831 3.0251C11.243 3.03103 10.9088 3.05754 11.3644 3.06282C12.2554 3.07313 13.0854 3.06013 13.9659 3.07241C14.2577 3.0766 13.8945 3.11859 14.2005 3.12203C15.8771 3.14058 17.4633 3.12989 19.1618 3.13881C27.528 3.18284 35.7518 3.1986 44.2204 3.21773C47.0127 3.224 50.4071 3.2621 53.2912 3.24544C53.6279 3.24346 53.4272 3.20661 53.4913 3.20357C54.496 3.15707 54.1619 3.23147 54.8179 3.24135C57.4216 3.28038 60.3169 3.28377 62.8226 3.26955C63.8886 3.26339 62.8198 3.1902 63.8931 3.23128C63.9677 3.23405 63.6972 3.27319 63.9895 3.27736C64.6525 3.28675 65.9103 3.27975 66.4241 3.28285C67.4144 3.28903 67.5782 3.28863 68.5149 3.28908C69.7953 3.29003 71.3182 3.30948 72.692 3.30061C72.9853 3.29861 72.5971 3.25849 73.0647 3.25166C73.5328 3.24485 74.7711 3.24825 75.1885 3.25771C75.6061 3.26717 75.4283 3.2987 75.5022 3.30592C76.1101 3.36692 77.5425 3.28244 77.7268 3.28035C81.087 3.24475 83.9686 3.29288 87.1228 3.29274C89.5174 3.29253 92.0778 3.27665 94.3562 3.27882C97.0707 3.28157 99.3713 3.30331 102.008 3.29958C102.287 3.29923 101.96 3.25206 102.3 3.25154C105.912 3.24605 109.498 3.25119 113.094 3.28303C113.454 3.28627 112.99 3.32768 113.35 3.33339C115.556 3.36742 119.046 3.44918 120.356 3.26887C121.85 3.27592 123.664 3.28319 125.001 3.31953C125.862 3.34293 125.025 3.38804 126.084 3.36879C126.323 3.3645 126.012 3.32499 126.37 3.32155C127.878 3.30708 129.525 3.31993 131.017 3.29951C131.32 3.29527 131.237 3.25987 131.323 3.25349C132.046 3.20187 133.248 3.28721 133.51 3.29341C135.507 3.33965 136.964 3.32146 138.824 3.32258C139.256 3.32287 138.746 3.27532 139.161 3.27388C141.315 3.26706 143.546 3.27115 145.655 3.29225C146.124 3.29706 145.692 3.33756 145.917 3.34193C146.905 3.36071 147.124 3.2842 148.072 3.30073C148.272 3.30412 148.159 3.3388 148.196 3.3426C148.766 3.40238 149.262 3.31768 149.409 3.31581C151.265 3.29026 152.452 3.37868 154.245 3.36616C154.459 3.36458 153.976 3.3207 154.579 3.31892C158.596 3.30681 162.846 3.31886 166.822 3.35396C167.441 3.35935 166.999 3.39231 167.038 3.39638C167.672 3.45986 168.083 3.3748 168.284 3.3716C169.875 3.34854 171.361 3.41987 172.441 3.31856C179.177 3.35371 185.883 3.29682 192.563 3.38759C192.648 3.38864 192.496 3.43053 192.665 3.43245C194.706 3.45597 194.314 3.39086 195.664 3.31123C196.004 3.29124 197.039 3.38737 197.13 3.39442C197.464 3.42039 197.118 3.48271 197.229 3.48774C198.154 3.52724 198.003 3.32112 199.25 3.32106C199.289 3.3214 199.125 3.35934 199.229 3.36311C199.555 3.37495 199.877 3.35988 200.195 3.37294C200.923 3.40315 201.182 3.50331 202.294 3.44502C202.435 3.43745 202.22 3.32054 203.333 3.32606C203.777 3.32836 205.741 3.32636 206.292 3.33394C206.841 3.3415 206.464 3.37918 206.503 3.38081C207.985 3.43063 207.423 3.45128 208.165 3.52504C208.907 3.59852 208.701 3.42326 209.004 3.4037C209.307 3.38419 210.393 3.4253 210.66 3.43959C210.927 3.45388 210.594 3.47782 210.831 3.48591C212.404 3.53877 211.522 3.39892 212.04 3.37111C213.262 3.30524 214.214 3.43521 215.332 3.44795C215.635 3.45139 215.388 3.42179 215.658 3.41902C216.725 3.40845 217.367 3.449 218.581 3.41182C218.78 3.40576 219.762 3.32761 220.397 3.38496C220.487 3.39323 220.232 3.42562 220.686 3.43287C221.366 3.44376 222.591 3.45084 223.321 3.44001C223.86 3.432 223.242 3.37864 223.921 3.39521C224.223 3.40262 223.664 3.43384 224.23 3.44514C224.794 3.45644 226.236 3.45507 226.785 3.45399C227.332 3.45289 227.032 3.41241 227.077 3.40968C227.344 3.39406 228.395 3.37454 228.488 3.37458C233.172 3.36964 237.492 3.43788 242.053 3.41529C242.411 3.41358 242.172 3.37089 242.227 3.37019C243.452 3.3523 242.486 3.4658 243.342 3.50379C243.218 3.41717 243.724 3.43285 244.587 3.42335C245.003 3.4187 244.776 3.38516 244.814 3.38172C245.431 3.33078 245.86 3.39658 245.971 3.41004C246.379 3.45957 246.824 3.40105 247.102 3.43415C247.38 3.46701 246.74 3.51571 247.568 3.51509C247.8 3.48408 247.186 3.40304 247.814 3.3899C250.185 3.34022 254.612 3.40381 256.518 3.41041C258.421 3.41701 259.035 3.41129 260.144 3.4225C262.147 3.44276 261.413 3.38263 262.656 3.35511C263.904 3.3276 263.297 3.47553 263.477 3.50733C263.653 3.53912 263.845 3.5064 264.064 3.52387C264.282 3.54135 263.81 3.56297 264.323 3.56953C264.836 3.57608 266.24 3.51953 266.422 3.48628C266.807 3.41583 266.174 3.34189 267.533 3.36787C267.611 3.36941 267.358 3.40831 267.657 3.41224C270.033 3.44219 272.502 3.44404 274.876 3.47053C275.202 3.47423 274.91 3.51751 275.1 3.52015C277.079 3.54783 276.371 3.47486 277.456 3.39381C277.212 3.50168 277.812 3.56767 279.313 3.56831C280.216 3.56873 280.06 3.52162 280.644 3.48841C280.819 3.4784 281.458 3.51075 281.574 3.4886C281.955 3.41617 281.354 3.3351 282.902 3.36738C282.97 3.36891 282.754 3.40856 282.988 3.41096C284.505 3.42667 284.687 3.35092 286.327 3.34175C287.612 3.33455 289.898 3.38074 291.361 3.38825C291.331 3.50953 292.713 3.48176 293.274 3.39814C294.223 3.40156 295.249 3.39684 296.167 3.4084C296.483 3.41234 296.276 3.44745 296.315 3.45124C296.926 3.51076 297.339 3.42941 297.544 3.42622C299.766 3.39522 301.576 3.45687 303.697 3.39662C303.772 3.39445 303.894 3.3102 304.461 3.37171C304.498 3.37595 303.797 3.41428 304.795 3.41725C305.793 3.42022 307.673 3.46538 309.058 3.42634C309.394 3.41694 310.241 3.34855 310.922 3.40199C311.012 3.40924 310.913 3.4334 311.044 3.44685C311.467 3.48969 311.698 3.40454 312.195 3.47688C312.692 3.54921 313.727 3.60338 315.123 3.55348C315.168 3.55202 315.498 3.48454 315.938 3.4856C316.639 3.48737 317.634 3.50142 318.367 3.50098C318.717 3.50075 318.493 3.45884 318.554 3.45808C320.911 3.43459 322.588 3.47195 325.114 3.48817C325.577 3.49122 326.907 3.43408 327.803 3.47926C328.787 3.52871 327.776 3.73445 330.038 3.68543C330.95 3.66583 332.105 3.40482 333.744 3.54005C336.924 3.50654 339.864 3.57575 343.053 3.5279C343.196 3.52578 343.649 3.45293 343.986 3.45393C344.487 3.45554 344.761 3.48959 345.119 3.49183C346.616 3.50208 347.986 3.47295 349.43 3.47749C349.978 3.47913 349.786 3.51434 350.44 3.5163C351.093 3.51824 351.529 3.47188 352.414 3.49427C353.083 3.51134 353.751 3.60609 354.639 3.61713C354.672 3.52367 355.282 3.52559 356.365 3.50092C356.574 3.49614 356.35 3.46361 356.449 3.45966C356.85 3.4429 357.221 3.46986 357.601 3.45161C357.694 3.44722 357.698 3.4153 357.774 3.40992C358.418 3.36291 359.478 3.43471 359.66 3.44721C360.358 3.49469 360.685 3.45317 361.22 3.47187C361.755 3.49056 360.955 3.51393 361.58 3.52528C362.874 3.54874 364.537 3.54358 365.852 3.54505C366.377 3.54544 366.019 3.50283 366.094 3.5019C367.178 3.49109 368.275 3.53641 368.877 3.45155C369.629 3.67098 369.531 3.43026 371.081 3.47419C371.203 3.47774 371.358 3.58151 370.89 3.59675C370.421 3.61197 369.71 3.57953 369.059 3.60328C368.905 3.60885 368.023 3.70609 367.902 3.71198C366.959 3.75802 366.826 3.60295 366.776 3.59443C366.21 3.50251 365.132 3.60727 364.848 3.61451C363.549 3.64768 362.445 3.62587 361.358 3.64954C360.648 3.66484 360.578 3.76642 360.02 3.76331C358.165 3.75304 357.518 3.61133 355.77 3.7342C355.395 3.7604 355.767 3.87142 354.424 3.78413C354.34 3.77862 353.343 3.69876 352.767 3.74927C352.694 3.75564 352.697 3.788 352.601 3.79072C351.962 3.8083 351.535 3.78252 350.838 3.79487C350.142 3.80721 349.304 3.82562 348.509 3.81464C348.03 3.80808 347.414 3.7478 347.185 3.73304C346.537 3.69052 345.843 3.76023 345.441 3.70875C345.036 3.657 345.828 3.57842 344.766 3.54499C344.727 3.62905 344.637 3.71533 344.573 3.79987C342.247 3.79691 339.959 3.76973 337.625 3.77344C337.336 3.77399 337.632 3.81918 337.321 3.82093C336.013 3.82811 334.87 3.79589 333.513 3.80872C332.462 3.81883 331.31 3.86668 330.212 3.87873C329.541 3.78254 327.911 3.81519 326.727 3.8064C326.312 3.80337 326.34 3.77768 326.045 3.76929C324.932 3.7383 325.453 3.8233 325.148 3.83668C323.839 3.89377 323.727 3.70137 322.184 3.70612C322.102 3.70631 321.103 3.80887 320.965 3.81525C320.091 3.8569 320.821 3.77956 320.273 3.77198C319.274 3.75813 318.579 3.73364 317.407 3.76368C317.065 3.77258 316.245 3.8365 315.581 3.78706C315.494 3.78058 315.542 3.74668 315.472 3.7447C314.199 3.71161 314.165 3.81812 313.438 3.85419C312.711 3.89026 311.588 3.81673 311.359 3.79554C310.761 3.74072 311.817 3.77211 311.85 3.76673C312.23 3.70271 311.411 3.71373 310.785 3.70832C310.694 3.60388 309.819 3.61015 310.136 3.70313C310.172 3.71329 310.659 3.70355 310.785 3.70832C310.236 3.81079 309.273 3.82391 308.211 3.72816C307.713 3.68328 308.184 3.63095 306.673 3.65009C305.987 3.65874 306.252 3.73065 305.647 3.75025C304.264 3.79498 302.468 3.7279 301.042 3.73847C300.525 3.74231 301.029 3.78167 300.675 3.78565C299.737 3.79633 298.91 3.7668 297.967 3.78193C297.882 3.78335 298.09 3.82456 297.797 3.82508C295.576 3.82987 293.642 3.80347 291.322 3.80274C290.202 3.80241 288.198 3.82513 287.037 3.82056C285.025 3.81289 282.55 3.75297 280.831 3.76753C279.71 3.77684 279.956 3.81806 279.476 3.84614C278.549 3.90057 276.908 3.80307 276.687 3.78797C276.681 3.78747 277.645 3.77776 277.13 3.7566C276.831 3.71252 276.698 3.78778 276.687 3.78797C276.542 3.77822 274.615 3.76886 274.232 3.77674C274.025 3.78105 274.141 3.8201 274.033 3.8216C271.456 3.85655 268.874 3.86647 266.261 3.84821C266.215 3.84743 266.284 3.80375 266.176 3.80244C264.663 3.78302 263.694 3.83645 262.446 3.86817C261.199 3.89988 260.209 3.88926 259.471 3.81428C258.529 3.82372 257.179 3.79057 256.402 3.77046C255.624 3.75034 255.516 3.83536 255.448 3.83705C253.315 3.89084 252.082 3.84218 249.869 3.8346C248.817 3.83086 246.73 3.84319 245.591 3.85249C244.691 3.85998 244.149 3.84005 243.319 3.85279C243.207 3.85449 243.32 3.89235 243.286 3.89381C242.36 3.9391 242.805 3.84656 242.614 3.83003C241.921 3.76992 241.493 3.73791 240.307 3.76618C240.034 3.77266 239.237 3.90591 238.739 3.91371C238.091 3.92359 238.336 3.87583 237.657 3.8874C237.599 3.88835 237.611 3.91781 237.192 3.91651C235.248 3.91087 233.129 3.89372 231.108 3.89668C230.832 3.89697 231.186 3.94371 230.788 3.94489C228.917 3.95043 226.866 3.94871 225.043 3.92683C224.595 3.9213 224.876 3.88857 224.779 3.87886C224.181 3.82006 223.333 3.90549 223.193 3.90711C219.856 3.94817 217.302 3.87086 213.901 3.90766C213.715 3.90982 212.29 4.0014 211.654 3.92286C211.611 3.91764 210.982 3.83728 210.426 3.89222C210.391 3.89566 210.783 3.93703 210.099 3.93281C209.415 3.9286 208.314 3.95623 207.374 3.91078C207.076 3.89646 206.372 3.8163 205.484 3.8802C205.427 3.88466 204.056 4.02913 203.566 3.92945C203.487 3.91305 203.57 3.80756 202.51 3.86164C202.308 3.87213 202.675 3.89566 202.142 3.91035C201.325 3.93299 200.241 3.90474 199.237 3.95173C199.061 3.96005 198.316 4.03165 197.717 3.97731C197.623 3.96879 197.802 3.93358 197.486 3.92964C195.983 3.91073 194.41 3.93429 192.884 3.90992C192.344 3.90136 192.62 3.84443 192.057 3.82917C191.493 3.81392 190.358 3.79925 189.769 3.82527C189.179 3.85129 189.823 3.94203 188.94 3.94929C185.1 3.98082 181.296 3.9276 177.462 3.91981C176.893 3.91865 177.364 3.95112 176.526 3.95173C173.437 3.95415 168.102 3.98459 165.421 3.9156C163.273 3.86034 165.976 3.81827 164.335 3.79579C163.542 3.78506 162.685 3.89055 162.494 3.89387C160.626 3.92761 159.328 3.88088 157.647 3.89521C157.299 3.89819 157.64 3.94094 157.344 3.943C156.335 3.95042 155.274 3.93134 154.31 3.93483C153.877 3.93649 153.957 3.96915 153.559 3.96663C152.606 3.96097 151.763 3.94724 150.835 3.91664C150.75 3.91385 151.321 3.87323 150.616 3.87172C149.475 3.86939 148.059 3.83919 146.747 3.87037C146.357 3.87975 146.342 3.95439 145.505 3.90284C145.329 3.89208 145.553 3.80246 144.578 3.87989C144.414 3.89276 142.776 3.99721 141.973 3.92988C141.76 3.91216 141.219 3.83883 140.751 3.85035C140.687 3.85219 140.942 3.89228 140.554 3.89619C139.186 3.90927 137.753 3.905 136.348 3.91755C135.973 3.92099 136.531 3.96247 135.972 3.96626C134.435 3.97674 132.515 3.96618 131.011 3.9532C130.457 3.94833 130.84 3.91397 130.799 3.91023C130.151 3.8494 129.767 3.9315 129.552 3.93629C128.213 3.96496 127.193 3.92639 125.959 3.9366C125.618 3.93931 125.86 3.97846 125.792 3.98195C125.089 4.01605 125.613 3.94575 125.168 3.938C123.921 3.91606 122.531 3.9192 121.27 3.92421C120.806 3.9261 121.327 3.97149 120.911 3.97267C118.451 3.98049 115.893 3.97615 113.492 3.95112C113.04 3.94633 113.325 3.91138 113.23 3.90339C112.581 3.84754 111.629 3.92373 111.41 3.93098C110.414 3.96412 110.028 3.93321 109.148 3.93898C104.852 3.9677 99.548 3.94723 95.4929 3.93458C90.2088 3.91831 86.1084 3.88506 81.0693 3.89369C80.7491 3.8942 81.072 3.94069 80.7959 3.94173C77.2316 3.95293 73.7224 3.93477 70.1509 3.9482C69.8578 3.94921 70.2803 3.99329 69.8099 3.99641C68.845 4.00312 67.6228 4.00072 66.6472 3.98665C66.1713 3.97987 66.8096 3.94204 66.3306 3.93599C65.2154 3.92181 64.0199 3.91867 62.8744 3.92573C62.3869 3.92884 63.1224 3.97392 62.4887 3.97444C58.1725 3.97891 53.9334 3.98668 49.5717 3.9283C49.2727 3.92429 49.0103 3.83266 48.3745 3.85023C48.3266 3.87566 48.3292 3.90557 48.3083 3.93275C42.0249 3.9474 35.8057 3.91563 29.5047 3.91072C29.239 3.91052 29.6981 3.95907 29.1838 3.95894C26.2069 3.95822 23.3162 3.97167 20.2712 3.92342C19.9691 3.9187 20.1241 3.83329 19.2338 3.84621C19.0767 3.84856 17.7358 3.85995 17.3891 3.87849C17.342 3.88129 17.5866 3.92116 17.1545 3.92232C14.6435 3.92837 12.012 3.91927 9.50532 3.89491C9.10075 3.89091 9.53159 3.84845 9.24344 3.84523C7.19945 3.8227 4.97617 3.85497 3.02304 3.81642C1.71569 3.79047 2.19971 3.71709 1.505 3.64485C1.40674 3.63466 0.597183 3.63305 0.555318 3.59102C0.447839 3.48534 0.839962 3.36962 0.679064 3.25698C0.645071 3.23271 -0.439131 3.25885 0.202786 3.20021C0.247631 3.19629 1.03368 3.17683 1.22729 3.15694C1.36208 3.14319 1.11918 3.10045 1.3942 3.08284C1.6692 3.06526 1.97139 3.10108 2.42734 3.0804C2.88308 3.05946 2.68268 3.01084 3.59285 3.00508ZM252.902 3.68055C252.182 3.63972 252.076 3.78927 252.855 3.75349C252.892 3.75158 252.939 3.68255 252.902 3.68055ZM339.972 3.65693C339.031 3.59097 338.387 3.68796 339.051 3.7389C339.714 3.78979 340.258 3.67692 339.972 3.65693ZM349.728 3.60877C348.628 3.55676 348.455 3.76883 349.633 3.72596C349.701 3.72354 349.792 3.61179 349.728 3.60877ZM4.72671 3.62428C4.71677 3.6223 4.13484 3.62036 4.12093 3.62233C3.81106 3.66983 4.9747 3.67366 4.72671 3.62428ZM359.409 3.55634C359.065 3.52766 358.077 3.56077 358.504 3.59644C358.847 3.62514 359.836 3.59203 359.409 3.55634ZM215.363 3.52095C215.351 3.51872 214.934 3.51671 214.942 3.52931C214.971 3.56988 215.551 3.55843 215.363 3.52095ZM375.862 3.5539C373.431 3.54592 371.958 3.37074 374.605 3.39051C375.084 3.39409 373.572 3.44637 374.182 3.46217C375.298 3.49094 376.04 3.38095 377.179 3.43989C377.385 3.45067 376.001 3.55475 375.858 3.55414C375.86 3.55406 375.861 3.55398 375.862 3.5539ZM252.488 3.50093C252.473 3.49895 251.896 3.49707 251.882 3.49903C251.569 3.54651 252.733 3.55032 252.488 3.50093ZM191.018 3.42848C190.986 3.42427 189.645 3.42032 189.602 3.42421C188.903 3.50184 191.612 3.51004 191.018 3.42848ZM291.384 3.39149C292.014 3.34373 292.768 3.3381 293.271 3.39808C292.644 3.3949 292.014 3.39443 291.384 3.39149Z" fill="white"/>
</svg>
