<svg width="1272" height="1" viewBox="0 0 1272 1" fill="none" xmlns="http://www.w3.org/2000/svg">
<path d="M12.1159 0.00508493C19.2438 -0.00794148 28.5874 0.00598687 35.6884 0.0251043C37.9138 0.0310336 36.7869 0.0575377 38.3232 0.062824C41.3278 0.0731291 44.1269 0.0601305 47.0961 0.0724065C48.0801 0.0766045 46.8553 0.118587 47.8871 0.122028C53.5412 0.140582 58.8901 0.129888 64.6178 0.138812C92.8305 0.182843 120.563 0.198602 149.121 0.217731C158.537 0.224002 169.984 0.262103 179.71 0.245441C180.845 0.243458 180.168 0.206608 180.384 0.203571C183.772 0.157075 182.646 0.231467 184.858 0.241351C193.638 0.280377 203.402 0.283771 211.851 0.269549C215.446 0.263391 211.842 0.190198 215.461 0.23128C215.713 0.234056 214.801 0.273188 215.786 0.277362C218.022 0.286749 222.264 0.279755 223.997 0.282855C227.336 0.289028 227.888 0.288635 231.047 0.289081C235.365 0.290031 240.501 0.309483 245.133 0.300616C246.122 0.298607 244.813 0.258493 246.39 0.251666C247.968 0.244851 252.144 0.248252 253.552 0.257709C254.96 0.26717 254.361 0.298699 254.61 0.305926C256.66 0.366925 261.49 0.282442 262.111 0.280353C273.443 0.244753 283.16 0.29288 293.797 0.292743C301.872 0.292536 310.506 0.276648 318.19 0.278827C327.343 0.281578 335.101 0.303315 343.994 0.299579C344.933 0.29923 343.833 0.252065 344.979 0.251544C357.157 0.246056 369.251 0.251197 381.376 0.283038C382.592 0.286273 381.025 0.327684 382.24 0.333392C389.678 0.367424 401.448 0.449179 405.866 0.268878C410.904 0.275918 417.021 0.283193 421.529 0.319537C424.435 0.342929 421.613 0.388042 425.183 0.368792C425.988 0.364503 424.941 0.324995 426.148 0.321551C431.233 0.307088 436.787 0.31993 441.817 0.299518C442.84 0.295273 442.56 0.259872 442.85 0.253497C445.286 0.201871 449.342 0.287213 450.226 0.293414C456.957 0.339658 461.874 0.32146 468.145 0.322589C469.6 0.322871 467.88 0.27532 469.281 0.273883C476.544 0.267068 484.067 0.271155 491.179 0.292254C492.761 0.297062 491.306 0.337567 492.062 0.341937C495.395 0.360712 496.134 0.284209 499.331 0.300738C500.005 0.304125 499.625 0.3388 499.748 0.342608C501.672 0.402389 503.344 0.317684 503.839 0.315814C510.099 0.290261 514.1 0.378689 520.147 0.366168C520.871 0.36458 519.239 0.320706 521.273 0.318927C534.821 0.306815 549.151 0.318867 562.561 0.353961C564.646 0.359358 563.158 0.392317 563.289 0.39638C565.428 0.459864 566.811 0.374803 567.491 0.3716C572.855 0.348541 577.865 0.419874 581.51 0.31856C604.225 0.35372 626.836 0.296827 649.364 0.387591C649.651 0.388642 649.137 0.430535 649.709 0.432452C656.59 0.455974 655.268 0.390866 659.821 0.311236C660.968 0.291241 664.457 0.38738 664.765 0.394427C665.89 0.420396 664.724 0.48272 665.1 0.487749C668.217 0.527241 667.709 0.32113 671.913 0.321063C672.044 0.321407 671.492 0.359344 671.845 0.363116C672.941 0.374958 674.028 0.359883 675.101 0.372943C677.556 0.403161 678.43 0.503313 682.18 0.445025C682.655 0.43746 681.93 0.320545 685.684 0.326068C687.18 0.328369 693.804 0.326365 695.66 0.333941C697.514 0.341509 696.241 0.379185 696.373 0.380816C701.369 0.430636 699.475 0.451284 701.978 0.525042C704.48 0.598522 703.786 0.423265 704.807 0.403704C705.829 0.384199 709.491 0.425303 710.392 0.439593C711.291 0.453888 710.169 0.477829 710.969 0.485918C716.273 0.538773 713.297 0.398928 715.045 0.371112C719.166 0.305249 722.375 0.435219 726.147 0.447955C727.168 0.451394 726.335 0.421792 727.244 0.419024C730.844 0.408452 733.008 0.449006 737.104 0.411822C737.774 0.405762 741.084 0.327621 743.227 0.384966C743.531 0.393236 742.668 0.425624 744.203 0.432879C746.494 0.443767 750.623 0.450846 753.087 0.44002C754.906 0.43201 752.821 0.378642 755.111 0.39522C756.128 0.402623 754.242 0.433844 756.154 0.445147C758.055 0.456447 762.917 0.455075 764.767 0.453997C766.613 0.452895 765.602 0.412413 765.752 0.409686C766.655 0.394063 770.198 0.374542 770.512 0.374591C786.308 0.369649 800.875 0.437886 816.254 0.415301C817.461 0.413587 816.657 0.370898 816.842 0.370196C820.973 0.35231 817.716 0.465811 820.602 0.503802C820.185 0.417172 821.889 0.432858 824.799 0.423357C826.202 0.418709 825.438 0.385165 825.566 0.381732C827.646 0.330783 829.094 0.39659 829.467 0.410052C830.845 0.459572 832.344 0.401061 833.281 0.434161C834.218 0.467013 832.062 0.515717 834.853 0.515093C835.636 0.484083 833.564 0.403044 835.683 0.38991C843.679 0.340231 858.605 0.403813 865.035 0.410418C871.451 0.417017 873.523 0.411296 877.262 0.422503C884.016 0.442767 881.541 0.382641 885.735 0.35512C889.94 0.327603 887.896 0.475539 888.5 0.507342C889.094 0.53913 889.742 0.506407 890.48 0.523882C891.216 0.541353 889.623 0.562976 891.354 0.569536C893.085 0.57609 897.819 0.519537 898.433 0.486285C899.731 0.415836 897.597 0.341897 902.179 0.367877C902.443 0.369419 901.587 0.408318 902.596 0.412249C910.61 0.442195 918.936 0.444052 926.94 0.470538C928.041 0.47424 927.057 0.517514 927.697 0.520159C934.369 0.547838 931.984 0.474872 935.641 0.393817C934.819 0.501684 936.841 0.567679 941.905 0.568316C944.949 0.568736 944.425 0.521625 946.393 0.488421C946.984 0.478411 949.137 0.51076 949.528 0.488604C950.815 0.41618 948.786 0.335106 954.006 0.367388C954.236 0.368923 953.506 0.408567 954.298 0.410967C959.413 0.426682 960.025 0.350928 965.555 0.341754C969.889 0.334555 977.598 0.380749 982.533 0.388262C982.429 0.509537 987.091 0.481767 988.982 0.39815C992.185 0.401573 995.644 0.396846 998.74 0.408404C999.805 0.412344 999.105 0.447457 999.24 0.45125C1001.3 0.510765 1002.69 0.429415 1003.38 0.426226C1010.88 0.395224 1016.98 0.456881 1024.13 0.396624C1024.39 0.394454 1024.8 0.310213 1026.71 0.371722C1026.83 0.375962 1024.47 0.41429 1027.83 0.417254C1031.2 0.420225 1037.54 0.465384 1042.21 0.426348C1043.34 0.416951 1046.2 0.348564 1048.5 0.401995C1048.8 0.409251 1048.47 0.433411 1048.91 0.446856C1050.33 0.489695 1051.11 0.404549 1052.79 0.476885C1054.47 0.549219 1057.95 0.603391 1062.66 0.553484C1062.81 0.552033 1063.93 0.484546 1065.41 0.485613C1067.78 0.487375 1071.13 0.501433 1073.6 0.500994C1074.78 0.500759 1074.03 0.458853 1074.23 0.458086C1082.18 0.434604 1087.84 0.471963 1096.35 0.488177C1097.91 0.491232 1102.4 0.434086 1105.42 0.479266C1108.74 0.528723 1105.33 0.734456 1112.96 0.685442C1116.03 0.665837 1119.93 0.404826 1125.46 0.540056C1136.18 0.506547 1146.1 0.575757 1156.85 0.52791C1157.33 0.525791 1158.86 0.452945 1160 0.453936C1161.68 0.455549 1162.61 0.489596 1163.82 0.491839C1168.86 0.502094 1173.48 0.472965 1178.35 0.477495C1180.2 0.479142 1179.55 0.514346 1181.76 0.516314C1183.96 0.518249 1185.43 0.471891 1188.42 0.49428C1190.67 0.511346 1192.93 0.606099 1195.92 0.617144C1196.03 0.52368 1198.09 0.525605 1201.74 0.500933C1202.44 0.496146 1201.69 0.463616 1202.02 0.459673C1203.37 0.442907 1204.63 0.469868 1205.91 0.451617C1206.22 0.447233 1206.24 0.415315 1206.49 0.40993C1208.66 0.362924 1212.24 0.434721 1212.85 0.447222C1215.21 0.494698 1216.31 0.453185 1218.11 0.47188C1219.92 0.490574 1217.22 0.513942 1219.33 0.525286C1223.69 0.548749 1229.3 0.543594 1233.73 0.545061C1235.5 0.545449 1234.29 0.502843 1234.55 0.501909C1238.21 0.491103 1241.9 0.536424 1243.93 0.451556C1246.47 0.670994 1246.14 0.430271 1251.37 0.4742C1251.78 0.477753 1252.3 0.581523 1250.72 0.596758C1249.14 0.611978 1246.74 0.579541 1244.55 0.603289C1244.03 0.608862 1241.05 0.706102 1240.65 0.711992C1237.47 0.758027 1237.02 0.602956 1236.85 0.594438C1234.94 0.502523 1231.3 0.60728 1230.35 0.614519C1225.96 0.647687 1222.24 0.625878 1218.58 0.649553C1216.18 0.664854 1215.95 0.766432 1214.07 0.763322C1207.81 0.753046 1205.63 0.611344 1199.73 0.734209C1198.47 0.760413 1199.72 0.871434 1195.2 0.784135C1194.91 0.778632 1191.55 0.698769 1189.61 0.749284C1189.36 0.755653 1189.37 0.788009 1189.05 0.790727C1186.89 0.808308 1185.45 0.782532 1183.1 0.794877C1180.75 0.807223 1177.93 0.825627 1175.25 0.814653C1173.63 0.80809 1171.56 0.747808 1170.78 0.733049C1168.6 0.690533 1166.26 0.760241 1164.9 0.708757C1163.54 0.657014 1166.21 0.578433 1162.63 0.545C1162.49 0.629062 1162.19 0.715343 1161.98 0.799882C1154.13 0.796922 1146.41 0.76974 1138.54 0.773454C1137.57 0.773999 1138.57 0.819191 1137.52 0.820939C1133.11 0.828119 1129.25 0.795903 1124.68 0.808732C1121.13 0.818836 1117.25 0.866685 1113.55 0.878739C1111.28 0.782549 1105.79 0.815203 1101.79 0.806413C1100.39 0.803376 1100.49 0.777685 1099.49 0.769304C1095.74 0.738306 1097.5 0.823309 1096.47 0.836686C1092.06 0.893778 1091.68 0.701379 1086.47 0.706133C1086.2 0.706319 1082.83 0.808876 1082.36 0.815263C1079.42 0.856909 1081.88 0.779567 1080.03 0.771989C1076.66 0.758142 1074.32 0.733649 1070.36 0.763688C1069.21 0.772586 1066.45 0.836509 1064.21 0.787065C1063.91 0.78059 1064.08 0.746692 1063.84 0.744707C1059.55 0.711615 1059.43 0.818129 1056.98 0.854203C1054.53 0.890269 1050.74 0.816741 1049.97 0.795549C1047.95 0.740727 1051.52 0.77212 1051.63 0.76674C1052.91 0.702717 1050.15 0.71374 1048.03 0.70833C1047.73 0.603891 1044.78 0.61016 1045.85 0.703142C1045.97 0.713298 1047.61 0.703558 1048.03 0.70833C1046.18 0.810799 1042.94 0.823922 1039.35 0.728166C1037.68 0.683287 1039.26 0.63096 1034.17 0.650102C1031.85 0.658744 1032.75 0.730655 1030.71 0.750261C1026.04 0.794993 1019.99 0.727912 1015.18 0.738481C1013.43 0.742318 1015.13 0.781682 1013.94 0.785661C1010.78 0.796343 1007.99 0.766808 1004.81 0.781938C1004.52 0.783359 1005.23 0.824565 1004.24 0.82509C996.746 0.829875 990.224 0.803482 982.402 0.802751C978.623 0.802416 971.867 0.825142 967.952 0.820573C961.167 0.812897 952.82 0.752977 947.024 0.767534C943.244 0.776851 944.073 0.818066 942.453 0.846147C939.327 0.900579 933.794 0.803078 933.049 0.78798C933.027 0.787481 936.28 0.777765 934.544 0.756608C933.535 0.712525 933.086 0.787789 933.049 0.78798C932.56 0.778227 926.062 0.768871 924.771 0.77675C924.07 0.781055 924.462 0.820104 924.097 0.821611C915.407 0.856555 906.703 0.86648 897.89 0.848222C897.734 0.847433 897.968 0.803755 897.603 0.802446C892.501 0.783025 889.234 0.836457 885.026 0.86818C880.819 0.899889 877.482 0.889269 874.992 0.814286C871.817 0.823727 867.263 0.790578 864.642 0.770463C862.021 0.750349 861.655 0.835372 861.424 0.837052C854.232 0.89085 850.074 0.842185 842.612 0.834611C839.064 0.830865 832.027 0.843197 828.186 0.852494C825.151 0.859984 823.322 0.840059 820.524 0.8528C820.146 0.854501 820.528 0.892357 820.413 0.893815C817.291 0.939108 818.791 0.846562 818.147 0.830033C815.81 0.769927 814.366 0.737915 810.369 0.766191C809.447 0.772666 806.76 0.90592 805.08 0.913712C802.894 0.9236 803.719 0.875837 801.431 0.887406C801.235 0.888353 801.275 0.917819 799.863 0.91652C793.308 0.910877 786.16 0.893731 779.348 0.896684C778.417 0.896974 779.61 0.943712 778.266 0.944901C771.957 0.950441 765.042 0.948712 758.895 0.926835C757.382 0.921303 758.331 0.888578 758.003 0.878861C755.986 0.820069 753.127 0.905493 752.655 0.907121C741.402 0.948171 732.789 0.870864 721.319 0.90767C720.695 0.909831 715.889 1.00141 713.745 0.922868C713.598 0.917642 711.476 0.837289 709.601 0.892228C709.484 0.895665 710.806 0.937033 708.499 0.932816C706.192 0.928609 702.48 0.956234 699.309 0.910783C698.305 0.896465 695.932 0.816309 692.938 0.880204C692.743 0.884665 688.12 1.02914 686.47 0.929459C686.203 0.913051 686.482 0.807566 682.908 0.86165C682.225 0.872135 683.465 0.895663 681.666 0.910355C678.91 0.932999 675.258 0.904747 671.869 0.951737C671.278 0.960056 668.763 1.03165 666.745 0.977311C666.429 0.9688 667.03 0.933584 665.964 0.929643C660.897 0.910738 655.591 0.934294 650.446 0.909928C648.624 0.901367 649.556 0.844435 647.656 0.829179C645.756 0.813928 641.929 0.799257 639.941 0.825273C637.953 0.8513 640.125 0.942035 637.146 0.949296C624.197 0.98083 611.369 0.927602 598.439 0.919816C596.521 0.918653 598.111 0.951121 595.285 0.951737C584.866 0.954153 566.876 0.984595 557.835 0.915604C550.591 0.860347 559.707 0.818279 554.172 0.795793C551.5 0.785066 548.61 0.890555 547.966 0.893876C541.666 0.927611 537.288 0.880882 531.618 0.895219C530.447 0.898194 531.596 0.940949 530.599 0.943009C527.195 0.950424 523.618 0.93134 520.366 0.93483C518.906 0.936495 519.175 0.96915 517.833 0.96663C514.62 0.960975 511.779 0.947249 508.647 0.916642C508.362 0.913853 510.287 0.873231 507.91 0.87172C504.063 0.869391 499.288 0.839197 494.862 0.870378C493.549 0.879757 493.497 0.95439 490.674 0.902848C490.082 0.892083 490.838 0.802465 487.55 0.879899C486.997 0.892767 481.473 0.99721 478.762 0.929887C478.047 0.912168 476.222 0.838833 474.642 0.850358C474.428 0.852197 475.286 0.892285 473.978 0.896195C469.366 0.909279 464.532 0.905002 459.794 0.917558C458.529 0.92099 460.414 0.962473 458.528 0.966263C453.342 0.976749 446.868 0.966186 441.797 0.953202C439.928 0.948336 441.22 0.913973 441.084 0.910233C438.896 0.849408 437.603 0.931508 436.877 0.936295C432.361 0.96496 428.923 0.926395 424.761 0.936601C423.612 0.939313 424.426 0.978459 424.198 0.981949C421.827 1.01605 423.593 0.945754 422.092 0.938004C417.887 0.916062 413.2 0.919208 408.947 0.92421C407.385 0.926105 409.141 0.971496 407.739 0.972672C399.442 0.980494 390.817 0.97615 382.72 0.951127C381.196 0.946333 382.155 0.911381 381.837 0.903397C379.647 0.847545 376.438 0.923728 375.699 0.930985C372.341 0.964121 371.037 0.933212 368.071 0.938981C353.585 0.967705 335.697 0.947234 322.023 0.934586C304.203 0.918309 290.376 0.885059 273.383 0.893693C272.303 0.894198 273.392 0.940695 272.461 0.941727C260.441 0.952936 248.608 0.934767 236.564 0.948197C235.576 0.949217 237 0.993296 235.414 0.996415C232.16 1.00312 228.039 1.00072 224.749 0.986649C223.144 0.979868 225.296 0.942043 223.681 0.93599C219.92 0.921809 215.889 0.91867 212.026 0.925736C210.382 0.92884 212.862 0.973922 210.726 0.974442C196.17 0.978915 181.875 0.986679 167.166 0.9283C166.158 0.92429 165.273 0.832665 163.129 0.850236C162.968 0.875664 162.977 0.905576 162.906 0.932755C141.717 0.947396 120.745 0.915633 99.4962 0.910722C98.6003 0.910525 100.149 0.959073 98.4141 0.958939C88.3755 0.958222 78.6273 0.971671 68.3589 0.923417C67.3401 0.918698 67.8628 0.833291 64.8604 0.846208C64.3309 0.848565 59.8089 0.859955 58.6398 0.878495C58.481 0.881292 59.306 0.921156 57.8488 0.922318C49.381 0.928372 40.5072 0.919271 32.054 0.894914C30.6897 0.890906 32.1426 0.848454 31.1709 0.845231C24.2781 0.822696 16.7807 0.854967 10.1944 0.816423C5.78567 0.79047 7.41789 0.717087 5.07517 0.644853C4.74382 0.634662 2.01383 0.633047 1.87265 0.591021C1.51021 0.48534 2.83253 0.369621 2.28995 0.256976C2.17532 0.232713 -1.48084 0.258846 0.683839 0.200214C0.835065 0.19629 3.4858 0.17683 4.13868 0.15694C4.59324 0.143188 3.77411 0.100447 4.70155 0.0828434C5.62891 0.0652564 6.64795 0.101084 8.1855 0.080402C9.72236 0.0594636 9.0466 0.0108407 12.1159 0.00508493ZM852.841 0.680559C850.414 0.639728 850.056 0.789275 852.681 0.753496C852.808 0.751589 852.966 0.682562 852.841 0.680559ZM1146.46 0.656938C1143.29 0.590977 1141.11 0.687966 1143.35 0.738908C1145.59 0.789796 1147.43 0.676934 1146.46 0.656938ZM1179.36 0.608782C1175.65 0.556775 1175.07 0.768839 1179.04 0.725969C1179.27 0.723546 1179.57 0.611802 1179.36 0.608782ZM15.9395 0.624285C15.906 0.622299 13.9436 0.620363 13.8967 0.622331C12.8517 0.669827 16.7758 0.673665 15.9395 0.624285ZM1212 0.556353C1210.85 0.527666 1207.51 0.560781 1208.95 0.596453C1210.11 0.625149 1213.44 0.592037 1212 0.556353ZM726.249 0.520952C726.211 0.518724 724.804 0.516717 724.832 0.529314C724.928 0.569886 726.885 0.558436 726.249 0.520952ZM1267.49 0.553911C1259.29 0.545929 1254.32 0.370754 1263.25 0.390521C1264.87 0.394097 1259.76 0.446383 1261.82 0.462176C1265.59 0.490948 1268.09 0.38096 1271.93 0.439898C1272.63 0.450686 1267.96 0.554756 1267.48 0.554155C1267.48 0.554074 1267.48 0.553993 1267.49 0.553911ZM851.443 0.500933C851.395 0.498955 849.447 0.49708 849.401 0.499041C848.346 0.546518 852.269 0.550323 851.443 0.500933ZM644.153 0.428484C644.046 0.424271 639.525 0.420329 639.378 0.424212C637.02 0.50185 646.158 0.510048 644.153 0.428484ZM982.611 0.391497C984.736 0.343735 987.278 0.338112 988.972 0.398089C986.86 0.394905 984.734 0.394436 982.611 0.391497Z" fill="white"/>
</svg>
