<svg width="21" height="24" viewBox="0 0 21 24" fill="none" xmlns="http://www.w3.org/2000/svg">
<path fill-rule="evenodd" clip-rule="evenodd" d="M10.5 0C5.19798 0 0.900024 4.29787 0.900024 9.59983C0.900024 12.2499 1.97429 14.6497 3.71045 16.3867C5.44748 18.1245 9.54011 20.6395 9.78009 23.2801C9.81648 23.676 10.1032 24 10.5 24C10.8977 24 11.1844 23.676 11.2208 23.2801C11.4608 20.6395 15.5526 18.1245 17.2896 16.3867C19.0266 14.6497 20.1 12.2499 20.1 9.59983C20.1 4.29787 15.8021 0 10.5 0Z" fill="#FF4433"/>
<path fill-rule="evenodd" clip-rule="evenodd" d="M10.5269 12.9969C12.3879 12.9969 13.896 11.4878 13.896 9.62778C13.896 7.76687 12.3879 6.25781 10.5269 6.25781C8.66603 6.25781 7.15784 7.76687 7.15784 9.62778C7.15784 11.4878 8.66603 12.9969 10.5269 12.9969Z" fill="white"/>
</svg>
