<svg width="636" height="7" viewBox="0 0 636 7" fill="none" xmlns="http://www.w3.org/2000/svg">
<path d="M629.942 0.994915C626.378 1.00794 621.706 0.994013 618.156 0.974896C617.043 0.968966 617.607 0.942462 616.838 0.937176C615.336 0.926871 613.937 0.93987 612.452 0.927594C611.96 0.923395 612.572 0.881413 612.056 0.877972C609.229 0.859418 606.555 0.870112 603.691 0.861188C589.585 0.817157 575.719 0.801398 561.44 0.782269C556.732 0.775998 551.008 0.737897 546.145 0.754559C545.578 0.756542 545.916 0.793392 545.808 0.796429C544.114 0.842925 544.677 0.768533 543.571 0.758649C539.181 0.719623 534.299 0.716229 530.074 0.730451C528.277 0.736609 530.079 0.809802 528.269 0.76872C528.144 0.765944 528.6 0.726812 528.107 0.722638C526.989 0.713251 524.868 0.720245 524.002 0.717145C522.332 0.710972 522.056 0.711365 520.477 0.710919C518.318 0.709969 515.75 0.690517 513.433 0.699384C512.939 0.701393 513.594 0.741508 512.805 0.748334C512.016 0.755149 509.928 0.751748 509.224 0.742291C508.52 0.73283 508.82 0.701301 508.695 0.694074C507.67 0.633075 505.255 0.717558 504.944 0.719647C499.278 0.755247 494.42 0.70712 489.102 0.707257C485.064 0.707464 480.747 0.723352 476.905 0.721173C472.328 0.718422 468.449 0.696685 464.003 0.700421C463.534 0.70077 464.084 0.747935 463.51 0.748456C457.421 0.753944 451.375 0.748803 445.312 0.716962C444.704 0.713727 445.487 0.672316 444.88 0.666608C441.161 0.632576 435.276 0.550821 433.067 0.731122C430.548 0.724082 427.489 0.716807 425.235 0.680463C423.782 0.657071 425.194 0.611958 423.409 0.631208C423.006 0.635497 423.53 0.675005 422.926 0.678449C420.384 0.692912 417.606 0.68007 415.092 0.700482C414.58 0.704727 414.72 0.740128 414.575 0.746503C413.357 0.798129 411.329 0.712787 410.887 0.706586C407.521 0.660342 405.063 0.67854 401.927 0.677411C401.2 0.677129 402.06 0.72468 401.36 0.726117C397.728 0.732932 393.966 0.728845 390.41 0.707746C389.62 0.702938 390.347 0.662433 389.969 0.658063C388.302 0.639288 387.933 0.715791 386.335 0.699262C385.998 0.695875 386.187 0.6612 386.126 0.657392C385.164 0.597611 384.328 0.682316 384.081 0.684186C380.951 0.709739 378.95 0.621311 375.926 0.633832C375.565 0.63542 376.38 0.679294 375.363 0.681073C368.589 0.693185 361.425 0.681133 354.719 0.646039C353.677 0.640642 354.421 0.607683 354.355 0.60362C353.286 0.540136 352.594 0.625197 352.254 0.6284C349.573 0.651459 347.067 0.580126 345.245 0.68144C333.887 0.64628 322.582 0.703173 311.318 0.612409C311.175 0.611358 311.431 0.569465 311.146 0.567548C307.705 0.544026 308.366 0.609135 306.09 0.688764C305.516 0.708759 303.772 0.61262 303.617 0.605573C303.055 0.579604 303.638 0.51728 303.45 0.512251C301.892 0.472759 302.146 0.67887 300.044 0.678937C299.978 0.678593 300.254 0.640656 300.078 0.636884C299.529 0.625042 298.986 0.640117 298.45 0.627057C297.222 0.596839 296.785 0.496687 294.91 0.554975C294.673 0.56254 295.035 0.679455 293.158 0.673932C292.41 0.671631 289.098 0.673635 288.17 0.666059C287.243 0.658491 287.879 0.620815 287.813 0.619184C285.315 0.569364 286.263 0.548716 285.011 0.474958C283.76 0.401478 284.107 0.576735 283.597 0.596296C283.086 0.615801 281.254 0.574697 280.804 0.560407C280.354 0.546112 280.915 0.522171 280.515 0.514082C277.863 0.461227 279.351 0.601072 278.477 0.628888C276.417 0.694751 274.813 0.564781 272.926 0.552045C272.416 0.548606 272.832 0.578208 272.378 0.580976C270.578 0.591548 269.496 0.550994 267.448 0.588178C267.113 0.594238 265.458 0.672379 264.386 0.615033C264.235 0.606764 264.666 0.574376 263.899 0.567121C262.753 0.556233 260.688 0.549154 259.456 0.55998C258.547 0.56799 259.589 0.621358 258.445 0.60478C257.936 0.597377 258.879 0.566156 257.923 0.554853C256.972 0.543553 254.542 0.544925 253.617 0.546003C252.694 0.547105 253.199 0.587587 253.124 0.590314C252.673 0.605937 250.901 0.625458 250.744 0.625409C242.846 0.630351 235.563 0.562114 227.873 0.584699C227.269 0.586413 227.671 0.629102 227.579 0.629804C225.513 0.64769 227.142 0.534189 225.699 0.496198C225.908 0.582828 225.056 0.567142 223.6 0.576642C222.899 0.581291 223.281 0.614835 223.217 0.618268C222.177 0.669217 221.453 0.60341 221.266 0.589948C220.578 0.540428 219.828 0.598939 219.359 0.565839C218.891 0.532987 219.969 0.484283 218.573 0.484907C218.182 0.515917 219.218 0.596956 218.158 0.61009C214.16 0.659769 206.697 0.596187 203.483 0.589582C200.275 0.582983 199.238 0.588704 197.369 0.577497C193.992 0.557233 195.23 0.617359 193.133 0.64488C191.03 0.672397 192.052 0.524461 191.75 0.492658C191.453 0.46087 191.129 0.493593 190.76 0.476118C190.392 0.458647 191.189 0.437024 190.323 0.430464C189.458 0.42391 187.09 0.480463 186.783 0.513715C186.135 0.584164 187.201 0.658103 184.91 0.632123C184.779 0.630581 185.206 0.591682 184.702 0.587751C180.695 0.557805 176.532 0.555948 172.53 0.529462C171.98 0.52576 172.472 0.482486 172.151 0.479841C168.816 0.452162 170.008 0.525128 168.18 0.606183C168.59 0.498316 167.579 0.432321 165.048 0.431684C163.526 0.431264 163.788 0.478375 162.803 0.511579C162.508 0.521589 161.431 0.48924 161.236 0.511396C160.593 0.58382 161.607 0.664894 158.997 0.632612C158.882 0.631077 159.247 0.591433 158.851 0.589033C156.293 0.573318 155.987 0.649072 153.223 0.658246C151.055 0.665445 147.201 0.619251 144.733 0.611738C144.785 0.490463 142.454 0.518233 141.509 0.60185C139.908 0.598427 138.178 0.603154 136.63 0.591596C136.097 0.587656 136.447 0.552543 136.38 0.54875C135.35 0.489235 134.654 0.570585 134.308 0.573774C130.562 0.604776 127.509 0.543119 123.934 0.603376C123.807 0.605546 123.602 0.689787 122.646 0.628278C122.584 0.624038 123.765 0.58571 122.083 0.582746C120.401 0.579775 117.229 0.534616 114.894 0.573652C114.329 0.583049 112.9 0.651436 111.752 0.598005C111.599 0.590749 111.767 0.566589 111.546 0.553144C110.833 0.510305 110.443 0.595451 109.605 0.523115C108.767 0.450781 107.023 0.396609 104.668 0.446516C104.593 0.447967 104.035 0.515454 103.295 0.514387C102.112 0.512625 100.434 0.498567 99.1994 0.499006C98.6083 0.499241 98.9867 0.541147 98.884 0.541914C94.9095 0.565396 92.0809 0.528037 87.8232 0.511823C87.0427 0.508768 84.7997 0.565914 83.2887 0.520734C81.6296 0.471277 83.3344 0.265544 79.5209 0.314558C77.9826 0.334163 76.0353 0.595174 73.2711 0.459944C67.91 0.493453 62.9523 0.424243 57.5763 0.47209C57.3345 0.474209 56.5702 0.547055 56.0017 0.546064C55.158 0.544451 54.6948 0.510404 54.0924 0.508161C51.5679 0.497906 49.2576 0.527035 46.8236 0.522504C45.8994 0.520858 46.2227 0.485654 45.1204 0.483686C44.0189 0.481752 43.2844 0.528109 41.7918 0.50572C40.6646 0.488654 39.5371 0.393901 38.041 0.382856C37.9839 0.47632 36.9562 0.474395 35.1296 0.499067C34.7783 0.503854 35.1551 0.536384 34.9888 0.540327C34.3129 0.557093 33.6873 0.530132 33.0455 0.548383C32.8894 0.552767 32.882 0.584685 32.7543 0.59007C31.669 0.637076 29.8808 0.565279 29.5737 0.552778C28.3965 0.505302 27.8466 0.546815 26.9437 0.52812C26.0424 0.509426 27.3901 0.486058 26.3372 0.474714C24.1547 0.451251 21.3505 0.456406 19.1339 0.454939C18.2495 0.454551 18.8529 0.497157 18.7263 0.498091C16.8975 0.508897 15.0482 0.463576 14.0342 0.548444C12.7662 0.329006 12.9315 0.569729 10.3173 0.5258C10.1115 0.522247 9.84933 0.418477 10.6399 0.403242C11.4306 0.388022 12.6292 0.420459 13.726 0.396711C13.9859 0.391138 15.4736 0.293899 15.6766 0.288008C17.2668 0.241973 17.4923 0.397044 17.5763 0.405562C18.5305 0.497477 20.3486 0.39272 20.8274 0.385481C23.0177 0.352313 24.8788 0.374121 26.7108 0.350447C27.9089 0.335146 28.0262 0.233568 28.9671 0.236678C32.0949 0.246954 33.1866 0.388656 36.134 0.265791C36.766 0.239587 36.1379 0.128566 38.4024 0.215865C38.5447 0.221368 40.226 0.301231 41.1973 0.250716C41.3194 0.244347 41.3155 0.211991 41.4764 0.209273C42.5547 0.191692 43.2736 0.217468 44.4484 0.205123C45.6229 0.192777 47.0352 0.174373 48.3764 0.185347C49.1846 0.19191 50.2215 0.252192 50.6084 0.266951C51.7008 0.309467 52.8721 0.239759 53.5489 0.291243C54.2313 0.342986 52.8972 0.421567 54.6868 0.455C54.7531 0.370938 54.9052 0.284657 55.0118 0.200118C58.9339 0.203078 62.7927 0.23026 66.7278 0.226546C67.2156 0.226001 66.7166 0.180809 67.2397 0.179061C69.4463 0.171881 71.3734 0.204097 73.6617 0.191268C75.433 0.181164 77.3752 0.133315 79.2273 0.121261C80.3587 0.217451 83.1069 0.184797 85.1035 0.193587C85.8028 0.196624 85.7561 0.222315 86.2534 0.230696C88.1298 0.261694 87.2505 0.176691 87.7649 0.163314C89.972 0.106222 90.1608 0.298621 92.7628 0.293868C92.9005 0.293681 94.5857 0.191124 94.8177 0.184737C96.2924 0.143091 95.0618 0.220433 95.9847 0.228011C97.6698 0.241858 98.8407 0.266351 100.818 0.236312C101.394 0.227414 102.777 0.163491 103.896 0.212935C104.044 0.21941 103.962 0.253308 104.081 0.255293C106.226 0.288385 106.283 0.181871 107.509 0.145797C108.735 0.109731 110.629 0.183259 111.015 0.204451C112.023 0.259273 110.242 0.22788 110.187 0.23326C109.546 0.297283 110.927 0.28626 111.983 0.29167C112.136 0.396109 113.612 0.38984 113.077 0.296858C113.016 0.286702 112.195 0.296442 111.983 0.29167C112.909 0.189201 114.531 0.176078 116.323 0.271834C117.162 0.316713 116.369 0.36904 118.917 0.349898C120.073 0.341256 119.626 0.269345 120.647 0.249739C122.978 0.205007 126.007 0.272088 128.41 0.261519C129.283 0.257682 128.433 0.218318 129.029 0.214339C130.611 0.203657 132.006 0.233192 133.595 0.218062C133.739 0.216641 133.387 0.175435 133.881 0.17491C137.627 0.170125 140.888 0.196518 144.799 0.197249C146.688 0.197584 150.067 0.174858 152.024 0.179427C155.416 0.187103 159.59 0.247023 162.488 0.232466C164.378 0.223149 163.963 0.181934 164.773 0.153853C166.336 0.0994207 169.103 0.196922 169.475 0.21202C169.487 0.212519 167.86 0.222235 168.728 0.243392C169.233 0.287475 169.457 0.212211 169.475 0.21202C169.72 0.221773 172.969 0.231129 173.614 0.22325C173.965 0.218945 173.769 0.179896 173.952 0.178389C178.296 0.143445 182.649 0.13352 187.055 0.151778C187.133 0.152567 187.016 0.196245 187.198 0.197554C189.749 0.216975 191.383 0.163543 193.487 0.13182C195.591 0.100111 197.259 0.110731 198.504 0.185714C200.092 0.176273 202.369 0.209422 203.679 0.229537C204.99 0.249651 205.172 0.164628 205.288 0.162948C208.884 0.10915 210.963 0.157815 214.694 0.165389C216.468 0.169135 219.986 0.156803 221.907 0.147506C223.425 0.140016 224.339 0.159941 225.738 0.147201C225.927 0.145499 225.736 0.107643 225.794 0.106185C227.354 0.0608921 226.604 0.153438 226.927 0.169967C228.095 0.230073 228.817 0.262085 230.816 0.233809C231.277 0.227334 232.62 0.0940804 233.46 0.0862876C234.553 0.0764 234.141 0.124163 235.285 0.112594C235.382 0.111647 235.362 0.0821807 236.068 0.08348C239.346 0.0891234 242.92 0.106269 246.326 0.103316C246.791 0.103026 246.195 0.0562876 246.867 0.0550988C250.022 0.0495585 253.479 0.0512882 256.552 0.0731651C257.309 0.0786969 256.835 0.111422 256.999 0.121139C258.007 0.179931 259.436 0.094507 259.672 0.0928794C265.299 0.0518287 269.605 0.129136 275.34 0.0923301C275.653 0.0901693 278.056 -0.00140691 279.128 0.0771323C279.201 0.0823576 280.262 0.162711 281.2 0.107772C281.258 0.104335 280.597 0.0629675 281.75 0.0671837C282.904 0.0713907 284.76 0.0437658 286.345 0.0892173C286.847 0.103535 288.034 0.183691 289.531 0.119796C289.629 0.115335 291.94 -0.0291401 292.765 0.0705406C292.899 0.086949 292.759 0.192434 294.546 0.13835C294.887 0.127865 294.267 0.104337 295.167 0.0896446C296.545 0.0670008 298.371 0.0952532 300.065 0.0482628C300.361 0.0399439 301.619 -0.0316529 302.627 0.0226892C302.785 0.0312001 302.485 0.0664164 303.018 0.0703575C305.552 0.0892623 308.204 0.065706 310.777 0.0900718C311.688 0.0986335 311.222 0.155565 312.172 0.170821C313.122 0.186072 315.035 0.200743 316.029 0.174727C317.024 0.1487 315.938 0.0579649 317.427 0.0507042C323.902 0.0191704 330.315 0.072398 336.78 0.0801841C337.739 0.081347 336.944 0.0488792 338.357 0.0482628C343.567 0.0458474 352.562 0.0154054 357.082 0.0843955C360.704 0.139653 356.146 0.181721 358.914 0.204207C360.25 0.214934 361.695 0.109445 362.017 0.106124C365.167 0.0723889 367.356 0.119118 370.191 0.104781C370.776 0.101806 370.202 0.0590505 370.7 0.0569908C372.402 0.0495761 374.191 0.0686603 375.817 0.0651695C376.547 0.0635051 376.412 0.0308499 377.084 0.0333703C378.69 0.0390247 380.11 0.0527515 381.676 0.0833579C381.819 0.0861469 380.857 0.126769 382.045 0.12828C383.969 0.130609 386.356 0.160803 388.569 0.129622C389.226 0.120243 389.251 0.04561 390.663 0.0971518C390.959 0.107917 390.581 0.197535 392.225 0.120101C392.502 0.107233 395.264 0.00278968 396.619 0.0701134C396.977 0.0878322 397.889 0.161167 398.679 0.149642C398.786 0.147803 398.357 0.107715 399.011 0.103805C401.317 0.0907214 403.734 0.0949984 406.103 0.0824424C406.735 0.0790102 405.793 0.0375271 406.736 0.0337365C409.329 0.0232513 412.566 0.0338137 415.101 0.046798C416.036 0.0516639 415.39 0.0860271 415.458 0.0897666C416.552 0.150591 417.199 0.0684918 417.562 0.0637047C419.819 0.0350395 421.539 0.0736051 423.62 0.0633995C424.194 0.0606871 423.787 0.0215411 423.901 0.0180505C425.087 -0.0160547 424.204 0.0542465 424.954 0.0619957C427.057 0.083938 429.4 0.0807918 431.526 0.0757896C432.307 0.0738946 431.43 0.028504 432.131 0.0273278C436.279 0.0195062 440.591 0.0238496 444.64 0.0488732C445.402 0.0536672 444.922 0.0886194 445.081 0.0966025C446.176 0.152455 447.781 0.0762717 448.15 0.0690147C449.829 0.0358794 450.482 0.0667883 451.964 0.0610191C459.208 0.032295 468.151 0.0527665 474.989 0.0654137C483.898 0.0816905 490.812 0.114941 499.308 0.106307C499.848 0.105802 499.304 0.0593048 499.769 0.0582725C505.779 0.0470636 511.696 0.0652328 517.718 0.0518029C518.212 0.0507832 517.5 0.0067035 518.293 0.00358522C519.92 -0.00311983 521.981 -0.000723958 523.626 0.0133508C524.428 0.0201324 523.352 0.0579567 524.159 0.0640098C526.04 0.0781909 528.055 0.0813303 529.987 0.0742637C530.809 0.0711605 529.569 0.0260781 530.637 0.0255578C537.915 0.0210853 545.062 0.013321 552.417 0.0717003C552.921 0.0757097 553.363 0.167335 554.435 0.149764C554.516 0.124336 554.512 0.0944238 554.547 0.0672447C565.141 0.0526038 575.628 0.0843673 586.252 0.0892783C586.7 0.089475 585.926 0.0409274 586.793 0.0410607C591.812 0.0417784 596.686 0.0283293 601.821 0.076583C602.33 0.0813021 602.069 0.166709 603.57 0.153792C603.835 0.151435 606.096 0.140045 606.68 0.121505C606.76 0.118708 606.347 0.0788435 607.076 0.0776817C611.31 0.0716281 615.746 0.0807291 619.973 0.105086C620.655 0.109094 619.929 0.151546 620.415 0.154769C623.861 0.177304 627.61 0.145033 630.903 0.183577C633.107 0.20953 632.291 0.282913 633.462 0.355147C633.628 0.365338 634.993 0.366953 635.064 0.408979C635.245 0.51466 634.584 0.630379 634.855 0.743024C634.912 0.767287 636.74 0.741154 635.658 0.799786C635.582 0.80371 634.257 0.82317 633.931 0.84306C633.703 0.856812 634.113 0.899553 633.649 0.917157C633.186 0.934744 632.676 0.898916 631.907 0.919598C631.139 0.940536 631.477 0.989159 629.942 0.994915ZM209.58 0.319441C210.793 0.360272 210.972 0.210725 209.66 0.246504C209.596 0.248411 209.517 0.317438 209.58 0.319441ZM62.7707 0.343062C64.357 0.409023 65.4426 0.312034 64.3234 0.261092C63.2046 0.210204 62.2875 0.323066 62.7707 0.343062ZM46.3214 0.391218C48.1753 0.443225 48.4672 0.231161 46.4815 0.274031C46.3661 0.276454 46.2129 0.388198 46.3214 0.391218ZM628.03 0.375715C628.047 0.377701 629.028 0.379637 629.052 0.377668C629.574 0.330173 627.612 0.326335 628.03 0.375715ZM29.9982 0.443647C30.577 0.472334 32.2433 0.439219 31.5243 0.403547C30.9453 0.374851 29.2775 0.407963 29.9982 0.443647ZM272.875 0.479048C272.895 0.481276 273.598 0.483283 273.584 0.470686C273.536 0.430114 272.557 0.441564 272.875 0.479048ZM2.25518 0.446089C6.35407 0.454071 8.83933 0.629246 4.37567 0.609479C3.56728 0.605903 6.11775 0.553617 5.08892 0.537824C3.20648 0.509052 1.95628 0.61904 0.0352929 0.560102C-0.312602 0.549314 2.02141 0.445244 2.26246 0.445845C2.26 0.445926 2.25771 0.446007 2.25518 0.446089ZM210.278 0.499067C210.303 0.501045 211.276 0.50292 211.3 0.500959C211.827 0.453482 209.865 0.449677 210.278 0.499067ZM313.924 0.571516C313.977 0.575729 316.237 0.579671 316.311 0.575788C317.49 0.49815 312.921 0.489952 313.924 0.571516ZM144.695 0.608503C143.632 0.656265 142.361 0.661888 141.514 0.601911C142.57 0.605095 143.633 0.605564 144.695 0.608503Z" fill="white"/>
<path d="M631.885 6.99488C629.464 7.0079 626.291 6.99398 623.879 6.97486C623.124 6.96893 623.506 6.94243 622.985 6.93714C621.964 6.92683 621.013 6.93983 620.005 6.92756C619.671 6.92336 620.087 6.88138 619.736 6.87794C617.816 6.85938 616 6.87008 614.054 6.86115C604.473 6.81712 595.054 6.80136 585.355 6.78224C582.157 6.77597 578.27 6.73786 574.967 6.75453C574.581 6.75651 574.811 6.79336 574.737 6.7964C573.587 6.84289 573.969 6.7685 573.218 6.75862C570.236 6.71959 566.92 6.7162 564.051 6.73042C562.83 6.73658 564.054 6.80977 562.824 6.76869C562.739 6.76591 563.049 6.72678 562.714 6.72261C561.955 6.71322 560.514 6.72021 559.926 6.71711C558.792 6.71094 558.604 6.71133 557.531 6.71089C556.065 6.70994 554.321 6.69049 552.747 6.69935C552.411 6.70136 552.856 6.74148 552.32 6.7483C551.784 6.75512 550.366 6.75172 549.888 6.74226C549.41 6.7328 549.613 6.70127 549.529 6.69404C548.832 6.63305 547.192 6.71753 546.981 6.71962C543.133 6.75522 539.832 6.70709 536.22 6.70723C533.477 6.70743 530.545 6.72332 527.936 6.72114C524.827 6.71839 522.192 6.69666 519.172 6.70039C518.853 6.70074 519.227 6.74791 518.837 6.74843C514.701 6.75392 510.594 6.74878 506.476 6.71694C506.063 6.7137 506.595 6.67229 506.183 6.66658C503.656 6.63255 499.659 6.5508 498.159 6.7311C496.448 6.72406 494.37 6.71678 492.839 6.68044C491.852 6.65705 492.811 6.61193 491.598 6.63118C491.325 6.63547 491.68 6.67498 491.27 6.67842C489.544 6.69289 487.657 6.68004 485.949 6.70046C485.602 6.7047 485.697 6.7401 485.598 6.74648C484.771 6.7981 483.393 6.71276 483.093 6.70656C480.807 6.66032 479.137 6.67852 477.007 6.67739C476.513 6.67711 477.097 6.72466 476.622 6.72609C474.155 6.73291 471.6 6.72882 469.184 6.70772C468.647 6.70291 469.141 6.66241 468.885 6.65804C467.753 6.63927 467.502 6.71577 466.416 6.69924C466.187 6.69585 466.316 6.66118 466.274 6.65737C465.621 6.59759 465.053 6.68229 464.885 6.68416C462.759 6.70972 461.4 6.62129 459.346 6.63381C459.1 6.6354 459.655 6.67927 458.964 6.68105C454.363 6.69316 449.496 6.68111 444.941 6.64602C444.233 6.64062 444.739 6.60766 444.694 6.6036C443.968 6.54012 443.498 6.62518 443.267 6.62838C441.445 6.65144 439.744 6.58011 438.506 6.68142C430.792 6.64626 423.112 6.70315 415.461 6.61239C415.364 6.61134 415.538 6.56945 415.344 6.56753C413.007 6.54401 413.456 6.60912 411.91 6.68875C411.52 6.70874 410.335 6.6126 410.231 6.60556C409.849 6.57959 410.245 6.51726 410.117 6.51223C409.058 6.47274 409.231 6.67885 407.803 6.67892C407.759 6.67858 407.946 6.64064 407.826 6.63687C407.454 6.62502 407.085 6.6401 406.72 6.62704C405.887 6.59682 405.59 6.49667 404.316 6.55496C404.155 6.56252 404.401 6.67944 403.126 6.67391C402.618 6.67161 400.369 6.67362 399.738 6.66604C399.108 6.65847 399.541 6.6208 399.496 6.61917C397.799 6.56935 398.443 6.5487 397.592 6.47494C396.743 6.40146 396.978 6.57672 396.632 6.59628C396.285 6.61578 395.041 6.57468 394.735 6.56039C394.429 6.54609 394.81 6.52215 394.539 6.51406C392.737 6.46121 393.748 6.60106 393.155 6.62887C391.755 6.69474 390.665 6.56476 389.384 6.55203C389.037 6.54859 389.32 6.57819 389.012 6.58096C387.789 6.59153 387.054 6.55098 385.663 6.58816C385.435 6.59422 384.311 6.67236 383.583 6.61502C383.48 6.60675 383.773 6.57436 383.252 6.56711C382.474 6.55622 381.071 6.54914 380.235 6.55996C379.617 6.56797 380.325 6.62134 379.547 6.60476C379.202 6.59736 379.842 6.56614 379.193 6.55484C378.547 6.54354 376.896 6.54491 376.268 6.54599C375.641 6.54709 375.984 6.58757 375.933 6.5903C375.627 6.60592 374.423 6.62544 374.317 6.62539C368.952 6.63034 364.005 6.5621 358.782 6.58469C358.372 6.5864 358.645 6.62909 358.582 6.62979C357.179 6.64768 358.285 6.53418 357.305 6.49619C357.447 6.58281 356.868 6.56713 355.879 6.57663C355.403 6.58128 355.663 6.61482 355.619 6.61826C354.913 6.6692 354.421 6.6034 354.294 6.58993C353.826 6.54041 353.317 6.59893 352.999 6.56583C352.681 6.53297 353.413 6.48427 352.465 6.48489C352.199 6.5159 352.903 6.59694 352.183 6.61008C349.467 6.65976 344.398 6.59617 342.215 6.58957C340.035 6.58297 339.332 6.58869 338.062 6.57749C335.768 6.55722 336.609 6.61735 335.184 6.64487C333.756 6.67239 334.45 6.52445 334.245 6.49265C334.044 6.46086 333.824 6.49358 333.573 6.47611C333.323 6.45864 333.864 6.43701 333.276 6.43045C332.688 6.4239 331.08 6.48045 330.872 6.5137C330.431 6.58415 331.156 6.65809 329.6 6.63211C329.51 6.63057 329.8 6.59167 329.458 6.58774C326.736 6.55779 323.908 6.55594 321.19 6.52945C320.816 6.52575 321.15 6.48248 320.933 6.47983C318.667 6.45215 319.477 6.52512 318.235 6.60617C318.514 6.49831 317.827 6.43231 316.108 6.43167C315.074 6.43125 315.252 6.47837 314.583 6.51157C314.383 6.52158 313.651 6.48923 313.519 6.51139C313.082 6.58381 313.771 6.66488 311.998 6.6326C311.92 6.63107 312.168 6.59142 311.899 6.58902C310.161 6.57331 309.954 6.64906 308.076 6.65824C306.604 6.66544 303.986 6.61924 302.309 6.61173C302.345 6.49045 300.762 6.51822 300.119 6.60184C299.032 6.59842 297.857 6.60315 296.805 6.59159C296.443 6.58765 296.681 6.55254 296.636 6.54874C295.936 6.48923 295.463 6.57058 295.228 6.57377C292.683 6.60477 290.61 6.54311 288.182 6.60337C288.095 6.60554 287.956 6.68978 287.307 6.62827C287.264 6.62403 288.067 6.5857 286.924 6.58274C285.782 6.57977 283.628 6.53461 282.041 6.57364C281.657 6.58304 280.686 6.65143 279.907 6.598C279.803 6.59074 279.917 6.56658 279.767 6.55314C279.283 6.5103 279.018 6.59544 278.449 6.52311C277.879 6.45077 276.695 6.3966 275.095 6.44651C275.044 6.44796 274.666 6.51545 274.162 6.51438C273.359 6.51262 272.219 6.49856 271.381 6.499C270.979 6.49923 271.236 6.54114 271.166 6.54191C268.467 6.56539 266.545 6.52803 263.653 6.51182C263.123 6.50876 261.6 6.56591 260.573 6.52073C259.446 6.47127 260.605 6.26554 258.014 6.31455C256.969 6.33416 255.647 6.59517 253.769 6.45994C250.128 6.49345 246.76 6.42424 243.108 6.47209C242.944 6.47421 242.425 6.54705 242.039 6.54606C241.466 6.54445 241.151 6.5104 240.742 6.50816C239.027 6.4979 237.458 6.52703 235.805 6.5225C235.177 6.52086 235.397 6.48565 234.648 6.48368C233.9 6.48175 233.401 6.52811 232.387 6.50572C231.621 6.48865 230.856 6.3939 229.839 6.38285C229.8 6.47632 229.102 6.47439 227.862 6.49906C227.623 6.50385 227.879 6.53638 227.766 6.54032C227.307 6.55709 226.882 6.53013 226.446 6.54838C226.34 6.55276 226.335 6.58468 226.248 6.59007C225.511 6.63707 224.296 6.56528 224.088 6.55278C223.288 6.5053 222.915 6.54681 222.301 6.52812C221.689 6.50942 222.605 6.48606 221.889 6.47471C220.407 6.45125 218.502 6.4564 216.997 6.45494C216.396 6.45455 216.806 6.49716 216.72 6.49809C215.478 6.5089 214.221 6.46358 213.533 6.54844C212.671 6.32901 212.784 6.56973 211.008 6.5258C210.868 6.52225 210.69 6.41848 211.227 6.40324C211.764 6.38802 212.578 6.42046 213.323 6.39671C213.5 6.39114 214.51 6.2939 214.648 6.28801C215.728 6.24197 215.881 6.39704 215.939 6.40556C216.587 6.49748 217.822 6.39272 218.147 6.38548C219.635 6.35231 220.899 6.37412 222.143 6.35045C222.957 6.33514 223.037 6.23357 223.676 6.23668C225.8 6.24695 226.542 6.38865 228.544 6.26579C228.973 6.23958 228.546 6.12856 230.085 6.21586C230.181 6.22137 231.323 6.30123 231.983 6.25071C232.066 6.24434 232.063 6.21199 232.173 6.20927C232.905 6.19169 233.393 6.21747 234.191 6.20512C234.989 6.19277 235.948 6.17437 236.859 6.18534C237.408 6.19191 238.113 6.25219 238.376 6.26695C239.118 6.30946 239.913 6.23976 240.373 6.29124C240.836 6.34298 239.93 6.42156 241.146 6.455C241.191 6.37093 241.294 6.28465 241.367 6.20011C244.031 6.20307 246.652 6.23026 249.325 6.22654C249.656 6.226 249.317 6.18081 249.672 6.17906C251.171 6.17188 252.48 6.20409 254.034 6.19126C255.237 6.18116 256.557 6.13331 257.815 6.12126C258.583 6.21745 260.45 6.18479 261.806 6.19358C262.281 6.19662 262.249 6.22231 262.587 6.23069C263.862 6.26169 263.265 6.17669 263.614 6.16331C265.113 6.10622 265.241 6.29862 267.009 6.29386C267.102 6.29368 268.247 6.19112 268.405 6.18473C269.406 6.14309 268.57 6.22043 269.197 6.22801C270.342 6.24185 271.137 6.26634 272.48 6.23631C272.872 6.22741 273.811 6.16349 274.571 6.21293C274.671 6.2194 274.616 6.2533 274.696 6.25529C276.154 6.28838 276.192 6.18186 277.025 6.14579C277.858 6.10972 279.144 6.18325 279.406 6.20444C280.091 6.25927 278.881 6.22787 278.844 6.23325C278.409 6.29728 279.347 6.28625 280.064 6.29166C280.168 6.3961 281.17 6.38983 280.807 6.29685C280.766 6.2867 280.208 6.29643 280.064 6.29166C280.693 6.18919 281.795 6.17607 283.012 6.27183C283.582 6.31671 283.043 6.36903 284.774 6.34989C285.559 6.34125 285.256 6.26934 285.949 6.24973C287.532 6.205 289.59 6.27208 291.222 6.26151C291.815 6.25767 291.237 6.21831 291.642 6.21433C292.717 6.20365 293.665 6.23318 294.744 6.21805C294.842 6.21663 294.603 6.17543 294.938 6.1749C297.482 6.17012 299.698 6.19651 302.354 6.19724C303.637 6.19758 305.932 6.17485 307.262 6.17942C309.566 6.18709 312.401 6.24701 314.369 6.23246C315.653 6.22314 315.371 6.18192 315.922 6.15384C316.983 6.09941 318.862 6.19691 319.115 6.21201C319.123 6.21251 318.018 6.22223 318.608 6.24338C318.951 6.28746 319.103 6.2122 319.115 6.21201C319.281 6.22176 321.488 6.23112 321.927 6.22324C322.165 6.21893 322.032 6.17989 322.156 6.17838C325.107 6.14343 328.063 6.13351 331.056 6.15177C331.109 6.15256 331.03 6.19623 331.154 6.19754C332.886 6.21696 333.996 6.16353 335.425 6.13181C336.854 6.1001 337.987 6.11072 338.833 6.1857C339.911 6.17626 341.458 6.20941 342.348 6.22952C343.238 6.24964 343.362 6.16462 343.441 6.16294C345.883 6.10914 347.296 6.1578 349.83 6.16538C351.035 6.16912 353.425 6.15679 354.729 6.14749C355.76 6.14 356.381 6.15993 357.331 6.14719C357.46 6.14549 357.33 6.10763 357.369 6.10617C358.429 6.06088 357.92 6.15342 358.139 6.16995C358.932 6.23006 359.423 6.26207 360.78 6.2338C361.094 6.22732 362.006 6.09407 362.577 6.08627C363.319 6.07639 363.039 6.12415 363.816 6.11258C363.883 6.11163 363.869 6.08217 364.348 6.08347C366.575 6.08911 369.002 6.10625 371.316 6.1033C371.632 6.10301 371.227 6.05627 371.683 6.05508C373.826 6.04954 376.174 6.05127 378.262 6.07315C378.776 6.07868 378.454 6.11141 378.565 6.12112C379.25 6.17992 380.221 6.09449 380.381 6.09286C384.203 6.05181 387.128 6.12912 391.024 6.09231C391.236 6.09015 392.868 5.99858 393.596 6.07712C393.646 6.08234 394.366 6.16269 395.004 6.10776C395.043 6.10432 394.594 6.06295 395.378 6.06717C396.161 6.07137 397.422 6.04375 398.499 6.0892C398.84 6.10352 399.646 6.18367 400.663 6.11978C400.729 6.11532 402.299 5.97084 402.859 6.07052C402.95 6.08693 402.855 6.19242 404.069 6.13833C404.301 6.12785 403.88 6.10432 404.491 6.08963C405.427 6.06698 406.667 6.09524 407.818 6.04825C408.019 6.03993 408.873 5.96833 409.558 6.02267C409.666 6.03118 409.462 6.0664 409.824 6.07034C411.544 6.08924 413.346 6.06569 415.094 6.09005C415.713 6.09861 415.396 6.15555 416.041 6.1708C416.687 6.18605 417.986 6.20072 418.662 6.17471C419.337 6.14868 418.599 6.05795 419.611 6.05069C424.009 6.01915 428.365 6.07238 432.756 6.08016C433.408 6.08133 432.868 6.04886 433.828 6.04824C437.366 6.04583 443.476 6.01538 446.547 6.08437C449.007 6.13963 445.911 6.1817 447.791 6.20419C448.698 6.21491 449.679 6.10942 449.898 6.1061C452.038 6.07237 453.525 6.1191 455.45 6.10476C455.848 6.10178 455.458 6.05903 455.797 6.05697C456.952 6.04955 458.167 6.06864 459.272 6.06515C459.768 6.06348 459.676 6.03083 460.132 6.03335C461.223 6.039 462.188 6.05273 463.252 6.08334C463.349 6.08612 462.695 6.12675 463.502 6.12826C464.809 6.13059 466.431 6.16078 467.934 6.1296C468.38 6.12022 468.397 6.04559 469.356 6.09713C469.557 6.10789 469.3 6.19751 470.417 6.12008C470.605 6.10721 472.481 6.00277 473.402 6.07009C473.644 6.08781 474.264 6.16114 474.801 6.14962C474.873 6.14778 474.582 6.10769 475.026 6.10378C476.593 6.0907 478.234 6.09497 479.843 6.08242C480.273 6.07899 479.633 6.0375 480.274 6.03371C482.035 6.02323 484.234 6.03379 485.956 6.04677C486.591 6.05164 486.152 6.086 486.198 6.08974C486.941 6.15057 487.38 6.06847 487.627 6.06368C489.16 6.03501 490.328 6.07358 491.742 6.06337C492.132 6.06066 491.855 6.02152 491.933 6.01803C492.738 5.98392 492.138 6.05422 492.648 6.06197C494.076 6.08391 495.668 6.08077 497.112 6.07576C497.643 6.07387 497.047 6.02848 497.523 6.0273C500.34 6.01948 503.27 6.02382 506.02 6.04885C506.537 6.05364 506.212 6.08859 506.319 6.09658C507.063 6.15243 508.153 6.07625 508.404 6.06899C509.545 6.03585 509.988 6.06676 510.995 6.06099C515.915 6.03227 521.99 6.05274 526.634 6.06539C532.686 6.08166 537.382 6.11491 543.153 6.10628C543.52 6.10577 543.15 6.05928 543.466 6.05824C547.548 6.04703 551.567 6.0652 555.658 6.05177C555.993 6.05075 555.509 6.00667 556.048 6.00355C557.153 5.99685 558.553 5.99925 559.67 6.01332C560.215 6.0201 559.484 6.05793 560.033 6.06398C561.31 6.07816 562.679 6.0813 563.991 6.07423C564.549 6.07113 563.707 6.02605 564.433 6.02553C569.376 6.02105 574.231 6.01329 579.227 6.07167C579.569 6.07568 579.869 6.1673 580.598 6.14973C580.652 6.1243 580.649 6.09439 580.673 6.06721C587.87 6.05257 594.992 6.08433 602.209 6.08924C602.513 6.08944 601.987 6.04089 602.576 6.04103C605.986 6.04174 609.296 6.02829 612.784 6.07655C613.13 6.08127 612.952 6.16667 613.972 6.15376C614.152 6.1514 615.688 6.14001 616.085 6.12147C616.139 6.11867 615.858 6.07881 616.353 6.07765C619.229 6.07159 622.243 6.08069 625.114 6.10505C625.577 6.10906 625.084 6.15151 625.414 6.15473C627.755 6.17727 630.301 6.145 632.538 6.18354C634.035 6.20949 633.481 6.28288 634.276 6.35511C634.389 6.3653 635.316 6.36691 635.364 6.40894C635.487 6.51462 635.038 6.63034 635.222 6.74299C635.261 6.76725 636.503 6.74112 635.768 6.79975C635.716 6.80367 634.816 6.82313 634.594 6.84302C634.44 6.85677 634.718 6.89952 634.403 6.91712C634.088 6.93471 633.742 6.89888 633.22 6.91956C632.698 6.9405 632.928 6.98912 631.885 6.99488ZM346.356 6.31943C347.18 6.36026 347.302 6.21071 346.41 6.24649C346.367 6.2484 346.313 6.31743 346.356 6.31943ZM246.637 6.34306C247.714 6.40902 248.451 6.31203 247.691 6.26109C246.931 6.2102 246.308 6.32306 246.637 6.34306ZM235.464 6.39122C236.723 6.44322 236.921 6.23116 235.572 6.27403C235.494 6.27645 235.39 6.3882 235.464 6.39122ZM630.587 6.37568C630.598 6.37766 631.264 6.3796 631.28 6.37763C631.635 6.33014 630.303 6.3263 630.587 6.37568ZM224.376 6.44365C224.769 6.47233 225.901 6.43922 225.413 6.40355C225.019 6.37485 223.887 6.40796 224.376 6.44365ZM389.349 6.47903C389.362 6.48126 389.84 6.48327 389.831 6.47067C389.798 6.4301 389.133 6.44155 389.349 6.47903ZM205.532 6.44609C208.316 6.45407 210.004 6.62925 206.972 6.60948C206.423 6.6059 208.155 6.55362 207.457 6.53782C206.178 6.50905 205.329 6.61904 204.024 6.5601C203.788 6.54931 205.373 6.44524 205.537 6.44584C205.535 6.44593 205.533 6.44601 205.532 6.44609ZM346.831 6.49905C346.847 6.50103 347.509 6.50291 347.524 6.50095C347.883 6.45347 346.55 6.44966 346.831 6.49905ZM417.231 6.5715C417.268 6.57571 418.803 6.57965 418.853 6.57577C419.653 6.49813 416.55 6.48993 417.231 6.5715ZM302.283 6.60849C301.561 6.65626 300.698 6.66188 300.123 6.6019C300.84 6.60509 301.562 6.60556 302.283 6.60849Z" fill="white"/>
</svg>
