<svg width="300" height="1" viewBox="0 0 300 1" fill="none" xmlns="http://www.w3.org/2000/svg">
<path d="M2.85752 0.00508481C4.53863 -0.00794168 6.7423 0.00598657 8.41707 0.025104C8.94194 0.0310332 8.67616 0.0575374 9.03848 0.0628236C9.74712 0.0731287 10.4073 0.06013 11.1076 0.072406C11.3397 0.076604 11.0508 0.118587 11.2941 0.122027C12.6276 0.140581 13.8892 0.129888 15.24 0.138812C21.894 0.182842 28.4346 0.198601 35.17 0.217729C37.3908 0.224 40.0905 0.262101 42.3843 0.245439C42.6521 0.243456 42.4925 0.206606 42.5434 0.203569C43.3425 0.157073 43.0768 0.231465 43.5986 0.241349C45.6693 0.280375 47.9721 0.283769 49.9649 0.269547C50.8128 0.263389 49.9627 0.190195 50.8164 0.231278C50.8757 0.234054 50.6605 0.273186 50.893 0.27736C51.4203 0.286747 52.4207 0.279752 52.8294 0.282853C53.617 0.289026 53.7473 0.288632 54.4922 0.289078C55.5106 0.290028 56.7218 0.30948 57.8144 0.300614C58.0477 0.298605 57.7389 0.25849 58.1109 0.251664C58.4831 0.244848 59.468 0.24825 59.8 0.257706C60.1321 0.267167 59.9907 0.298697 60.0495 0.305924C60.533 0.366922 61.6722 0.282439 61.8187 0.28035C64.4913 0.24475 66.7831 0.292877 69.2917 0.29274C71.1962 0.292533 73.2326 0.276645 75.0447 0.278823C77.2036 0.281574 79.0333 0.303312 81.1307 0.299575C81.352 0.299227 81.0927 0.252061 81.363 0.251541C84.2352 0.246052 87.0874 0.251193 89.9472 0.283034C90.234 0.286269 89.8644 0.32768 90.1509 0.333388C91.9053 0.36742 94.6811 0.449174 95.7231 0.268874C96.9114 0.275914 98.3541 0.283188 99.4172 0.319533C100.103 0.342925 99.437 0.388038 100.279 0.368788C100.469 0.364499 100.222 0.324991 100.507 0.321547C101.706 0.307083 103.016 0.319926 104.202 0.299513C104.443 0.295268 104.377 0.259867 104.446 0.253493C105.02 0.201866 105.977 0.287208 106.185 0.293409C107.773 0.339653 108.932 0.321455 110.412 0.322584C110.755 0.322866 110.349 0.275315 110.679 0.273878C112.392 0.267063 114.167 0.27115 115.844 0.292249C116.217 0.297057 115.874 0.337562 116.052 0.341932C116.839 0.360707 117.013 0.284204 117.767 0.300733C117.926 0.30412 117.836 0.338795 117.865 0.342603C118.319 0.402384 118.713 0.317679 118.83 0.315809C120.306 0.290256 121.25 0.378684 122.676 0.366162C122.847 0.364575 122.462 0.320701 122.942 0.318921C126.137 0.306809 129.517 0.318862 132.68 0.353955C133.171 0.359352 132.82 0.392311 132.851 0.396374C133.356 0.459858 133.682 0.374797 133.842 0.371594C135.107 0.348535 136.289 0.419868 137.148 0.318554C142.506 0.353713 147.839 0.29682 153.152 0.387584C153.219 0.388636 153.098 0.430528 153.233 0.432445C154.856 0.455967 154.544 0.390859 155.618 0.311229C155.889 0.291234 156.711 0.387373 156.784 0.39442C157.05 0.420389 156.774 0.482713 156.863 0.487743C157.598 0.527234 157.478 0.321123 158.47 0.321056C158.501 0.3214 158.371 0.359337 158.454 0.363109C158.713 0.374952 158.969 0.359877 159.222 0.372936C159.801 0.403154 160.007 0.503306 160.892 0.445018C161.004 0.437453 160.833 0.320538 161.718 0.326061C162.071 0.328362 163.633 0.326358 164.071 0.333934C164.508 0.341502 164.208 0.379177 164.239 0.380809C165.417 0.430629 164.971 0.451277 165.561 0.525035C166.151 0.598514 165.987 0.423258 166.228 0.403697C166.469 0.384191 167.333 0.425296 167.545 0.439586C167.757 0.453881 167.493 0.477821 167.681 0.485911C168.932 0.538765 168.231 0.39892 168.643 0.371104C169.615 0.305241 170.371 0.435212 171.261 0.447947C171.502 0.451386 171.305 0.421785 171.52 0.419017C172.369 0.408444 172.879 0.448999 173.845 0.411814C174.003 0.405755 174.784 0.327613 175.289 0.384959C175.361 0.393228 175.158 0.425616 175.519 0.432871C176.06 0.443759 177.034 0.450838 177.615 0.440012C178.044 0.432002 177.552 0.378634 178.092 0.395213C178.332 0.402615 177.887 0.433836 178.338 0.445139C178.787 0.456439 179.933 0.455067 180.369 0.453989C180.805 0.452887 180.567 0.412405 180.602 0.409678C180.815 0.394055 181.651 0.374534 181.724 0.374583C185.45 0.369641 188.886 0.437878 192.513 0.415292C192.797 0.413579 192.608 0.370889 192.651 0.370188C193.626 0.352302 192.857 0.465803 193.538 0.503793C193.44 0.417164 193.842 0.43285 194.528 0.423349C194.859 0.4187 194.679 0.385157 194.709 0.381723C195.2 0.330775 195.541 0.396581 195.629 0.410043C195.954 0.459564 196.307 0.401052 196.529 0.434152C196.75 0.467005 196.241 0.515708 196.899 0.515084C197.084 0.484074 196.595 0.403036 197.095 0.389902C198.981 0.340222 202.501 0.403804 204.018 0.410409C205.531 0.417008 206.02 0.411287 206.902 0.422494C208.494 0.442758 207.911 0.382632 208.9 0.355111C209.892 0.327593 209.409 0.47553 209.552 0.507332C209.692 0.53912 209.845 0.506398 210.019 0.523873C210.192 0.541344 209.817 0.562967 210.225 0.569527C210.633 0.576081 211.75 0.519528 211.895 0.486275C212.201 0.415827 211.697 0.341888 212.778 0.367867C212.84 0.369409 212.639 0.408309 212.876 0.41224C214.767 0.442186 216.73 0.444042 218.618 0.470528C218.878 0.474231 218.645 0.517505 218.797 0.520149C220.37 0.547828 219.808 0.474863 220.67 0.393807C220.476 0.501675 220.953 0.567669 222.147 0.568306C222.865 0.568726 222.742 0.521615 223.206 0.488411C223.345 0.478402 223.853 0.51075 223.945 0.488594C224.249 0.41617 223.77 0.335096 225.002 0.367379C225.056 0.368913 224.884 0.408557 225.07 0.410958C226.277 0.426673 226.421 0.350918 227.725 0.341744C228.747 0.334545 230.566 0.380739 231.73 0.388252C231.705 0.509527 232.804 0.481757 233.25 0.39814C234.006 0.401563 234.822 0.396836 235.552 0.408394C235.803 0.412334 235.638 0.447446 235.67 0.45124C236.156 0.510755 236.484 0.429405 236.647 0.426216C238.414 0.395214 239.854 0.45687 241.541 0.396614C241.6 0.394443 241.697 0.310202 242.148 0.371711C242.177 0.375951 241.62 0.41428 242.414 0.417243C243.207 0.420214 244.703 0.465373 245.805 0.426337C246.071 0.41694 246.745 0.348553 247.287 0.401984C247.359 0.40924 247.28 0.433401 247.384 0.446845C247.72 0.489685 247.904 0.404538 248.299 0.476874C248.695 0.549208 249.517 0.60338 250.628 0.553473C250.664 0.552022 250.927 0.484535 251.276 0.485602C251.834 0.487364 252.626 0.501422 253.208 0.500983C253.487 0.500748 253.308 0.458842 253.357 0.458075C255.231 0.434593 256.566 0.471952 258.574 0.488165C258.942 0.49122 260 0.434075 260.713 0.479254C261.495 0.528711 260.691 0.734445 262.49 0.68543C263.216 0.665825 264.134 0.404815 265.438 0.540045C267.967 0.506536 270.306 0.575746 272.841 0.527898C272.955 0.525779 273.316 0.452933 273.584 0.453924C273.982 0.455537 274.201 0.489584 274.485 0.491827C275.676 0.502082 276.765 0.472953 277.913 0.477483C278.349 0.47913 278.197 0.514334 278.717 0.516302C279.236 0.518236 279.583 0.471879 280.287 0.494268C280.819 0.511334 281.35 0.606087 282.056 0.617131C282.083 0.523668 282.568 0.525593 283.429 0.500921C283.595 0.496134 283.418 0.463603 283.496 0.459661C283.815 0.442895 284.11 0.469855 284.413 0.451604C284.486 0.447221 284.49 0.415303 284.55 0.409917C285.062 0.362912 285.905 0.434709 286.05 0.44721C286.605 0.494686 286.865 0.453172 287.291 0.471868C287.716 0.490561 287.08 0.513929 287.577 0.525273C288.606 0.548737 289.929 0.543582 290.975 0.545049C291.392 0.545437 291.107 0.502831 291.167 0.501897C292.03 0.491091 292.902 0.536411 293.38 0.451543C293.978 0.670981 293.9 0.430258 295.133 0.474187C295.23 0.47774 295.354 0.58151 294.981 0.596745C294.608 0.611965 294.043 0.579528 293.525 0.603276C293.403 0.608849 292.701 0.706089 292.605 0.711979C291.855 0.758014 291.749 0.602943 291.709 0.594426C291.259 0.50251 290.402 0.607268 290.176 0.614506C289.143 0.647674 288.265 0.625866 287.401 0.649541C286.835 0.664842 286.78 0.766419 286.336 0.76331C284.861 0.753033 284.346 0.611332 282.956 0.734196C282.658 0.760401 282.954 0.871422 281.886 0.784123C281.818 0.778619 281.026 0.698757 280.567 0.749272C280.51 0.755641 280.512 0.787997 280.436 0.790715C279.927 0.808296 279.588 0.78252 279.034 0.794865C278.48 0.80721 277.814 0.825615 277.181 0.814641C276.8 0.808078 276.311 0.747795 276.128 0.733037C275.613 0.690521 275.06 0.760229 274.741 0.708745C274.419 0.657002 275.049 0.578421 274.204 0.544988C274.173 0.62905 274.101 0.715331 274.051 0.79987C272.201 0.796911 270.381 0.769729 268.525 0.773442C268.295 0.773987 268.53 0.819179 268.283 0.820928C267.242 0.828107 266.333 0.795891 265.254 0.808721C264.418 0.818824 263.502 0.866673 262.629 0.878728C262.095 0.782537 260.799 0.815192 259.857 0.806402C259.527 0.803364 259.549 0.777674 259.314 0.769292C258.429 0.738295 258.844 0.823298 258.601 0.836675C257.561 0.893767 257.471 0.701367 256.244 0.706121C256.179 0.706308 255.384 0.808865 255.275 0.815252C254.579 0.856897 255.159 0.779556 254.724 0.771978C253.929 0.75813 253.377 0.733638 252.445 0.763677C252.173 0.772575 251.52 0.836498 250.992 0.787054C250.923 0.780579 250.961 0.746681 250.905 0.744696C249.893 0.711604 249.867 0.818118 249.288 0.854192C248.71 0.890258 247.816 0.81673 247.635 0.795538C247.159 0.740716 247.999 0.772109 248.025 0.766729C248.327 0.702706 247.676 0.713729 247.178 0.708319C247.106 0.60388 246.41 0.610149 246.662 0.703131C246.691 0.713287 247.078 0.703548 247.178 0.708319C246.741 0.810788 245.976 0.823911 245.131 0.728155C244.735 0.683276 245.109 0.630949 243.907 0.650092C243.362 0.658733 243.573 0.730645 243.091 0.75025C241.992 0.794982 240.563 0.727901 239.429 0.738471C239.018 0.742308 239.419 0.781672 239.137 0.785651C238.391 0.796333 237.733 0.766798 236.984 0.781928C236.916 0.783348 237.082 0.824554 236.848 0.825079C235.082 0.829865 233.543 0.803472 231.699 0.802741C230.807 0.802406 229.214 0.825132 228.291 0.820563C226.69 0.812887 224.722 0.752968 223.355 0.767524C222.463 0.776841 222.659 0.818056 222.277 0.846137C221.539 0.90057 220.235 0.803068 220.059 0.787971C220.053 0.787471 220.821 0.777755 220.411 0.756599C220.173 0.712516 220.068 0.78778 220.059 0.787971C219.943 0.778218 218.411 0.768862 218.106 0.77674C217.941 0.781046 218.034 0.820094 217.947 0.821601C215.898 0.856546 213.845 0.86647 211.766 0.848213C211.73 0.847424 211.785 0.803746 211.699 0.802436C210.496 0.783016 209.725 0.836448 208.733 0.868171C207.74 0.89988 206.953 0.88926 206.366 0.814277C205.617 0.823718 204.543 0.790569 203.925 0.770454C203.307 0.75034 203.221 0.835363 203.166 0.837044C201.47 0.890842 200.489 0.842176 198.729 0.834602C197.893 0.830856 196.233 0.843188 195.327 0.852486C194.611 0.859976 194.18 0.84005 193.52 0.852791C193.431 0.854493 193.521 0.892349 193.494 0.893807C192.757 0.939099 193.111 0.846554 192.959 0.830025C192.408 0.769919 192.068 0.737907 191.125 0.766183C190.907 0.772658 190.274 0.905911 189.877 0.913704C189.362 0.923592 189.556 0.875828 189.017 0.887398C188.97 0.888344 188.98 0.917811 188.647 0.916512C187.101 0.910868 185.415 0.893722 183.808 0.896676C183.589 0.896966 183.87 0.943704 183.553 0.944893C182.065 0.950434 180.434 0.948704 178.985 0.926827C178.628 0.921295 178.852 0.88857 178.774 0.878854C178.299 0.820061 177.624 0.905485 177.513 0.907113C174.859 0.948164 172.828 0.870856 170.122 0.907662C169.975 0.909823 168.842 1.0014 168.336 0.92286C168.301 0.917635 167.801 0.837281 167.359 0.892221C167.331 0.895658 167.643 0.937025 167.099 0.932809C166.555 0.928602 165.679 0.956227 164.931 0.910776C164.695 0.896458 164.135 0.816302 163.429 0.880197C163.383 0.884658 162.292 1.02913 161.903 0.929452C161.84 0.913044 161.906 0.807559 161.063 0.861643C160.902 0.872128 161.195 0.895656 160.77 0.910348C160.12 0.932992 159.259 0.90474 158.46 0.95173C158.32 0.960049 157.727 1.03165 157.251 0.977304C157.177 0.968793 157.318 0.933577 157.067 0.929636C155.872 0.910731 154.621 0.934287 153.407 0.909922C152.977 0.90136 153.197 0.844429 152.749 0.829172C152.301 0.813921 151.398 0.79925 150.929 0.825266C150.461 0.851294 150.973 0.942028 150.27 0.949289C147.216 0.980823 144.191 0.927596 141.141 0.91981C140.689 0.918647 141.064 0.951115 140.397 0.951731C137.94 0.954147 133.697 0.984589 131.565 0.915599C129.856 0.860342 132.006 0.818273 130.701 0.795787C130.071 0.785061 129.389 0.890549 129.237 0.89387C127.751 0.927605 126.719 0.880876 125.382 0.895213C125.105 0.898188 125.376 0.940944 125.141 0.943004C124.339 0.950418 123.495 0.931334 122.728 0.934825C122.384 0.93649 122.447 0.969145 122.13 0.966624C121.373 0.96097 120.703 0.947243 119.964 0.916637C119.897 0.913848 120.351 0.873226 119.79 0.871715C118.883 0.869385 117.757 0.839192 116.713 0.870372C116.403 0.879752 116.391 0.954385 115.725 0.902843C115.585 0.892078 115.764 0.80246 114.988 0.879894C114.858 0.892762 113.555 0.997205 112.916 0.929882C112.747 0.912163 112.316 0.838828 111.944 0.850353C111.893 0.852192 112.096 0.89228 111.787 0.89619C110.699 0.909274 109.56 0.904997 108.442 0.917553C108.144 0.920985 108.588 0.962468 108.143 0.966259C106.92 0.976744 105.393 0.966182 104.197 0.953197C103.757 0.948332 104.061 0.913968 104.029 0.910229C103.513 0.849404 103.208 0.931504 103.037 0.936291C101.972 0.964956 101.161 0.926391 100.179 0.936596C99.9085 0.939308 100.101 0.978455 100.047 0.981945C99.4874 1.01605 99.904 0.945749 99.55 0.938C98.5583 0.916058 97.4527 0.919204 96.4498 0.924206C96.0814 0.926101 96.4954 0.971492 96.1648 0.972668C94.2081 0.98049 92.1739 0.976146 90.2642 0.951123C89.9047 0.946329 90.1309 0.911377 90.0559 0.903394C89.5394 0.847541 88.7825 0.923724 88.6083 0.930981C87.8163 0.964117 87.5087 0.933208 86.8093 0.938977C83.3926 0.967701 79.1739 0.94723 75.9488 0.934583C71.7461 0.918306 68.4849 0.885056 64.4772 0.89369C64.2225 0.894195 64.4793 0.940692 64.2598 0.941725C61.4249 0.952934 58.634 0.934765 55.7934 0.948195C55.5603 0.949214 55.8963 0.993294 55.5222 0.996412C54.7548 1.00312 53.7827 1.00072 53.0068 0.986647C52.6283 0.979865 53.1359 0.942041 52.755 0.935988C51.868 0.921807 50.9172 0.918667 50.0061 0.925734C49.6184 0.928837 50.2034 0.97392 49.6994 0.97444C46.2666 0.978913 42.8951 0.986677 39.426 0.928298C39.1882 0.924289 38.9795 0.832663 38.4739 0.850234C38.4358 0.875663 38.4379 0.905575 38.4212 0.932754C33.4239 0.947395 28.4775 0.915631 23.4661 0.910721C23.2548 0.910524 23.62 0.959072 23.2109 0.958938C20.8433 0.958221 18.5442 0.97167 16.1224 0.923416C15.8821 0.918697 16.0054 0.83329 15.2973 0.846207C15.1724 0.848564 14.1059 0.859954 13.8301 0.878495C13.7927 0.881291 13.9873 0.921156 13.6436 0.922318C11.6465 0.928371 9.55358 0.919271 7.5599 0.894913C7.23814 0.890906 7.58079 0.848453 7.35162 0.845231C5.72597 0.822695 3.95772 0.854967 2.40433 0.816423C1.36454 0.79047 1.7495 0.717087 1.19698 0.644853C1.11883 0.634662 0.47496 0.633047 0.441664 0.591021C0.356182 0.48534 0.66805 0.369621 0.540083 0.256976C0.513047 0.232713 -0.349256 0.258846 0.161283 0.200214C0.196949 0.19629 0.822123 0.17683 0.976104 0.15694C1.08331 0.143188 0.89012 0.100447 1.10886 0.0828434C1.32757 0.0652564 1.56791 0.101084 1.93054 0.0804019C2.29301 0.0594635 2.13363 0.0108406 2.85752 0.00508481ZM201.142 0.68055C200.569 0.639719 200.485 0.789266 201.104 0.753487C201.134 0.75158 201.171 0.682553 201.142 0.68055ZM270.391 0.656926C269.643 0.590966 269.131 0.687954 269.659 0.738896C270.187 0.789784 270.619 0.676922 270.391 0.656926ZM278.15 0.60877C277.276 0.556762 277.138 0.768827 278.075 0.725957C278.129 0.723534 278.201 0.611789 278.15 0.60877ZM3.75931 0.624284C3.75141 0.622298 3.28858 0.620363 3.27752 0.622331C3.03106 0.669827 3.95655 0.673665 3.75931 0.624284ZM285.85 0.55634C285.577 0.527654 284.791 0.560769 285.13 0.59644C285.403 0.625137 286.19 0.592024 285.85 0.55634ZM171.285 0.520945C171.276 0.518717 170.944 0.51671 170.951 0.529307C170.973 0.569879 171.435 0.558428 171.285 0.520945ZM298.936 0.553898C297.003 0.545916 295.831 0.370741 297.936 0.390508C298.317 0.394084 297.114 0.44637 297.6 0.462163C298.488 0.490935 299.077 0.380946 299.983 0.439885C300.147 0.450673 299.047 0.554743 298.933 0.554142C298.934 0.554061 298.935 0.55398 298.936 0.553898ZM200.812 0.500924C200.801 0.498947 200.341 0.497072 200.33 0.499032C200.082 0.546509 201.007 0.550314 200.812 0.500924ZM151.923 0.428478C151.898 0.424264 150.831 0.420323 150.797 0.424205C150.241 0.501843 152.396 0.510041 151.923 0.428478ZM231.748 0.391487C232.249 0.343725 232.849 0.338101 233.248 0.398079C232.75 0.394895 232.249 0.394426 231.748 0.391487Z" fill="white" fill-opacity="0.6"/>
</svg>
