<svg width="2" height="216" viewBox="0 0 2 216" fill="none" xmlns="http://www.w3.org/2000/svg">
<path d="M0.205036 213.943C0.19201 212.732 0.205938 211.146 0.225055 209.94C0.230985 209.562 0.257489 209.753 0.262775 209.492C0.27308 208.982 0.260081 208.507 0.272357 208.003C0.276555 207.835 0.318538 208.043 0.321979 207.868C0.340532 206.908 0.329839 206 0.338763 205.027C0.382793 200.236 0.398553 195.527 0.417681 190.678C0.423952 189.079 0.462053 187.135 0.44539 185.483C0.443408 185.29 0.406558 185.405 0.40352 185.369C0.357025 184.793 0.431417 184.985 0.441301 184.609C0.480327 183.118 0.483721 181.46 0.469499 180.025C0.463341 179.415 0.390147 180.027 0.43123 179.412C0.434006 179.37 0.473138 179.524 0.477311 179.357C0.486699 178.977 0.479704 178.257 0.482805 177.963C0.488978 177.396 0.488584 177.302 0.48903 176.766C0.48998 176.032 0.509432 175.16 0.500566 174.374C0.498557 174.206 0.458442 174.428 0.451616 174.16C0.4448 173.892 0.448202 173.183 0.457658 172.944C0.467119 172.705 0.498649 172.807 0.505876 172.764C0.566874 172.416 0.482391 171.596 0.480302 171.491C0.444702 169.566 0.492829 167.916 0.492692 166.11C0.492485 164.739 0.476597 163.273 0.478776 161.968C0.481526 160.413 0.503264 159.096 0.499527 157.586C0.499179 157.427 0.452013 157.613 0.451493 157.419C0.446004 155.351 0.451145 153.297 0.482986 151.238C0.486221 151.031 0.527633 151.298 0.53334 151.091C0.567373 149.828 0.649127 147.83 0.468826 147.079C0.475867 146.224 0.483141 145.185 0.519485 144.42C0.542877 143.926 0.58799 144.405 0.56874 143.799C0.564451 143.662 0.524943 143.84 0.521499 143.635C0.507036 142.772 0.519878 141.829 0.499465 140.975C0.495221 140.801 0.45982 140.848 0.453445 140.799C0.401819 140.385 0.487161 139.697 0.493362 139.547C0.539605 138.403 0.521407 137.569 0.522536 136.504C0.522818 136.257 0.475267 136.549 0.473831 136.311C0.467015 135.078 0.471102 133.8 0.492202 132.592C0.49701 132.324 0.537514 132.571 0.541884 132.442C0.560659 131.876 0.484156 131.751 0.500686 131.208C0.504072 131.094 0.538747 131.158 0.542556 131.137C0.602336 130.81 0.517631 130.527 0.515761 130.442C0.490209 129.379 0.578636 128.7 0.566115 127.673C0.564528 127.55 0.520653 127.827 0.518874 127.482C0.506762 125.181 0.518815 122.748 0.553908 120.471C0.559305 120.117 0.592264 120.369 0.596327 120.347C0.659811 119.984 0.57475 119.749 0.571547 119.634C0.548488 118.723 0.619821 117.872 0.518507 117.253C0.553666 113.396 0.496773 109.556 0.587537 105.731C0.588589 105.682 0.630481 105.769 0.632398 105.672C0.65592 104.504 0.590812 104.728 0.511183 103.955C0.491187 103.76 0.587326 103.168 0.594373 103.115C0.620342 102.924 0.682666 103.122 0.687696 103.058C0.727187 102.529 0.521076 102.615 0.521009 101.902C0.521353 101.879 0.55929 101.973 0.563062 101.913C0.574905 101.727 0.55983 101.542 0.572889 101.36C0.603107 100.943 0.703259 100.795 0.644971 100.158C0.637406 100.077 0.520491 100.201 0.526014 99.5631C0.528315 99.309 0.526311 98.1843 0.533887 97.869C0.541455 97.5542 0.579131 97.7704 0.580762 97.7479C0.630582 96.8996 0.65123 97.2213 0.724988 96.7962C0.798467 96.3713 0.623211 96.4891 0.60365 96.3158C0.584145 96.1423 0.625249 95.5203 0.639539 95.3675C0.653834 95.2147 0.677775 95.4052 0.685864 95.2694C0.738718 94.3687 0.598873 94.8741 0.571057 94.5773C0.505194 93.8775 0.635165 93.3326 0.6479 92.692C0.65134 92.5187 0.621738 92.6601 0.61897 92.5058C0.608398 91.8945 0.648952 91.5269 0.611768 90.8315C0.605708 90.7177 0.527566 90.1555 0.584912 89.7916C0.593181 89.7401 0.62557 89.8865 0.632825 89.626C0.643713 89.2368 0.650792 88.5356 0.639966 88.1173C0.631956 87.8084 0.578587 88.1624 0.595166 87.7737C0.602569 87.6009 0.63379 87.9212 0.645093 87.5965C0.656392 87.2737 0.655021 86.4481 0.653943 86.134C0.652841 85.8204 0.612358 85.9921 0.609631 85.9667C0.594009 85.8133 0.574488 85.2116 0.574536 85.1584C0.569594 82.476 0.637831 80.0024 0.615246 77.3908C0.613532 77.1858 0.570843 77.3224 0.570141 77.2911C0.552255 76.5894 0.665756 77.1426 0.703747 76.6525C0.617118 76.7233 0.632803 76.434 0.623303 75.9397C0.618654 75.7016 0.585111 75.8313 0.581677 75.8096C0.530728 75.4564 0.596535 75.2104 0.609997 75.1471C0.659517 74.9132 0.601006 74.6586 0.634106 74.4994C0.666958 74.3403 0.715662 74.7065 0.715038 74.2325C0.684028 74.0996 0.602989 74.4514 0.589855 74.0916C0.540175 72.7337 0.603758 70.1991 0.610363 69.1073C0.616962 68.0177 0.61124 67.6658 0.622448 67.0309C0.642711 65.884 0.582586 66.3044 0.555065 65.5922C0.527547 64.8781 0.675484 65.2252 0.707286 65.1226C0.739074 65.0218 0.706352 64.9118 0.723827 64.7864C0.741297 64.6614 0.762921 64.932 0.769481 64.6381C0.776034 64.3441 0.719482 63.5401 0.686229 63.4359C0.61578 63.2156 0.541841 63.5778 0.567821 62.7998C0.569363 62.755 0.608262 62.9002 0.612194 62.7289C0.64214 61.3681 0.643996 59.9542 0.670482 58.595C0.674185 58.4082 0.717459 58.5752 0.720103 58.4665C0.747782 57.3336 0.674817 57.7386 0.593761 57.1176C0.701629 57.2571 0.767623 56.9137 0.76826 56.0539C0.76868 55.537 0.721569 55.626 0.688365 55.2917C0.678356 55.1914 0.710704 54.8257 0.688548 54.7594C0.616124 54.5409 0.53505 54.8854 0.567333 53.9989C0.568867 53.96 0.608511 54.0838 0.610912 53.9495C0.626626 53.0807 0.550872 52.9768 0.541698 52.0378C0.534499 51.3018 0.580693 49.9928 0.588206 49.1547C0.709481 49.1724 0.681711 48.3808 0.598094 48.0597C0.601517 47.5158 0.59679 46.9283 0.608348 46.4027C0.612288 46.2217 0.6474 46.3406 0.651194 46.3178C0.710709 45.968 0.629359 45.7315 0.62617 45.6141C0.595168 44.3417 0.656824 43.3051 0.596568 42.0908C0.594398 42.0477 0.510156 41.9779 0.571665 41.6533C0.575905 41.6322 0.614234 42.0333 0.617198 41.4621C0.620168 40.8908 0.665328 39.8138 0.626292 39.0207C0.616894 38.8287 0.548507 38.3432 0.601939 37.9536C0.609194 37.9017 0.633355 37.9585 0.646799 37.8836C0.689639 37.6413 0.604492 37.5091 0.676829 37.2244C0.749162 36.9397 0.803334 36.3475 0.753427 35.5476C0.751976 35.5222 0.684489 35.3328 0.685556 35.0812C0.687318 34.6797 0.701377 34.1096 0.700937 33.6904C0.700702 33.4896 0.658796 33.6181 0.65803 33.5832C0.634547 32.2335 0.671906 31.2727 0.68812 29.8267C0.691175 29.5616 0.634029 28.7999 0.679209 28.2867C0.728666 27.7232 0.934399 28.3023 0.885385 27.0071C0.86578 26.4847 0.604769 25.8233 0.739999 24.8845C0.70649 23.0638 0.7757 21.38 0.727853 19.5542C0.725733 19.4721 0.652887 19.2125 0.653879 19.0195C0.655491 18.7329 0.689538 18.5756 0.691781 18.371C0.702037 17.5136 0.672907 16.729 0.677438 15.9024C0.679084 15.5885 0.714289 15.6983 0.716256 15.3239C0.718191 14.9498 0.671833 14.7003 0.694222 14.1934C0.711288 13.8105 0.806041 13.4278 0.817086 12.9196C0.723622 12.9002 0.725547 12.5512 0.700875 11.9308C0.696088 11.8115 0.663558 11.9394 0.659616 11.883C0.642849 11.6535 0.66981 11.441 0.651559 11.223C0.647176 11.17 0.615257 11.1674 0.609872 11.1241C0.562866 10.7555 0.634663 10.1482 0.647164 10.0439C0.69464 9.6441 0.653127 9.45733 0.671822 9.1507C0.690516 8.84458 0.713884 9.3023 0.725228 8.94471C0.748691 8.20345 0.743536 7.25112 0.745003 6.49833C0.745391 6.19798 0.702785 6.40283 0.701852 6.3599C0.691045 5.73875 0.736366 5.11074 0.651498 4.76631C0.870936 4.33569 0.630213 4.39181 0.674142 3.50398C0.677694 3.43404 0.781465 3.3451 0.7967 3.61357C0.81192 3.88208 0.779483 4.28917 0.803231 4.66166C0.808804 4.74992 0.906043 5.2552 0.911934 5.32414C0.957969 5.86421 0.802898 5.94075 0.79438 5.96931C0.702465 6.29338 0.807222 6.91082 0.814461 7.07346C0.847629 7.81734 0.825821 8.44937 0.849495 9.0716C0.864796 9.47853 0.966374 9.51835 0.963264 9.8379C0.952988 10.9001 0.811287 11.2709 0.934151 12.2719C0.960355 12.4866 1.07138 12.2732 0.984077 13.0423C0.978574 13.0907 0.898711 13.6617 0.949227 13.9916C0.955596 14.033 0.987951 14.0317 0.990669 14.0863C1.00825 14.4525 0.982474 14.6967 0.99482 15.0957C1.00717 15.4946 1.02557 15.9742 1.0146 16.4297C1.00803 16.7042 0.94775 17.0564 0.932991 17.1878C0.890475 17.5588 0.960184 17.9565 0.9087 18.1864C0.856956 18.4182 0.778375 17.9651 0.744943 18.5729C0.829005 18.5954 0.915286 18.6471 0.999825 18.6833C0.996865 20.0153 0.969683 21.3258 0.973397 22.6623C0.973941 22.8279 1.01913 22.6585 1.02088 22.8361C1.02806 23.5855 0.995846 24.24 1.00868 25.0172C1.01878 25.6187 1.06663 26.2784 1.07868 26.9074C0.982492 27.2916 1.01515 28.225 1.00636 28.9031C1.00332 29.1405 0.977628 29.1247 0.969247 29.2936C0.938249 29.9309 1.02325 29.6323 1.03663 29.807C1.09372 30.5565 0.901322 30.6207 0.906076 31.5043C0.906262 31.5512 1.00882 32.1234 1.01521 32.2023C1.05685 32.7031 0.97951 32.2851 0.971932 32.5986C0.958085 33.1709 0.933592 33.5685 0.963632 34.2399C0.972529 34.4358 1.03645 34.9054 0.987008 35.2856C0.980534 35.3356 0.946635 35.308 0.94465 35.3482C0.911558 36.0769 1.01807 36.0961 1.05415 36.5125C1.09021 36.929 1.01668 37.5722 0.995492 37.7031C0.94067 38.0456 0.972063 37.4407 0.966684 37.4221C0.90266 37.2043 0.913683 37.6734 0.908273 38.0319C0.803834 38.0838 0.810103 38.5851 0.903085 38.4035C0.913241 38.3829 0.903502 38.1039 0.908273 38.0319C1.01074 38.3465 1.02387 38.8975 0.92811 39.506C0.88323 39.7908 0.830903 39.5216 0.850046 40.3868C0.858687 40.7795 0.930599 40.6278 0.950204 40.9743C0.994936 41.766 0.927855 42.7948 0.938425 43.611C0.942262 43.9073 0.981626 43.6187 0.985605 43.8211C0.996287 44.3584 0.966752 44.8323 0.981882 45.3719C0.983302 45.4208 1.02451 45.3013 1.02503 45.4691C1.02982 46.7412 1.00343 47.8488 1.00269 49.177C1.00236 49.8187 1.02509 50.966 1.02052 51.6308C1.01284 52.783 0.952922 54.2003 0.967478 55.1846C0.976795 55.8266 1.01801 55.6857 1.04609 55.9608C1.10052 56.4915 1.00302 57.4311 0.987925 57.5577C0.987425 57.5615 0.977709 57.0091 0.956553 57.3039C0.91247 57.4753 0.987733 57.5514 0.987925 57.5577C0.978172 57.6407 0.968816 58.7442 0.976694 58.9634C0.981 59.0824 1.02005 59.0158 1.02155 59.0779C1.0565 60.5535 1.06642 62.0316 1.04817 63.5282C1.04738 63.5545 1.0037 63.5148 1.00239 63.5768C0.98297 64.4432 1.0364 64.998 1.06812 65.7125C1.09983 66.427 1.08921 66.9936 1.01423 67.4165C1.02367 67.9556 0.990522 68.729 0.970408 69.1741C0.950294 69.6191 1.03532 69.6812 1.037 69.7204C1.0908 70.9417 1.04213 71.6478 1.03456 72.9149C1.03081 73.5174 1.04314 74.7123 1.05244 75.3646C1.05993 75.8801 1.04 76.1907 1.05274 76.6657C1.05445 76.7299 1.0923 76.665 1.09376 76.6846C1.13905 77.2147 1.04651 76.96 1.02998 77.0694C0.969872 77.4662 0.93786 77.7114 0.966136 78.3902C0.972611 78.5468 1.10586 79.003 1.11366 79.2884C1.12355 79.6595 1.07578 79.5194 1.08735 79.908C1.0883 79.9413 1.11776 79.9343 1.11647 80.1741C1.11082 81.2874 1.09368 82.5011 1.09663 83.6579C1.09692 83.8159 1.14366 83.6134 1.14485 83.8417C1.15039 84.913 1.14866 86.0872 1.12678 87.131C1.12125 87.3879 1.08852 87.2269 1.07881 87.2826C1.02001 87.625 1.10544 88.1105 1.10707 88.1906C1.14812 90.1016 1.07081 91.5641 1.10762 93.5119C1.10978 93.6179 1.20135 94.434 1.12281 94.7981C1.11759 94.823 1.03723 95.1832 1.09217 95.5018C1.09561 95.5216 1.13698 95.2971 1.13276 95.6888C1.12856 96.0805 1.15618 96.711 1.11073 97.2494C1.09641 97.4199 1.01626 97.8228 1.08015 98.3313C1.08461 98.3644 1.22909 99.1495 1.12941 99.4297C1.113 99.4751 1.00751 99.4275 1.0616 100.034C1.07208 100.15 1.09561 99.9399 1.1103 100.245C1.13295 100.713 1.10469 101.334 1.15168 101.909C1.16 102.009 1.2316 102.436 1.17726 102.779C1.16875 102.833 1.13353 102.731 1.12959 102.912C1.11068 103.772 1.13424 104.673 1.10987 105.547C1.10131 105.856 1.04438 105.698 1.02913 106.021C1.01387 106.343 0.999203 106.993 1.02522 107.331C1.05125 107.668 1.14198 107.3 1.14924 107.805C1.18078 110.004 1.12755 112.183 1.11976 114.378C1.1186 114.704 1.15107 114.434 1.15168 114.914C1.1541 116.683 1.18454 119.738 1.11555 121.273C1.06029 122.503 1.01823 120.955 0.99574 121.895C0.985013 122.349 1.0905 122.84 1.09382 122.949C1.12756 124.019 1.08083 124.762 1.09517 125.725C1.09814 125.924 1.1409 125.729 1.14296 125.898C1.15037 126.476 1.13129 127.084 1.13478 127.636C1.13644 127.884 1.1691 127.838 1.16658 128.066C1.16092 128.612 1.1472 129.094 1.11659 129.626C1.1138 129.674 1.07318 129.348 1.07167 129.751C1.06934 130.404 1.03914 131.215 1.07033 131.967C1.0797 132.19 1.15434 132.199 1.1028 132.678C1.09203 132.778 1.00241 132.65 1.07985 133.209C1.09271 133.302 1.19716 134.24 1.12983 134.701C1.11212 134.822 1.03878 135.132 1.05031 135.4C1.05214 135.437 1.09223 135.291 1.09614 135.513C1.10923 136.296 1.10495 137.117 1.11751 137.922C1.12094 138.137 1.16242 137.817 1.16621 138.137C1.1767 139.017 1.16613 140.117 1.15315 140.978C1.14828 141.295 1.11392 141.076 1.11018 141.099C1.04936 141.47 1.13146 141.69 1.13624 141.813C1.16491 142.58 1.12634 143.164 1.13655 143.871C1.13926 144.066 1.17841 143.928 1.1819 143.966C1.216 144.369 1.1457 144.069 1.13795 144.324C1.11601 145.038 1.11916 145.834 1.12416 146.556C1.12605 146.821 1.17144 146.523 1.17262 146.761C1.18044 148.17 1.1761 149.635 1.15108 151.01C1.14628 151.269 1.11133 151.106 1.10335 151.16C1.04749 151.532 1.12368 152.077 1.13093 152.202C1.16407 152.772 1.13316 152.994 1.13893 153.497C1.16765 155.957 1.14718 158.995 1.13454 161.317C1.11826 164.343 1.08501 166.691 1.09364 169.576C1.09415 169.76 1.14064 169.575 1.14168 169.733C1.15289 171.774 1.13472 173.784 1.14815 175.829C1.14917 175.997 1.19325 175.755 1.19636 176.024C1.20307 176.577 1.20067 177.276 1.1866 177.835C1.17982 178.108 1.14199 177.742 1.13594 178.016C1.12176 178.655 1.11862 179.34 1.12569 179.996C1.12879 180.275 1.17387 179.854 1.17439 180.216C1.17886 182.688 1.18663 185.116 1.12825 187.613C1.12424 187.784 1.03262 187.935 1.05019 188.299C1.07561 188.326 1.10553 188.325 1.13271 188.337C1.14735 191.935 1.11558 195.496 1.11067 199.104C1.11048 199.257 1.15902 198.994 1.15889 199.288C1.15817 200.993 1.17162 202.648 1.12337 204.392C1.11865 204.565 1.03324 204.476 1.04616 204.986C1.04852 205.076 1.05991 205.844 1.07845 206.042C1.08124 206.069 1.12111 205.929 1.12227 206.177C1.12832 207.615 1.11922 209.121 1.09486 210.557C1.09086 210.789 1.0484 210.542 1.04518 210.707C1.02265 211.877 1.05492 213.15 1.01637 214.269C0.990421 215.018 0.917038 214.74 0.844805 215.138C0.834613 215.194 0.832999 215.658 0.790972 215.682C0.685291 215.744 0.569572 215.519 0.456927 215.611C0.432665 215.631 0.458797 216.251 0.400165 215.884C0.396241 215.858 0.376781 215.408 0.356891 215.297C0.343139 215.22 0.300398 215.359 0.282795 215.202C0.265208 215.044 0.301036 214.871 0.280353 214.61C0.259415 214.349 0.210792 214.464 0.205036 213.943ZM0.880504 71.178C0.839673 71.5901 0.98922 71.6509 0.95344 71.2052C0.951534 71.1836 0.882507 71.1567 0.880504 71.178ZM0.856881 21.3184C0.79092 21.8571 0.887909 22.2257 0.938851 21.8457C0.989738 21.4657 0.876876 21.1542 0.856881 21.3184ZM0.808724 15.7318C0.756717 16.3614 0.968781 16.4605 0.925911 15.7862C0.923489 15.7469 0.811744 15.695 0.808724 15.7318ZM0.824236 213.293C0.82225 213.299 0.820314 213.632 0.822283 213.64C0.869778 213.818 0.873616 213.151 0.824236 213.293ZM0.756295 10.1881C0.727609 10.3846 0.760724 10.9506 0.796395 10.7064C0.825091 10.5097 0.791979 9.94326 0.756295 10.1881ZM0.720898 92.6747C0.71867 92.6812 0.716663 92.9201 0.72926 92.9153C0.769832 92.8991 0.758382 92.5666 0.720898 92.6747ZM0.753853 0.76591C0.745871 2.15803 0.570696 3.00201 0.590462 1.48606C0.594039 1.21158 0.646325 2.07771 0.662118 1.72831C0.69089 1.08899 0.580901 0.664413 0.63984 0.0119734C0.650627 -0.106153 0.754698 0.686511 0.754097 0.768382C0.754016 0.767558 0.753934 0.766734 0.753853 0.76591ZM0.700878 71.4153C0.6989 71.4235 0.697025 71.7543 0.698986 71.7622C0.746463 71.9413 0.750268 71.275 0.700878 71.4153ZM0.628431 106.616C0.624217 106.634 0.620276 107.401 0.624158 107.426C0.701796 107.827 0.709994 106.275 0.628431 106.616ZM0.591441 49.1415C0.543679 48.7807 0.538055 48.349 0.598033 48.0613C0.594849 48.42 0.59438 48.781 0.591441 49.1415Z" fill="white" fill-opacity="0.6"/>
</svg>
