<svg width="2" height="246" viewBox="0 0 2 246" fill="none" xmlns="http://www.w3.org/2000/svg">
<path d="M0.805134 243.657C0.792107 242.278 0.806035 240.471 0.825153 239.098C0.831082 238.668 0.857586 238.886 0.862872 238.588C0.873178 238.007 0.860179 237.466 0.872455 236.892C0.876653 236.701 0.918636 236.938 0.922076 236.739C0.94063 235.645 0.929937 234.611 0.938861 233.503C0.982891 228.047 0.99865 222.684 1.01778 217.161C1.02405 215.34 1.06215 213.126 1.04549 211.245C1.04351 211.025 1.00666 211.156 1.00362 211.114C0.957122 210.459 1.03151 210.677 1.0414 210.249C1.08042 208.551 1.08382 206.663 1.0696 205.029C1.06344 204.334 0.990245 205.031 1.03133 204.331C1.0341 204.282 1.07324 204.458 1.07741 204.268C1.0868 203.835 1.0798 203.015 1.0829 202.68C1.08908 202.034 1.08868 201.927 1.08913 201.316C1.09008 200.481 1.10953 199.488 1.10066 198.592C1.09865 198.401 1.05854 198.654 1.05171 198.349C1.0449 198.044 1.0483 197.236 1.05776 196.964C1.06722 196.692 1.09875 196.808 1.10597 196.759C1.16697 196.363 1.08249 195.429 1.0804 195.309C1.0448 193.117 1.09293 191.238 1.09279 189.181C1.09258 187.619 1.07669 185.949 1.07887 184.463C1.08162 182.693 1.10336 181.193 1.09962 179.473C1.09928 179.291 1.05211 179.504 1.05159 179.282C1.0461 176.927 1.05124 174.588 1.08308 172.243C1.08632 172.008 1.12773 172.311 1.13344 172.076C1.16747 170.638 1.24922 168.361 1.06892 167.507C1.07596 166.533 1.08324 165.35 1.11958 164.478C1.14297 163.916 1.18809 164.462 1.16884 163.771C1.16455 163.616 1.12504 163.818 1.1216 163.584C1.10713 162.601 1.11998 161.527 1.09956 160.554C1.09532 160.356 1.05992 160.411 1.05354 160.354C1.00192 159.883 1.08726 159.099 1.09346 158.928C1.1397 157.626 1.1215 156.675 1.12263 155.462C1.12292 155.181 1.07536 155.514 1.07393 155.243C1.06711 153.838 1.0712 152.383 1.0923 151.008C1.09711 150.702 1.13761 150.983 1.14198 150.837C1.16076 150.192 1.08425 150.05 1.10078 149.431C1.10417 149.301 1.13884 149.374 1.14265 149.351C1.20243 148.979 1.11773 148.655 1.11586 148.559C1.09031 147.349 1.17873 146.575 1.16621 145.405C1.16462 145.266 1.12075 145.581 1.11897 145.188C1.10686 142.568 1.11891 139.796 1.154 137.203C1.1594 136.8 1.19236 137.087 1.19642 137.062C1.25991 136.648 1.17485 136.381 1.17164 136.249C1.14858 135.212 1.21992 134.243 1.1186 133.538C1.15376 129.145 1.09687 124.772 1.18763 120.415C1.18869 120.36 1.23058 120.459 1.2325 120.349C1.25602 119.018 1.19091 119.274 1.11128 118.393C1.09128 118.171 1.18742 117.497 1.19447 117.437C1.22044 117.219 1.28276 117.445 1.28779 117.372C1.32728 116.769 1.12117 116.868 1.12111 116.055C1.12145 116.029 1.15939 116.136 1.16316 116.068C1.175 115.856 1.15993 115.645 1.17299 115.438C1.2032 114.963 1.30336 114.794 1.24507 114.069C1.2375 113.977 1.12059 114.117 1.12611 113.391C1.12841 113.102 1.12641 111.821 1.13398 111.462C1.14155 111.103 1.17923 111.35 1.18086 111.324C1.23068 110.358 1.25133 110.724 1.32508 110.24C1.39856 109.756 1.22331 109.89 1.20375 109.693C1.18424 109.495 1.22535 108.787 1.23964 108.613C1.25393 108.439 1.27787 108.656 1.28596 108.501C1.33882 107.475 1.19897 108.051 1.17115 107.713C1.10529 106.916 1.23526 106.295 1.248 105.566C1.25144 105.369 1.22184 105.53 1.21907 105.354C1.20849 104.658 1.24905 104.239 1.21186 103.447C1.20581 103.317 1.12766 102.677 1.18501 102.263C1.19328 102.204 1.22567 102.371 1.23292 102.074C1.24381 101.631 1.25089 100.832 1.24006 100.356C1.23205 100.004 1.17868 100.407 1.19526 99.9645C1.20267 99.7677 1.23389 100.132 1.24519 99.7627C1.25649 99.395 1.25512 98.4548 1.25404 98.097C1.25294 97.7399 1.21246 97.9354 1.20973 97.9065C1.19411 97.7319 1.17458 97.0465 1.17463 96.9859C1.16969 93.931 1.23793 91.1139 1.21534 88.1395C1.21363 87.9061 1.17094 88.0616 1.17024 88.0259C1.15235 87.2268 1.26585 87.8569 1.30384 87.2987C1.21721 87.3793 1.2329 87.0499 1.2234 86.4869C1.21875 86.2157 1.18521 86.3634 1.18177 86.3387C1.13082 85.9364 1.19663 85.6563 1.21009 85.5842C1.25961 85.3178 1.2011 85.0279 1.2342 84.8466C1.26706 84.6654 1.31576 85.0823 1.31513 84.5425C1.28412 84.3911 1.20309 84.792 1.18995 84.382C1.14027 82.8356 1.20385 79.949 1.21046 78.7056C1.21706 77.4647 1.21134 77.0638 1.22254 76.3408C1.24281 75.0346 1.18268 75.5133 1.15516 74.7023C1.12764 73.8889 1.27558 74.2843 1.30738 74.1674C1.33917 74.0526 1.30645 73.9273 1.32392 73.7845C1.34139 73.6422 1.36302 73.9503 1.36958 73.6156C1.37613 73.2807 1.31958 72.3651 1.28633 72.2464C1.21588 71.9955 1.14194 72.4081 1.16792 71.522C1.16946 71.471 1.20836 71.6364 1.21229 71.4413C1.24224 69.8914 1.24409 68.2813 1.27058 66.7332C1.27428 66.5204 1.31756 66.7107 1.3202 66.5869C1.34788 65.2966 1.27491 65.7578 1.19386 65.0507C1.30173 65.2094 1.36772 64.8184 1.36836 63.8392C1.36878 63.2505 1.32167 63.3519 1.28846 62.9711C1.27845 62.8569 1.3108 62.4404 1.28864 62.3649C1.21622 62.116 1.13515 62.5083 1.16743 61.4987C1.16896 61.4544 1.20861 61.5955 1.21101 61.4424C1.22672 60.4531 1.15097 60.3347 1.14179 59.2653C1.1346 58.427 1.18079 56.9363 1.1883 55.9818C1.30958 56.0019 1.28181 55.1003 1.19819 54.7346C1.20161 54.1152 1.19689 53.4462 1.20844 52.8475C1.21238 52.6414 1.2475 52.7768 1.25129 52.7508C1.31081 52.3524 1.22946 52.0831 1.22627 51.9494C1.19526 50.5003 1.25692 49.3197 1.19666 47.9367C1.19449 47.8877 1.11025 47.8082 1.17176 47.4384C1.176 47.4145 1.21433 47.8713 1.21729 47.2207C1.22026 46.5701 1.26542 45.3435 1.22639 44.4402C1.21699 44.2216 1.1486 43.6687 1.20204 43.2249C1.20929 43.1658 1.23345 43.2305 1.2469 43.1452C1.28974 42.8693 1.20459 42.7187 1.27693 42.3944C1.34926 42.0702 1.40343 41.3957 1.35352 40.4848C1.35207 40.4558 1.28459 40.2401 1.28565 39.9536C1.28741 39.4963 1.30147 38.8471 1.30103 38.3696C1.3008 38.1409 1.25889 38.2873 1.25813 38.2476C1.23464 36.7103 1.272 35.6162 1.28822 33.9693C1.29127 33.6674 1.23413 32.7999 1.2793 32.2154C1.32876 31.5737 1.5345 32.2332 1.48548 30.7581C1.46588 30.1631 1.20487 29.4099 1.3401 28.3407C1.30659 26.2671 1.3758 24.3495 1.32795 22.2701C1.32583 22.1766 1.25298 21.8809 1.25398 21.6611C1.25559 21.3347 1.28963 21.1556 1.29188 20.9225C1.30213 19.946 1.273 19.0525 1.27753 18.111C1.27918 17.7536 1.31438 17.8785 1.31635 17.4523C1.31829 17.0262 1.27193 16.7421 1.29432 16.1647C1.31138 15.7287 1.40614 15.2927 1.41718 14.7139C1.32372 14.6919 1.32564 14.2944 1.30097 13.5878C1.29618 13.4521 1.26365 13.5977 1.25971 13.5334C1.24295 13.2719 1.26991 13.03 1.25166 12.7817C1.24727 12.7213 1.21535 12.7185 1.20997 12.6691C1.16296 12.2493 1.23476 11.5576 1.24726 11.4389C1.29474 10.9836 1.25322 10.7708 1.27192 10.4216C1.29061 10.073 1.31398 10.5943 1.32532 10.187C1.34879 9.34287 1.34363 8.25818 1.3451 7.40086C1.34549 7.05881 1.30288 7.29216 1.30195 7.24321C1.29114 6.53586 1.33646 5.82054 1.25159 5.4283C1.47103 4.93784 1.23031 5.00175 1.27424 3.99065C1.27779 3.911 1.38156 3.80968 1.3968 4.11546C1.41202 4.4212 1.37958 4.88489 1.40333 5.30913C1.4089 5.40958 1.50614 5.98509 1.51203 6.06361C1.55807 6.67871 1.40299 6.76582 1.39448 6.7984C1.30256 7.1674 1.40732 7.8707 1.41456 8.05588C1.44773 8.90308 1.42592 9.62292 1.44959 10.3315C1.46489 10.795 1.56647 10.8403 1.56336 11.2043C1.55308 12.414 1.41138 12.8363 1.53425 13.9763C1.56045 14.2208 1.67147 13.9779 1.58417 14.8538C1.57867 14.9088 1.49881 15.5591 1.54932 15.9348C1.55569 15.982 1.58805 15.9805 1.59077 16.0427C1.60835 16.4598 1.58257 16.738 1.59492 17.1923C1.60726 17.6466 1.62567 18.1929 1.61469 18.7116C1.60813 19.0242 1.54785 19.4253 1.53309 19.575C1.49057 19.9975 1.56028 20.4506 1.5088 20.7123C1.45705 20.9763 1.37847 20.4602 1.34504 21.1524C1.4291 21.1781 1.51538 21.2369 1.59992 21.2782C1.59696 22.7952 1.56978 24.2877 1.57349 25.8098C1.57404 25.9985 1.61923 25.8055 1.62098 26.0078C1.62816 26.8613 1.59594 27.6067 1.60877 28.4918C1.61888 29.1769 1.66672 29.9281 1.67878 30.6445C1.58259 31.0821 1.61524 32.1451 1.60645 32.9174C1.60342 33.1879 1.57772 33.1698 1.56934 33.3622C1.53835 34.088 1.62335 33.7478 1.63673 33.9468C1.69382 34.8005 1.50142 34.8736 1.50617 35.8799C1.50636 35.9333 1.60892 36.585 1.6153 36.6748C1.65695 37.2451 1.57961 36.7692 1.57203 37.1262C1.55818 37.7779 1.53369 38.2308 1.56373 38.9955C1.57263 39.2185 1.63655 39.7533 1.5871 40.1864C1.58063 40.2433 1.54673 40.2118 1.54475 40.2577C1.51165 41.0875 1.61817 41.1094 1.65424 41.5836C1.69031 42.058 1.61678 42.7906 1.59559 42.9397C1.54077 43.3297 1.57216 42.6408 1.56678 42.6197C1.50276 42.3716 1.51378 42.9058 1.50837 43.3141C1.40393 43.3732 1.4102 43.9441 1.50318 43.7373C1.51334 43.7138 1.5036 43.3961 1.50837 43.3141C1.61084 43.6725 1.62396 44.2999 1.52821 44.9929C1.48333 45.3173 1.431 45.0107 1.45014 45.9961C1.45878 46.4433 1.5307 46.2705 1.5503 46.6652C1.59503 47.5669 1.52795 48.7385 1.53852 49.6681C1.54236 50.0055 1.58172 49.6768 1.5857 49.9074C1.59638 50.5193 1.56685 51.059 1.58198 51.6735C1.5834 51.7292 1.6246 51.5931 1.62513 51.7843C1.62992 53.233 1.60352 54.4945 1.60279 56.0071C1.60246 56.738 1.62518 58.0446 1.62061 58.8017C1.61294 60.1139 1.55302 61.7282 1.56757 62.8491C1.57689 63.5802 1.61811 63.4198 1.64619 63.7331C1.70062 64.3376 1.60312 65.4077 1.58802 65.5518C1.58752 65.5562 1.57781 64.9271 1.55665 65.2627C1.51257 65.4579 1.58783 65.5447 1.58802 65.5518C1.57827 65.6464 1.56891 66.9032 1.57679 67.1527C1.5811 67.2883 1.62014 67.2125 1.62165 67.2832C1.6566 68.9637 1.66652 70.6471 1.64826 72.3515C1.64747 72.3816 1.6038 72.3364 1.60249 72.4069C1.58307 73.3936 1.6365 74.0255 1.66822 74.8393C1.69993 75.653 1.68931 76.2982 1.61433 76.7799C1.62377 77.3939 1.59062 78.2747 1.5705 78.7816C1.55039 79.2884 1.63541 79.3592 1.63709 79.4037C1.69089 80.7948 1.64223 81.5989 1.63465 83.042C1.63091 83.7281 1.64324 85.0891 1.65254 85.8319C1.66003 86.419 1.6401 86.7727 1.65284 87.3137C1.65454 87.3868 1.6924 87.3129 1.69386 87.3353C1.73915 87.939 1.6466 87.6488 1.63008 87.7735C1.56997 88.2254 1.53796 88.5046 1.56623 89.2778C1.57271 89.4561 1.70596 89.9756 1.71375 90.3007C1.72364 90.7233 1.67588 90.5638 1.68745 91.0063C1.68839 91.0442 1.71786 91.0363 1.71656 91.3094C1.71092 92.5773 1.69377 93.9596 1.69673 95.2771C1.69702 95.457 1.74375 95.2263 1.74494 95.4863C1.75048 96.7065 1.74875 98.0438 1.72688 99.2325C1.72135 99.5251 1.68862 99.3416 1.6789 99.4052C1.62011 99.7951 1.70554 100.348 1.70716 100.439C1.74821 102.616 1.67091 104.281 1.70771 106.5C1.70987 106.62 1.80145 107.55 1.72291 107.964C1.71769 107.993 1.63733 108.403 1.69227 108.766C1.69571 108.788 1.73708 108.533 1.73286 108.979C1.72865 109.425 1.75628 110.143 1.71083 110.756C1.69651 110.95 1.61635 111.409 1.68025 111.988C1.68471 112.026 1.82918 112.92 1.7295 113.239C1.71309 113.291 1.60761 113.237 1.66169 113.928C1.67218 114.06 1.69571 113.82 1.7104 114.168C1.73304 114.701 1.70479 115.408 1.75178 116.063C1.7601 116.177 1.8317 116.664 1.77735 117.054C1.76884 117.115 1.73363 116.999 1.72969 117.205C1.71078 118.185 1.73434 119.211 1.70997 120.206C1.70141 120.559 1.64448 120.378 1.62922 120.746C1.61397 121.113 1.5993 121.853 1.62532 122.238C1.65134 122.622 1.74208 122.202 1.74934 122.778C1.78087 125.283 1.72765 127.763 1.71986 130.264C1.7187 130.635 1.75116 130.328 1.75178 130.874C1.7542 132.889 1.78464 136.368 1.71565 138.117C1.66039 139.518 1.61832 137.755 1.59584 138.825C1.58511 139.342 1.6906 139.901 1.69392 140.026C1.72766 141.244 1.68093 142.091 1.69526 143.187C1.69824 143.413 1.74099 143.191 1.74305 143.384C1.75047 144.042 1.73138 144.734 1.73487 145.363C1.73654 145.645 1.76919 145.593 1.76667 145.853C1.76102 146.474 1.74729 147.024 1.71669 147.63C1.7139 147.685 1.67328 147.312 1.67176 147.772C1.66944 148.516 1.63924 149.44 1.67042 150.296C1.6798 150.55 1.75443 150.559 1.70289 151.105C1.69213 151.22 1.60251 151.074 1.67994 151.71C1.69281 151.817 1.79726 152.885 1.72993 153.409C1.71221 153.548 1.63888 153.901 1.6504 154.206C1.65224 154.247 1.69233 154.081 1.69624 154.335C1.70932 155.226 1.70505 156.161 1.7176 157.078C1.72103 157.322 1.76252 156.958 1.76631 157.322C1.77679 158.325 1.76623 159.577 1.75325 160.558C1.74838 160.92 1.71402 160.67 1.71028 160.696C1.64945 161.119 1.73155 161.369 1.73634 161.51C1.76501 162.383 1.72644 163.048 1.73665 163.853C1.73936 164.075 1.7785 163.918 1.78199 163.962C1.8161 164.42 1.7458 164.079 1.73805 164.369C1.71611 165.182 1.71925 166.089 1.72426 166.911C1.72615 167.213 1.77154 166.874 1.77272 167.145C1.78054 168.749 1.7762 170.417 1.75117 171.983C1.74638 172.278 1.71143 172.093 1.70344 172.154C1.64759 172.578 1.72377 173.198 1.73103 173.341C1.76417 173.991 1.73326 174.243 1.73903 174.816C1.76775 177.618 1.74728 181.077 1.73463 183.722C1.71836 187.168 1.68511 189.842 1.69374 193.129C1.69424 193.338 1.74074 193.127 1.74177 193.307C1.75298 195.632 1.73481 197.92 1.74824 200.249C1.74926 200.441 1.79334 200.165 1.79646 200.472C1.80317 201.101 1.80077 201.898 1.7867 202.534C1.77991 202.845 1.74209 202.429 1.73604 202.741C1.72186 203.468 1.71872 204.248 1.72578 204.995C1.72889 205.313 1.77397 204.833 1.77449 205.246C1.77896 208.061 1.78673 210.826 1.72835 213.671C1.72434 213.866 1.63271 214.037 1.65028 214.451C1.67571 214.483 1.70562 214.481 1.7328 214.495C1.74744 218.592 1.71568 222.648 1.71077 226.758C1.71057 226.931 1.75912 226.632 1.75899 226.967C1.75827 228.909 1.77172 230.794 1.72347 232.78C1.71875 232.977 1.63334 232.876 1.64626 233.456C1.64861 233.559 1.66 234.433 1.67854 234.659C1.68134 234.69 1.7212 234.53 1.72237 234.812C1.72842 236.45 1.71932 238.166 1.69496 239.801C1.69095 240.065 1.6485 239.784 1.64528 239.972C1.62274 241.305 1.65502 242.755 1.61647 244.028C1.59052 244.881 1.51714 244.565 1.4449 245.018C1.43471 245.083 1.4331 245.611 1.39107 245.638C1.28539 245.708 1.16967 245.452 1.05702 245.557C1.03276 245.579 1.05889 246.286 1.00026 245.868C0.996338 245.839 0.976879 245.326 0.956989 245.2C0.943237 245.112 0.900496 245.27 0.882892 245.091C0.865305 244.911 0.901133 244.714 0.880451 244.417C0.859512 244.12 0.810889 244.25 0.805134 243.657ZM1.4806 81.0638C1.43977 81.5331 1.58932 81.6024 1.55354 81.0948C1.55163 81.0702 1.4826 81.0396 1.4806 81.0638ZM1.45698 24.2792C1.39102 24.8928 1.48801 25.3127 1.53895 24.8798C1.58983 24.447 1.47697 24.0923 1.45698 24.2792ZM1.40882 17.9168C1.35681 18.6339 1.56888 18.7468 1.52601 17.9787C1.52359 17.9341 1.41184 17.8748 1.40882 17.9168ZM1.42433 242.917C1.42235 242.924 1.42041 243.303 1.42238 243.312C1.46988 243.515 1.47371 242.756 1.42433 242.917ZM1.35639 11.6031C1.32771 11.827 1.36082 12.4715 1.39649 12.1934C1.42519 11.9694 1.39208 11.3243 1.35639 11.6031ZM1.321 105.546C1.31877 105.554 1.31676 105.826 1.32936 105.82C1.36993 105.802 1.35848 105.423 1.321 105.546ZM1.35395 0.872284C1.34597 2.4577 1.17079 3.41901 1.19056 1.69246C1.19414 1.37981 1.24642 2.3663 1.26221 1.96835C1.29099 1.2402 1.181 0.756699 1.23994 0.0136414C1.25072 -0.12085 1.35479 0.781845 1.35419 0.875107C1.35411 0.874161 1.35403 0.87323 1.35395 0.872284ZM1.30097 81.3341C1.299 81.3435 1.29712 81.7201 1.29908 81.7292C1.34656 81.9331 1.35036 81.1744 1.30097 81.3341ZM1.22853 121.423C1.22431 121.444 1.22037 122.318 1.22426 122.347C1.30189 122.803 1.31009 121.035 1.22853 121.423ZM1.19154 55.9668C1.14378 55.5558 1.13815 55.0641 1.19813 54.7365C1.19495 55.1449 1.19448 55.5561 1.19154 55.9668Z" fill="white" fill-opacity="0.6"/>
</svg>
