<svg width="1" height="175" viewBox="0 0 1 175" fill="none" xmlns="http://www.w3.org/2000/svg">
<path d="M0.0050849 173.333C-0.00794148 172.352 0.00598686 171.067 0.0251044 170.09C0.0310336 169.784 0.0575377 169.939 0.062824 169.728C0.0731291 169.314 0.0601305 168.929 0.0724065 168.521C0.0766045 168.385 0.118587 168.554 0.122028 168.412C0.140582 167.634 0.129888 166.898 0.138813 166.11C0.182843 162.229 0.198602 158.413 0.217731 154.484C0.224002 153.189 0.262103 151.614 0.245441 150.276C0.243458 150.12 0.206608 150.213 0.203571 150.183C0.157075 149.717 0.231467 149.872 0.241351 149.568C0.280377 148.36 0.283771 147.016 0.269549 145.854C0.263391 145.359 0.190198 145.855 0.23128 145.357C0.234056 145.323 0.273188 145.448 0.277362 145.312C0.286749 145.005 0.279755 144.421 0.282855 144.183C0.289028 143.723 0.288635 143.647 0.289081 143.213C0.290031 142.619 0.309483 141.912 0.300616 141.275C0.298607 141.139 0.258493 141.319 0.251666 141.102C0.244851 140.885 0.248252 140.31 0.257709 140.117C0.26717 139.923 0.298699 140.005 0.305926 139.971C0.366925 139.689 0.282442 139.025 0.280353 138.939C0.244753 137.38 0.29288 136.043 0.292743 134.58C0.292536 133.469 0.276648 132.281 0.278827 131.224C0.281578 129.965 0.303315 128.897 0.299579 127.674C0.29923 127.545 0.252065 127.696 0.251544 127.538C0.246056 125.863 0.251197 124.199 0.283038 122.531C0.286273 122.363 0.327684 122.579 0.333392 122.412C0.367424 121.389 0.449179 119.769 0.268878 119.162C0.275918 118.468 0.283193 117.627 0.319537 117.007C0.342929 116.607 0.388042 116.995 0.368792 116.504C0.364503 116.393 0.324995 116.537 0.321551 116.371C0.307088 115.672 0.31993 114.907 0.299518 114.215C0.295273 114.075 0.259872 114.113 0.253497 114.073C0.201871 113.738 0.287213 113.18 0.293414 113.059C0.339658 112.132 0.32146 111.456 0.322589 110.593C0.322871 110.393 0.27532 110.63 0.273883 110.437C0.267068 109.438 0.271155 108.403 0.292254 107.424C0.297062 107.207 0.337567 107.407 0.341937 107.303C0.360712 106.844 0.284209 106.743 0.300738 106.303C0.304125 106.21 0.3388 106.262 0.342608 106.245C0.402389 105.981 0.317684 105.751 0.315814 105.683C0.290261 104.821 0.378689 104.271 0.366168 103.439C0.36458 103.339 0.320706 103.564 0.318927 103.284C0.306815 101.42 0.318867 99.4486 0.353961 97.6036C0.359358 97.3167 0.392317 97.5215 0.39638 97.5035C0.459864 97.2092 0.374803 97.0189 0.3716 96.9253C0.348541 96.1874 0.419874 95.4981 0.31856 94.9967C0.35372 91.8716 0.296827 88.7607 0.387591 85.6614C0.388642 85.622 0.430535 85.6926 0.432452 85.614C0.455974 84.6673 0.390865 84.8491 0.311236 84.2227C0.291241 84.065 0.38738 83.585 0.394427 83.5425C0.420396 83.3878 0.48272 83.5482 0.487749 83.4964C0.527241 83.0677 0.321129 83.1375 0.321063 82.5592C0.321407 82.5411 0.359344 82.617 0.363116 82.5685C0.374958 82.4177 0.359883 82.2681 0.372943 82.1206C0.403161 81.7828 0.503313 81.6625 0.445025 81.1466C0.43746 81.0813 0.320545 81.181 0.326068 80.6646C0.328369 80.4587 0.326365 79.5474 0.333941 79.2921C0.341509 79.037 0.379185 79.2121 0.380816 79.1939C0.430636 78.5066 0.451284 78.7672 0.525042 78.4229C0.598522 78.0786 0.423265 78.1741 0.403704 78.0337C0.384199 77.8931 0.425303 77.3891 0.439593 77.2653C0.453888 77.1415 0.477829 77.2959 0.485918 77.1859C0.538773 76.4561 0.398928 76.8656 0.371112 76.6251C0.305249 76.0582 0.435219 75.6167 0.447955 75.0977C0.451394 74.9573 0.421792 75.0718 0.419024 74.9468C0.408452 74.4516 0.449006 74.1537 0.411822 73.5903C0.405762 73.4981 0.327621 73.0427 0.384967 72.7478C0.393236 72.7061 0.425624 72.8247 0.432879 72.6136C0.443767 72.2984 0.450846 71.7303 0.44002 71.3913C0.43201 71.1411 0.378642 71.4279 0.39522 71.1129C0.402623 70.973 0.433844 71.2324 0.445147 70.9694C0.456447 70.7078 0.455075 70.039 0.453997 69.7845C0.452895 69.5304 0.412413 69.6695 0.409686 69.6489C0.394063 69.5247 0.374542 69.0371 0.374591 68.9941C0.369649 66.8208 0.437886 64.8168 0.415301 62.7008C0.413587 62.5348 0.370898 62.6454 0.370196 62.6201C0.35231 62.0516 0.465811 62.4998 0.503802 62.1027C0.417173 62.1601 0.432858 61.9257 0.423358 61.5253C0.418709 61.3323 0.385165 61.4374 0.381732 61.4198C0.330783 61.1336 0.39659 60.9343 0.410052 60.883C0.459572 60.6935 0.401061 60.4873 0.434161 60.3583C0.467013 60.2295 0.515717 60.5261 0.515093 60.142C0.484083 60.0344 0.403044 60.3195 0.38991 60.0279C0.340231 58.9278 0.403813 56.8743 0.410418 55.9897C0.417017 55.107 0.411296 54.8218 0.422503 54.3075C0.442767 53.3783 0.382641 53.7188 0.35512 53.1419C0.327603 52.5632 0.475539 52.8445 0.507342 52.7614C0.53913 52.6797 0.506407 52.5905 0.523882 52.489C0.541353 52.3878 0.562976 52.6069 0.569536 52.3688C0.57609 52.1306 0.519537 51.4793 0.486285 51.3948C0.415836 51.2163 0.341897 51.5098 0.367877 50.8795C0.369419 50.8432 0.408318 50.9609 0.412249 50.822C0.442195 49.7195 0.444052 48.574 0.470538 47.4728C0.47424 47.3214 0.517514 47.4568 0.520159 47.3687C0.547838 46.4508 0.474872 46.7789 0.393817 46.2759C0.501684 46.3888 0.567679 46.1107 0.568316 45.414C0.568736 44.9953 0.521625 45.0674 0.488421 44.7965C0.478411 44.7153 0.51076 44.4189 0.488604 44.3653C0.41618 44.1882 0.335106 44.4673 0.367388 43.7491C0.368923 43.7176 0.408567 43.8179 0.410967 43.7091C0.426682 43.0053 0.350928 42.921 0.341754 42.1603C0.334555 41.564 0.380749 40.5034 0.388262 39.8244C0.509537 39.8387 0.481767 39.1974 0.39815 38.9372C0.401573 38.4966 0.396846 38.0206 0.408404 37.5947C0.412344 37.4482 0.447457 37.5445 0.45125 37.526C0.510765 37.2425 0.429415 37.051 0.426226 36.9559C0.395224 35.925 0.456881 35.0852 0.396624 34.1013C0.394454 34.0664 0.310213 34.0098 0.371722 33.7469C0.375962 33.7299 0.41429 34.0547 0.417254 33.592C0.420225 33.1291 0.465384 32.2566 0.426348 31.6139C0.416951 31.4585 0.348564 31.0651 0.401995 30.7495C0.409251 30.7074 0.433411 30.7534 0.446856 30.6927C0.489695 30.4965 0.404549 30.3893 0.476885 30.1586C0.549219 29.928 0.603391 29.4482 0.553484 28.8001C0.552033 28.7795 0.484546 28.6261 0.485613 28.4223C0.487375 28.097 0.501434 27.6351 0.500994 27.2954C0.500759 27.1328 0.458853 27.2369 0.458086 27.2087C0.434604 26.115 0.471963 25.3367 0.488177 24.1652C0.491232 23.9504 0.434086 23.3332 0.479266 22.9175C0.528723 22.461 0.734456 22.9301 0.685442 21.8807C0.665837 21.4575 0.404826 20.9217 0.540056 20.1611C0.506547 18.686 0.575757 17.3217 0.52791 15.8425C0.525791 15.776 0.452945 15.5657 0.453936 15.4093C0.455549 15.1771 0.489596 15.0497 0.491839 14.8839C0.502094 14.1893 0.472965 13.5536 0.477496 12.8838C0.479142 12.6296 0.514346 12.7185 0.516314 12.4152C0.518249 12.1121 0.471891 11.91 0.49428 11.4993C0.511346 11.1891 0.606099 10.879 0.617144 10.4672C0.52368 10.4515 0.525605 10.1687 0.500933 9.66615C0.496146 9.56952 0.463616 9.67315 0.459673 9.62742C0.442907 9.44143 0.469868 9.26934 0.451617 9.0927C0.447233 9.04976 0.415315 9.04772 0.40993 9.01259C0.362924 8.71395 0.434721 8.22191 0.447222 8.1374C0.494698 7.81354 0.453185 7.66219 0.47188 7.41375C0.490574 7.16573 0.513942 7.5366 0.525286 7.24686C0.548749 6.64632 0.543594 5.87477 0.545061 5.26483C0.545449 5.02149 0.502843 5.18753 0.50191 5.15268C0.491103 4.64952 0.536424 4.14059 0.451556 3.8616C0.670994 3.5127 0.430271 3.55817 0.4742 2.83888C0.477753 2.78223 0.581523 2.71014 0.596758 2.92766C0.611978 3.14518 0.579541 3.47502 0.603289 3.77682C0.608862 3.8483 0.706101 4.2577 0.711992 4.31355C0.758027 4.75108 0.602956 4.81312 0.594439 4.83626C0.502523 5.09876 0.60728 5.59907 0.614519 5.7308C0.647687 6.33352 0.625878 6.84558 0.649553 7.34967C0.664854 7.67938 0.766432 7.71163 0.763322 7.97052C0.753046 8.83113 0.611344 9.13155 0.734209 9.94252C0.760413 10.1164 0.871434 9.9436 0.784135 10.5667C0.778632 10.6058 0.698769 11.0685 0.749284 11.3358C0.755653 11.3693 0.788009 11.3682 0.790727 11.4125C0.808308 11.7092 0.782532 11.9071 0.794877 12.2303C0.807223 12.5535 0.825627 12.9421 0.814653 13.3111C0.80809 13.5335 0.747808 13.8188 0.733049 13.9253C0.690533 14.2259 0.760241 14.5482 0.708757 14.7344C0.657014 14.9222 0.578433 14.555 0.545 15.0475C0.629062 15.0657 0.715343 15.1076 0.799882 15.1369C0.796922 16.2161 0.76974 17.2779 0.773454 18.3606C0.773999 18.4948 0.819191 18.3576 0.820939 18.5015C0.828119 19.1086 0.795903 19.6389 0.808732 20.2686C0.818836 20.7559 0.866685 21.2903 0.878739 21.8C0.782549 22.1113 0.815203 22.8675 0.806413 23.4168C0.803376 23.6093 0.777685 23.5964 0.769304 23.7333C0.738306 24.2496 0.823309 24.0076 0.836686 24.1492C0.893778 24.7564 0.701379 24.8084 0.706132 25.5244C0.706319 25.5623 0.808876 26.0259 0.815263 26.0898C0.856909 26.4956 0.779567 26.157 0.771989 26.4109C0.758142 26.8746 0.733649 27.1967 0.763688 27.7407C0.772586 27.8993 0.836509 28.2798 0.787065 28.5878C0.78059 28.6284 0.746692 28.606 0.744707 28.6386C0.711615 29.229 0.818129 29.2445 0.854203 29.5819C0.890269 29.9193 0.816741 30.4405 0.795549 30.5465C0.740727 30.824 0.77212 30.3339 0.76674 30.3189C0.702717 30.1423 0.71374 30.5225 0.70833 30.8129C0.603891 30.8549 0.61016 31.2611 0.703142 31.114C0.713298 31.0972 0.703558 30.8712 0.70833 30.8129C0.810799 31.0678 0.823922 31.5142 0.728166 32.0072C0.683287 32.2379 0.63096 32.0198 0.650102 32.7208C0.658744 33.039 0.730655 32.916 0.750261 33.1968C0.794993 33.8382 0.727912 34.6717 0.738481 35.333C0.742318 35.573 0.781682 35.3392 0.785661 35.5032C0.796343 35.9385 0.766808 36.3225 0.781938 36.7596C0.783359 36.7992 0.824565 36.7024 0.82509 36.8384C0.829875 37.869 0.803482 38.7664 0.802751 39.8425C0.802416 40.3624 0.825142 41.2919 0.820573 41.8305C0.812897 42.764 0.752977 43.9123 0.767534 44.7097C0.776851 45.2298 0.818066 45.1158 0.846147 45.3386C0.900579 45.7686 0.803078 46.5298 0.78798 46.6324C0.787481 46.6355 0.777765 46.1879 0.756608 46.4267C0.712525 46.5656 0.787789 46.6273 0.78798 46.6324C0.778227 46.6997 0.768871 47.5937 0.77675 47.7712C0.781055 47.8677 0.820104 47.8137 0.821611 47.864C0.856555 49.0595 0.86648 50.2571 0.848222 51.4696C0.847433 51.4909 0.803755 51.4588 0.802446 51.509C0.783025 52.2109 0.836457 52.6604 0.86818 53.2393C0.899889 53.8182 0.889269 54.2772 0.814286 54.6199C0.823727 55.0566 0.790578 55.6832 0.770463 56.0438C0.750349 56.4044 0.835372 56.4547 0.837052 56.4864C0.89085 57.476 0.842185 58.0479 0.834611 59.0746C0.830865 59.5627 0.843197 60.5308 0.852494 61.0593C0.859984 61.4769 0.840059 61.7285 0.8528 62.1134C0.854501 62.1655 0.892357 62.1129 0.893815 62.1287C0.939108 62.5582 0.846562 62.3518 0.830033 62.4405C0.769927 62.762 0.737915 62.9606 0.766191 63.5106C0.772666 63.6375 0.90592 64.007 0.913712 64.2383C0.9236 64.5389 0.875837 64.4255 0.887406 64.7403C0.888353 64.7672 0.917819 64.7616 0.91652 64.9559C0.910877 65.8578 0.893731 66.8412 0.896684 67.7784C0.896974 67.9065 0.943712 67.7423 0.944901 67.9273C0.950441 68.7952 0.948712 69.7466 0.926835 70.5922C0.921303 70.8004 0.888578 70.6699 0.878861 70.7151C0.820069 70.9925 0.905493 71.3858 0.907121 71.4507C0.948171 72.999 0.870864 74.1839 0.90767 75.7619C0.909831 75.8478 1.00141 76.509 0.922868 76.804C0.917642 76.8242 0.837289 77.1161 0.892228 77.3741C0.895665 77.3902 0.937033 77.2083 0.932816 77.5256C0.928609 77.843 0.956234 78.3538 0.910783 78.79C0.896465 78.9281 0.816309 79.2546 0.880204 79.6666C0.884665 79.6934 1.02914 80.3294 0.929459 80.5564C0.913051 80.5932 0.807566 80.5547 0.86165 81.0464C0.872135 81.1404 0.895663 80.9698 0.910355 81.2173C0.932999 81.5965 0.904747 82.099 0.951737 82.5652C0.960056 82.6465 1.03165 82.9925 0.977311 83.2701C0.9688 83.3136 0.933584 83.231 0.929643 83.3776C0.910738 84.0747 0.934294 84.8047 0.909928 85.5125C0.901367 85.7632 0.844435 85.635 0.829179 85.8964C0.813928 86.1577 0.799257 86.6843 0.825273 86.9578C0.8513 87.2313 0.942035 86.9325 0.949296 87.3423C0.98083 89.1238 0.927602 90.8886 0.919816 92.6676C0.918653 92.9314 0.951121 92.7127 0.951737 93.1015C0.954153 94.535 0.984595 97.0099 0.915604 98.2538C0.860347 99.2504 0.818279 97.9962 0.795793 98.7578C0.785066 99.1253 0.890555 99.5229 0.893876 99.6117C0.927611 100.478 0.880882 101.081 0.895219 101.861C0.898194 102.022 0.940949 101.864 0.943009 102.001C0.950424 102.469 0.93134 102.961 0.93483 103.409C0.936495 103.61 0.96915 103.573 0.96663 103.757C0.960975 104.199 0.947249 104.59 0.916642 105.021C0.913853 105.06 0.873231 104.795 0.87172 105.122C0.869391 105.652 0.839197 106.309 0.870378 106.918C0.879757 107.098 0.95439 107.105 0.902848 107.494C0.892083 107.575 0.802466 107.471 0.879899 107.924C0.892767 108 0.99721 108.76 0.929887 109.133C0.912168 109.231 0.838833 109.482 0.850358 109.699C0.852197 109.729 0.892285 109.611 0.896195 109.791C0.909279 110.425 0.905002 111.09 0.917558 111.742C0.92099 111.916 0.962473 111.657 0.966263 111.916C0.976749 112.63 0.966186 113.521 0.953202 114.218C0.948336 114.475 0.913973 114.298 0.910233 114.316C0.849408 114.617 0.931508 114.795 0.936295 114.895C0.96496 115.516 0.926395 115.989 0.936601 116.562C0.939313 116.72 0.978459 116.608 0.981949 116.639C1.01605 116.966 0.945754 116.723 0.938004 116.929C0.916062 117.508 0.919208 118.153 0.92421 118.738C0.926105 118.953 0.971496 118.711 0.972672 118.904C0.980494 120.045 0.97615 121.232 0.951127 122.346C0.946333 122.556 0.911381 122.424 0.903397 122.467C0.847545 122.769 0.923728 123.21 0.930985 123.312C0.964121 123.774 0.933212 123.953 0.938981 124.361C0.967705 126.354 0.947234 128.815 0.934586 130.697C0.918309 133.148 0.885059 135.05 0.893693 137.388C0.894198 137.537 0.940695 137.387 0.941727 137.515C0.952936 139.169 0.934767 140.797 0.948197 142.454C0.949217 142.59 0.993296 142.394 0.996415 142.612C1.00312 143.06 1.00072 143.627 0.986649 144.079C0.979868 144.3 0.942043 144.004 0.93599 144.226C0.921809 144.744 0.91867 145.298 0.925736 145.83C0.92884 146.056 0.973922 145.715 0.974442 146.009C0.978915 148.011 0.986679 149.978 0.9283 152.001C0.92429 152.14 0.832665 152.262 0.850236 152.557C0.875664 152.579 0.905576 152.578 0.932755 152.588C0.947396 155.503 0.915633 158.388 0.910722 161.311C0.910525 161.435 0.959073 161.222 0.958939 161.46C0.958222 162.841 0.971671 164.183 0.923417 165.595C0.918698 165.735 0.833291 165.664 0.846208 166.077C0.848565 166.149 0.859955 166.772 0.878495 166.932C0.881292 166.954 0.921156 166.841 0.922318 167.041C0.928372 168.206 0.919271 169.427 0.894914 170.59C0.890906 170.778 0.848454 170.578 0.845231 170.712C0.822696 171.66 0.854967 172.691 0.816423 173.597C0.79047 174.204 0.717087 173.979 0.644853 174.302C0.634662 174.347 0.633047 174.723 0.591021 174.742C0.48534 174.792 0.369621 174.61 0.256976 174.685C0.232713 174.701 0.258846 175.204 0.200214 174.906C0.19629 174.885 0.17683 174.52 0.15694 174.431C0.143188 174.368 0.100447 174.481 0.0828434 174.353C0.0652564 174.226 0.101084 174.085 0.080402 173.874C0.0594636 173.662 0.0108407 173.755 0.0050849 173.333ZM0.680559 57.6673C0.639728 58.0012 0.789275 58.0505 0.753496 57.6894C0.751589 57.6719 0.682562 57.6501 0.680559 57.6673ZM0.656938 17.2718C0.590977 17.7083 0.687966 18.007 0.738908 17.6991C0.789796 17.3912 0.676934 17.1388 0.656938 17.2718ZM0.608782 12.7457C0.556775 13.2558 0.768839 13.3361 0.725969 12.7897C0.723546 12.7579 0.611802 12.7158 0.608782 12.7457ZM0.624285 172.807C0.622299 172.812 0.620363 173.082 0.622331 173.088C0.669827 173.232 0.673665 172.692 0.624285 172.807ZM0.556353 8.25423C0.527666 8.41351 0.560781 8.87202 0.596453 8.67413C0.625149 8.51484 0.592037 8.05592 0.556353 8.25423ZM0.520952 75.0837C0.518724 75.0889 0.516717 75.2825 0.529314 75.2786C0.569886 75.2654 0.558436 74.9961 0.520952 75.0837ZM0.553911 0.620529C0.545929 1.7484 0.370754 2.4322 0.390521 1.204C0.394097 0.981553 0.446383 1.68337 0.462176 1.40025C0.490948 0.882254 0.38096 0.538306 0.439898 0.00970066C0.450686 -0.0860032 0.554756 0.556201 0.554155 0.622532C0.554074 0.621892 0.553993 0.621187 0.553911 0.620529ZM0.500933 57.8596C0.498955 57.8663 0.49708 58.1342 0.499041 58.1407C0.546518 58.2858 0.550323 57.746 0.500933 57.8596ZM0.428484 86.3783C0.424271 86.3931 0.420329 87.015 0.424212 87.0352C0.50185 87.3596 0.510048 86.1025 0.428484 86.3783ZM0.391497 39.8138C0.343735 39.5214 0.338112 39.1717 0.398089 38.9386C0.394905 39.2291 0.394436 39.5216 0.391497 39.8138Z" fill="white" fill-opacity="0.6"/>
</svg>
