<svg width="2" height="341" viewBox="0 0 2 341" fill="none" xmlns="http://www.w3.org/2000/svg">
<path d="M0.405109 337.752C0.392083 335.841 0.406011 333.336 0.425128 331.433C0.431058 330.836 0.457562 331.138 0.462848 330.726C0.473153 329.921 0.460154 329.17 0.47243 328.374C0.476628 328.111 0.518611 328.439 0.522052 328.162C0.540605 326.647 0.529912 325.213 0.538836 323.677C0.582866 316.114 0.598625 308.679 0.617753 301.023C0.624024 298.499 0.662125 295.43 0.645463 292.823C0.64348 292.519 0.60663 292.7 0.603593 292.642C0.557097 291.734 0.63149 292.036 0.641373 291.443C0.680399 289.089 0.683793 286.472 0.669571 284.207C0.663413 283.243 0.590219 284.209 0.631302 283.239C0.634078 283.171 0.67321 283.416 0.677384 283.152C0.686771 282.552 0.679776 281.415 0.682877 280.951C0.68905 280.055 0.688656 279.907 0.689102 279.061C0.690052 277.903 0.709505 276.526 0.700638 275.284C0.698629 275.019 0.658514 275.37 0.651688 274.947C0.644872 274.524 0.648274 273.405 0.65773 273.027C0.667191 272.65 0.698721 272.811 0.705948 272.744C0.766946 272.194 0.682463 270.899 0.680374 270.733C0.644774 267.695 0.692901 265.09 0.692764 262.238C0.692557 260.074 0.676669 257.759 0.678847 255.699C0.681598 253.245 0.703336 251.165 0.699599 248.781C0.699251 248.53 0.652085 248.825 0.651564 248.517C0.646076 245.253 0.651217 242.011 0.683058 238.76C0.686293 238.434 0.727704 238.854 0.733412 238.528C0.767444 236.534 0.849198 233.379 0.668898 232.195C0.675938 230.844 0.683212 229.204 0.719557 227.996C0.742948 227.217 0.788062 227.973 0.768812 227.016C0.764523 226.8 0.725015 227.081 0.721571 226.757C0.707107 225.394 0.71995 223.905 0.699537 222.557C0.695292 222.283 0.659891 222.358 0.653516 222.28C0.60189 221.627 0.687232 220.54 0.693433 220.303C0.739677 218.498 0.721479 217.18 0.722608 215.499C0.72289 215.109 0.675339 215.57 0.673902 215.194C0.667087 213.247 0.671174 211.23 0.692273 209.324C0.697081 208.9 0.737586 209.29 0.741956 209.087C0.760731 208.194 0.684227 207.995 0.700757 207.138C0.704143 206.958 0.738819 207.06 0.742627 207.027C0.802407 206.511 0.717702 206.063 0.715832 205.93C0.69028 204.252 0.778707 203.179 0.766186 201.558C0.764599 201.364 0.720724 201.801 0.718945 201.256C0.706833 197.624 0.718885 193.783 0.753979 190.188C0.759376 189.629 0.792335 190.028 0.796398 189.992C0.859882 189.419 0.774821 189.048 0.771618 188.866C0.748558 187.428 0.819892 186.085 0.718578 185.108C0.753737 179.018 0.696844 172.957 0.787608 166.917C0.788659 166.841 0.830552 166.978 0.832469 166.825C0.855991 164.98 0.790882 165.335 0.711253 164.114C0.691258 163.807 0.787397 162.871 0.794444 162.788C0.820412 162.487 0.882737 162.8 0.887766 162.699C0.927258 161.863 0.721146 161.999 0.721079 160.872C0.721423 160.837 0.759361 160.985 0.763133 160.891C0.774975 160.597 0.7599 160.305 0.772959 160.018C0.803177 159.36 0.903329 159.125 0.845041 158.12C0.837476 157.993 0.720561 158.187 0.726084 157.181C0.728385 156.78 0.726381 155.004 0.733958 154.506C0.741525 154.009 0.779201 154.35 0.780832 154.315C0.830652 152.976 0.8513 153.484 0.925058 152.813C0.998538 152.142 0.823282 152.328 0.80372 152.054C0.784215 151.78 0.825319 150.798 0.839609 150.557C0.853904 150.316 0.877845 150.617 0.885934 150.402C0.938789 148.98 0.798944 149.778 0.771128 149.309C0.705265 148.205 0.835235 147.345 0.84797 146.333C0.85141 146.06 0.821808 146.283 0.81904 146.039C0.808468 145.074 0.849022 144.494 0.811838 143.396C0.805778 143.216 0.727636 142.329 0.784982 141.754C0.793251 141.673 0.82564 141.904 0.832895 141.493C0.843783 140.879 0.850862 139.772 0.840036 139.111C0.832026 138.624 0.778657 139.182 0.795236 138.569C0.802639 138.296 0.833859 138.801 0.845163 138.289C0.856462 137.779 0.85509 136.476 0.854013 135.98C0.852911 135.485 0.812428 135.756 0.809701 135.716C0.794078 135.474 0.774558 134.524 0.774606 134.44C0.769664 130.205 0.837901 126.3 0.815316 122.177C0.813602 121.854 0.770912 122.069 0.770211 122.02C0.752325 120.912 0.865826 121.785 0.903816 121.012C0.817187 121.123 0.832873 120.667 0.823372 119.886C0.818724 119.51 0.78518 119.715 0.781746 119.681C0.730798 119.123 0.796605 118.735 0.810067 118.635C0.859587 118.266 0.801075 117.864 0.834175 117.613C0.867028 117.361 0.915732 117.939 0.915108 117.191C0.884097 116.981 0.803059 117.537 0.789925 116.969C0.740245 114.825 0.803828 110.824 0.810432 109.1C0.817031 107.38 0.81131 106.824 0.822517 105.822C0.842781 104.011 0.782656 104.675 0.755134 103.551C0.727617 102.423 0.875553 102.971 0.907356 102.809C0.939144 102.65 0.906421 102.476 0.923896 102.279C0.941367 102.081 0.96299 102.508 0.96955 102.044C0.976104 101.58 0.919551 100.311 0.886298 100.146C0.81585 99.7986 0.741911 100.371 0.767891 99.1423C0.769432 99.0717 0.808332 99.3009 0.812263 99.0304C0.842209 96.8819 0.844065 94.65 0.870551 92.5042C0.874254 92.2091 0.917528 92.473 0.920172 92.3013C0.947851 90.5127 0.874886 91.1521 0.79383 90.1718C0.901698 90.392 0.967692 89.8499 0.968329 88.4925C0.96875 87.6765 0.921638 87.817 0.888434 87.2892C0.878425 87.1309 0.910773 86.5535 0.888617 86.4489C0.816193 86.1039 0.735119 86.6477 0.767402 85.2482C0.768936 85.1869 0.80858 85.3824 0.810981 85.1702C0.826696 83.7988 0.750941 83.6347 0.741767 82.1523C0.734568 80.9904 0.780762 78.9239 0.788275 77.6008C0.90955 77.6286 0.88178 76.3789 0.798163 75.872C0.801586 75.0134 0.796859 74.0859 0.808417 73.256C0.812357 72.9704 0.847469 73.1581 0.851263 73.1221C0.910778 72.5698 0.829428 72.1965 0.826239 72.0112C0.795237 70.0025 0.856893 68.3659 0.796637 66.4489C0.794466 66.3809 0.710225 66.2706 0.771734 65.7581C0.775974 65.725 0.814302 66.3582 0.817266 65.4564C0.820237 64.5544 0.865396 62.8542 0.82636 61.6021C0.816963 61.2991 0.748576 60.5326 0.802007 59.9175C0.809263 59.8356 0.833424 59.9252 0.846868 59.8069C0.889708 59.4245 0.804561 59.2157 0.876897 58.7663C0.949231 58.3168 1.0034 57.3819 0.953496 56.1191C0.952045 56.0789 0.884558 55.78 0.885625 55.3829C0.887386 54.7489 0.901445 53.849 0.901006 53.1871C0.900771 52.8702 0.858865 53.073 0.858098 53.018C0.834615 50.8871 0.871974 49.3704 0.888188 47.0876C0.891243 46.6691 0.834098 45.4665 0.879277 44.6563C0.928734 43.7668 1.13447 44.6809 1.08545 42.6362C1.06585 41.8114 0.804838 40.7674 0.940068 39.2853C0.906558 36.4109 0.975768 33.7527 0.927921 30.8703C0.925801 30.7407 0.852955 30.3308 0.853947 30.0261C0.85556 29.5737 0.889607 29.3253 0.89185 29.0023C0.902105 27.6488 0.872975 26.4102 0.877506 25.1051C0.879152 24.6097 0.914357 24.7829 0.916324 24.1919C0.918259 23.6013 0.871902 23.2075 0.894291 22.4072C0.911356 21.8027 1.00611 21.1985 1.01715 20.3961C0.92369 20.3656 0.925615 19.8145 0.900943 18.8352C0.896156 18.647 0.863626 18.8488 0.859684 18.7597C0.842917 18.3973 0.869878 18.0619 0.851627 17.7178C0.847244 17.634 0.815325 17.6302 0.80994 17.5617C0.762934 16.9798 0.834731 16.021 0.847232 15.8563C0.894708 15.2252 0.853195 14.9303 0.87189 14.4462C0.890584 13.963 0.913952 14.6855 0.925296 14.121C0.948759 12.9509 0.943604 11.4474 0.945071 10.2589C0.945459 9.78476 0.902853 10.1082 0.901919 10.0404C0.891113 9.05988 0.936434 8.06824 0.851566 7.5246C1.071 6.84476 0.830281 6.93329 0.874209 5.53177C0.877762 5.42133 0.981533 5.28091 0.996768 5.70477C1.01199 6.12863 0.979551 6.77136 1.0033 7.35941C1.00887 7.49863 1.10611 8.29648 1.112 8.40524C1.15804 9.2579 1.00297 9.37863 0.994448 9.4238C0.902533 9.93536 1.00729 10.9102 1.01453 11.1669C1.0477 12.3413 1.02589 13.3391 1.04956 14.3214C1.06486 14.9638 1.16644 15.0266 1.16333 15.5311C1.15306 17.208 1.01135 17.7935 1.13422 19.3737C1.16042 19.7126 1.27144 19.3758 1.18415 20.59C1.17864 20.6663 1.09878 21.5677 1.14929 22.0885C1.15566 22.1539 1.18802 22.1519 1.19074 22.2381C1.20832 22.8162 1.18254 23.2018 1.19489 23.8316C1.20723 24.4613 1.22564 25.2186 1.21466 25.9376C1.2081 26.371 1.14782 26.9269 1.13306 27.1344C1.09054 27.7201 1.16025 28.3481 1.10877 28.711C1.05702 29.0768 0.978444 28.3615 0.945011 29.321C1.02907 29.3565 1.11535 29.4382 1.19989 29.4954C1.19693 31.5981 1.16975 33.6672 1.17347 35.777C1.17401 36.0385 1.2192 35.7711 1.22095 36.0515C1.22813 37.2345 1.19591 38.2679 1.20874 39.4947C1.21885 40.4444 1.2667 41.4857 1.27875 42.4788C1.18256 43.0854 1.21521 44.5589 1.20642 45.6294C1.20339 46.0043 1.1777 45.9793 1.16932 46.2459C1.13832 47.252 1.22332 46.7806 1.2367 47.0564C1.29379 48.2397 1.10139 48.3409 1.10614 49.736C1.10633 49.81 1.20889 50.7134 1.21527 50.8378C1.25692 51.6284 1.17958 50.9687 1.172 51.4635C1.15815 52.3669 1.13366 52.9947 1.1637 54.0547C1.1726 54.3638 1.23652 55.1053 1.18708 55.7055C1.1806 55.7844 1.1467 55.7408 1.14472 55.8043C1.11163 56.9547 1.21814 56.985 1.25422 57.6424C1.29028 58.2999 1.21675 59.3154 1.19556 59.5221C1.14074 60.0627 1.17213 59.1078 1.16675 59.0785C1.10273 58.7345 1.11375 59.4752 1.10834 60.0411C1.0039 60.123 1.01017 60.9144 1.10315 60.6277C1.11331 60.5951 1.10357 60.1547 1.10834 60.0411C1.21081 60.5379 1.22393 61.4076 1.12818 62.3682C1.0833 62.8179 1.03097 62.3928 1.05011 63.7588C1.05876 64.3787 1.13067 64.1392 1.15027 64.6863C1.19501 65.9361 1.12792 67.5603 1.13849 68.8489C1.14233 69.3165 1.18169 68.861 1.18567 69.1806C1.19636 70.0288 1.16682 70.7769 1.18195 71.6287C1.18337 71.706 1.22458 71.5173 1.2251 71.7822C1.22989 73.7905 1.2035 75.5391 1.20276 77.6359C1.20243 78.649 1.22516 80.4602 1.22059 81.5097C1.21291 83.3286 1.15299 85.5663 1.16755 87.1201C1.17686 88.1336 1.21808 87.9112 1.24616 88.3455C1.30059 89.1835 1.20309 90.6667 1.18799 90.8665C1.18749 90.8726 1.17778 90.0005 1.15662 90.4658C1.11254 90.7364 1.1878 90.8566 1.18799 90.8665C1.17824 90.9976 1.16888 92.7398 1.17676 93.0857C1.18107 93.2737 1.22012 93.1685 1.22162 93.2665C1.25657 95.596 1.26649 97.9295 1.24824 100.292C1.24745 100.334 1.20377 100.271 1.20246 100.369C1.18304 101.737 1.23647 102.613 1.26819 103.741C1.2999 104.869 1.28928 105.763 1.2143 106.431C1.22374 107.282 1.19059 108.503 1.17048 109.205C1.15036 109.908 1.23539 110.006 1.23707 110.068C1.29086 111.996 1.2422 113.111 1.23463 115.111C1.23088 116.062 1.24321 117.949 1.25251 118.978C1.26 119.792 1.24007 120.282 1.25281 121.032C1.25452 121.134 1.29237 121.031 1.29383 121.062C1.33912 121.899 1.24658 121.497 1.23005 121.67C1.16994 122.296 1.13793 122.683 1.16621 123.755C1.17268 124.002 1.30593 124.722 1.31373 125.173C1.32361 125.759 1.27585 125.538 1.28742 126.151C1.28837 126.204 1.31783 126.193 1.31654 126.571C1.31089 128.329 1.29375 130.245 1.2967 132.071C1.29699 132.321 1.34373 132.001 1.34492 132.361C1.35046 134.053 1.34873 135.906 1.32685 137.554C1.32132 137.96 1.28859 137.705 1.27888 137.793C1.22008 138.334 1.30551 139.1 1.30714 139.227C1.34819 142.244 1.27088 144.553 1.30769 147.628C1.30985 147.795 1.40142 149.083 1.32288 149.658C1.31766 149.697 1.2373 150.266 1.29224 150.769C1.29568 150.8 1.33705 150.446 1.33283 151.064C1.32863 151.683 1.35625 152.678 1.3108 153.528C1.29648 153.797 1.21633 154.433 1.28022 155.236C1.28468 155.288 1.42916 156.528 1.32948 156.97C1.31307 157.042 1.20758 156.967 1.26167 157.925C1.27215 158.108 1.29568 157.775 1.31037 158.258C1.33302 158.997 1.30476 159.976 1.35175 160.884C1.36007 161.042 1.43167 161.717 1.37733 162.258C1.36882 162.342 1.3336 162.182 1.32966 162.467C1.31075 163.826 1.33431 165.248 1.30995 166.627C1.30138 167.116 1.24445 166.866 1.2292 167.375C1.21394 167.885 1.19927 168.911 1.22529 169.443C1.25132 169.977 1.34205 169.394 1.34931 170.193C1.38085 173.664 1.32762 177.103 1.31983 180.569C1.31867 181.083 1.35114 180.657 1.35175 181.415C1.35417 184.208 1.38461 189.031 1.31562 191.455C1.26037 193.397 1.2183 190.953 1.19581 192.437C1.18508 193.153 1.29057 193.928 1.29389 194.1C1.32763 195.789 1.2809 196.963 1.29524 198.483C1.29821 198.797 1.34097 198.489 1.34303 198.756C1.35044 199.668 1.33136 200.628 1.33485 201.499C1.33651 201.891 1.36917 201.819 1.36665 202.178C1.36099 203.04 1.34727 203.801 1.31666 204.641C1.31387 204.717 1.27325 204.201 1.27174 204.839C1.26941 205.87 1.23922 207.15 1.2704 208.337C1.27978 208.689 1.35441 208.702 1.30287 209.459C1.2921 209.618 1.20248 209.415 1.27992 210.297C1.29279 210.445 1.39723 211.926 1.32991 212.653C1.31219 212.844 1.23885 213.334 1.25038 213.757C1.25222 213.814 1.2923 213.584 1.29621 213.935C1.3093 215.172 1.30502 216.467 1.31758 217.738C1.32101 218.077 1.36249 217.571 1.36628 218.077C1.37677 219.467 1.36621 221.203 1.35322 222.562C1.34836 223.063 1.31399 222.717 1.31025 222.753C1.24943 223.34 1.33153 223.687 1.33631 223.881C1.36498 225.092 1.32641 226.014 1.33662 227.129C1.33933 227.437 1.37848 227.219 1.38197 227.28C1.41607 227.916 1.34577 227.442 1.33802 227.845C1.31608 228.972 1.31923 230.229 1.32423 231.369C1.32612 231.787 1.37152 231.317 1.37269 231.693C1.38051 233.917 1.37617 236.229 1.35115 238.4C1.34635 238.808 1.3114 238.551 1.30342 238.636C1.24757 239.224 1.32375 240.084 1.33101 240.282C1.36414 241.182 1.33323 241.532 1.339 242.327C1.36773 246.21 1.34725 251.006 1.33461 254.672C1.31833 259.449 1.28508 263.155 1.29371 267.711C1.29422 268 1.34072 267.708 1.34175 267.958C1.35296 271.18 1.33479 274.353 1.34822 277.581C1.34924 277.846 1.39332 277.465 1.39644 277.89C1.40314 278.762 1.40075 279.867 1.38667 280.749C1.37989 281.179 1.34207 280.602 1.33601 281.035C1.32183 282.043 1.31869 283.124 1.32576 284.16C1.32886 284.6 1.37394 283.935 1.37446 284.508C1.37894 288.41 1.3867 292.243 1.32832 296.186C1.32431 296.456 1.23269 296.693 1.25026 297.268C1.27569 297.311 1.3056 297.309 1.33278 297.328C1.34742 303.008 1.31566 308.631 1.31074 314.327C1.31055 314.567 1.3591 314.152 1.35896 314.617C1.35824 317.308 1.37169 319.921 1.32344 322.674C1.31872 322.947 1.23331 322.807 1.24623 323.612C1.24859 323.754 1.25998 324.966 1.27852 325.28C1.28132 325.322 1.32118 325.101 1.32234 325.492C1.3284 327.762 1.31929 330.141 1.29494 332.407C1.29093 332.773 1.24848 332.383 1.24526 332.644C1.22272 334.491 1.25499 336.501 1.21645 338.267C1.19049 339.449 1.11711 339.011 1.04488 339.639C1.03469 339.728 1.03307 340.46 0.991045 340.498C0.885365 340.595 0.769645 340.241 0.657001 340.386C0.632738 340.417 0.65887 341.397 0.600238 340.817C0.596314 340.776 0.576854 340.066 0.556964 339.89C0.543213 339.769 0.500471 339.988 0.482868 339.74C0.465281 339.491 0.501109 339.218 0.480426 338.806C0.459488 338.394 0.410865 338.575 0.405109 337.752ZM1.08057 112.369C1.03974 113.02 1.18929 113.116 1.15351 112.412C1.1516 112.378 1.08258 112.335 1.08057 112.369ZM1.05695 33.6554C0.990988 34.5059 1.08798 35.0879 1.13892 34.4879C1.18981 33.8879 1.07694 33.3962 1.05695 33.6554ZM1.00879 24.8358C0.956785 25.8298 1.16885 25.9864 1.12598 24.9217C1.12356 24.8598 1.01181 24.7777 1.00879 24.8358ZM1.02431 336.727C1.02232 336.736 1.02039 337.262 1.02236 337.275C1.06985 337.555 1.07369 336.503 1.02431 336.727ZM0.956363 16.084C0.927677 16.3943 0.960792 17.2877 0.996463 16.9022C1.02516 16.5918 0.992047 15.6975 0.956363 16.084ZM0.920968 146.306C0.91874 146.316 0.916733 146.693 0.92933 146.686C0.969902 146.66 0.958452 146.135 0.920968 146.306ZM0.953921 1.20914C0.945939 3.40683 0.770764 4.73932 0.79053 2.34607C0.794107 1.91266 0.846392 3.28012 0.862185 2.72849C0.890958 1.71915 0.780969 1.04889 0.839907 0.0188904C0.850695 -0.167572 0.954765 1.0838 0.954165 1.21304C0.954084 1.21176 0.954002 1.21045 0.953921 1.20914ZM0.900947 112.744C0.89897 112.757 0.897095 113.279 0.899055 113.291C0.946532 113.574 0.950337 112.522 0.900947 112.744ZM0.828501 168.314C0.824287 168.343 0.820346 169.555 0.824229 169.594C0.901867 170.226 0.910064 167.777 0.828501 168.314ZM0.79151 77.58C0.743748 77.0103 0.738124 76.3287 0.798102 75.8746C0.794918 76.4408 0.794449 77.0107 0.79151 77.58Z" fill="white" fill-opacity="0.6"/>
</svg>
