<svg width="1164" height="1" viewBox="0 0 1164 1" fill="none" xmlns="http://www.w3.org/2000/svg">
<path d="M11.0872 0.0050849C17.6099 -0.00794148 26.1601 0.00598686 32.6582 0.0251044C34.6947 0.0310336 33.6635 0.0575377 35.0693 0.062824C37.8188 0.0731291 40.3803 0.0601305 43.0974 0.0724065C43.9979 0.0766045 42.877 0.118587 43.8212 0.122028C48.9952 0.140582 53.89 0.129888 59.1314 0.138813C84.9486 0.182843 110.326 0.198602 136.459 0.217731C145.076 0.224002 155.551 0.262103 164.451 0.245441C165.49 0.243458 164.871 0.206608 165.068 0.203571C168.169 0.157075 167.138 0.231467 169.162 0.241351C177.197 0.280377 186.132 0.283771 193.864 0.269549C197.154 0.263391 193.855 0.190198 197.168 0.23128C197.398 0.234056 196.563 0.273188 197.465 0.277362C199.511 0.286749 203.392 0.279755 204.978 0.282855C208.034 0.289028 208.539 0.288635 211.43 0.289081C215.381 0.290031 220.081 0.309483 224.32 0.300616C225.225 0.298607 224.027 0.258493 225.47 0.251666C226.915 0.244851 230.736 0.248252 232.024 0.257709C233.313 0.26717 232.764 0.298699 232.992 0.305926C234.868 0.366925 239.288 0.282442 239.857 0.280353C250.226 0.244753 259.118 0.29288 268.852 0.292743C276.241 0.292536 284.142 0.276648 291.173 0.278827C299.55 0.281578 306.649 0.303315 314.787 0.299579C315.646 0.29923 314.639 0.252065 315.688 0.251544C326.833 0.246056 337.899 0.251197 348.995 0.283038C350.108 0.286273 348.674 0.327684 349.786 0.333392C356.592 0.367424 367.363 0.449179 371.406 0.268878C376.016 0.275918 381.614 0.283193 385.739 0.319537C388.399 0.342929 385.815 0.388042 389.082 0.368792C389.819 0.364503 388.861 0.324995 389.966 0.321551C394.618 0.307088 399.701 0.31993 404.304 0.299518C405.24 0.295273 404.984 0.259872 405.25 0.253497C407.479 0.201871 411.19 0.287213 411.999 0.293414C418.159 0.339658 422.658 0.32146 428.397 0.322589C429.729 0.322871 428.155 0.27532 429.436 0.273883C436.082 0.267068 442.967 0.271155 449.475 0.292254C450.923 0.297062 449.592 0.337567 450.283 0.341937C453.333 0.360712 454.01 0.284209 456.935 0.300738C457.552 0.304125 457.204 0.3388 457.317 0.342608C459.077 0.402389 460.607 0.317684 461.06 0.315814C466.788 0.290261 470.45 0.378689 475.984 0.366168C476.646 0.36458 475.153 0.320706 477.014 0.318927C489.412 0.306815 502.525 0.318867 514.797 0.353961C516.705 0.359358 515.343 0.392317 515.463 0.39638C517.42 0.459864 518.686 0.374803 519.308 0.3716C524.216 0.348541 528.801 0.419874 532.136 0.31856C552.923 0.35372 573.614 0.296827 594.23 0.387591C594.492 0.388642 594.022 0.430535 594.545 0.432452C600.841 0.455974 599.632 0.390865 603.798 0.311236C604.848 0.291241 608.041 0.38738 608.323 0.394427C609.352 0.420396 608.285 0.48272 608.629 0.487749C611.481 0.527241 611.017 0.321129 614.864 0.321063C614.984 0.321407 614.479 0.359344 614.802 0.363116C615.805 0.374958 616.799 0.359883 617.781 0.372943C620.028 0.403161 620.828 0.503313 624.259 0.445025C624.694 0.43746 624.03 0.320545 627.465 0.326068C628.835 0.328369 634.896 0.326365 636.595 0.333941C638.291 0.341509 637.126 0.379185 637.247 0.380816C641.819 0.430636 640.086 0.451284 642.376 0.525042C644.666 0.598522 644.031 0.423265 644.965 0.403704C645.9 0.384199 649.252 0.425303 650.075 0.439593C650.899 0.453888 649.872 0.477829 650.604 0.485918C655.458 0.538773 652.734 0.398928 654.334 0.371112C658.104 0.305249 661.041 0.435219 664.493 0.447955C665.427 0.451394 664.665 0.421792 665.497 0.419024C668.791 0.408452 670.772 0.449006 674.519 0.411822C675.132 0.405762 678.162 0.327621 680.123 0.384967C680.401 0.393236 679.612 0.425624 681.016 0.432879C683.113 0.443767 686.891 0.450846 689.146 0.44002C690.81 0.43201 688.902 0.378642 690.997 0.39522C691.928 0.402623 690.203 0.433844 691.952 0.445147C693.692 0.456447 698.141 0.455075 699.834 0.453997C701.523 0.452895 700.598 0.412413 700.735 0.409686C701.561 0.394063 704.804 0.374542 705.091 0.374591C719.546 0.369649 732.876 0.437886 746.95 0.415301C748.054 0.413587 747.318 0.370898 747.487 0.370196C751.268 0.35231 748.287 0.465811 750.928 0.503802C750.547 0.417173 752.106 0.432858 754.769 0.423358C756.053 0.418709 755.354 0.385165 755.471 0.381732C757.374 0.330783 758.699 0.39659 759.041 0.410052C760.301 0.459572 761.673 0.401061 762.531 0.434161C763.388 0.467013 761.415 0.515717 763.97 0.515093C764.686 0.484083 762.789 0.403044 764.729 0.38991C772.046 0.340231 785.705 0.403813 791.588 0.410418C797.46 0.417017 799.356 0.411296 802.778 0.422503C808.958 0.442767 806.693 0.382641 810.531 0.35512C814.379 0.327603 812.508 0.475539 813.062 0.507342C813.605 0.53913 814.198 0.506407 814.873 0.523882C815.547 0.541353 814.089 0.562976 815.673 0.569536C817.257 0.57609 821.589 0.519537 822.151 0.486285C823.338 0.415836 821.386 0.341897 825.579 0.367877C825.82 0.369419 825.037 0.408318 825.961 0.412249C833.295 0.442195 840.913 0.444052 848.238 0.470538C849.245 0.47424 848.344 0.517514 848.931 0.520159C855.036 0.547838 852.853 0.474872 856.199 0.393817C855.448 0.501684 857.298 0.567679 861.932 0.568316C864.717 0.568736 864.238 0.521625 866.039 0.488421C866.58 0.478411 868.55 0.51076 868.908 0.488604C870.085 0.41618 868.229 0.335106 873.006 0.367388C873.216 0.368923 872.548 0.408567 873.272 0.410967C877.954 0.426682 878.514 0.350928 883.574 0.341754C887.54 0.334555 894.594 0.380749 899.111 0.388262C899.016 0.509537 903.281 0.481767 905.012 0.39815C907.943 0.401573 911.108 0.396846 913.941 0.408404C914.916 0.412344 914.276 0.447457 914.399 0.45125C916.284 0.510765 917.558 0.429415 918.191 0.426226C925.047 0.395224 930.634 0.456881 937.177 0.396624C937.41 0.394454 937.786 0.310213 939.535 0.371722C939.648 0.375962 937.487 0.41429 940.565 0.417254C943.644 0.420225 949.448 0.465384 953.722 0.426348C954.756 0.416951 957.373 0.348564 959.472 0.401995C959.752 0.409251 959.446 0.433411 959.85 0.446856C961.155 0.489695 961.868 0.404549 963.402 0.476885C964.936 0.549219 968.128 0.603391 972.438 0.553484C972.575 0.552033 973.596 0.484546 974.951 0.485613C977.115 0.487375 980.187 0.501434 982.446 0.500994C983.528 0.500759 982.836 0.458853 983.024 0.458086C990.297 0.434604 995.475 0.471963 1003.27 0.488177C1004.7 0.491232 1008.8 0.434086 1011.57 0.479266C1014.6 0.528723 1011.48 0.734456 1018.46 0.685442C1021.28 0.665837 1024.84 0.404826 1029.9 0.540056C1039.71 0.506547 1048.79 0.575757 1058.62 0.52791C1059.07 0.525791 1060.47 0.452945 1061.51 0.453936C1063.05 0.455549 1063.9 0.489596 1065 0.491839C1069.62 0.502094 1073.85 0.472965 1078.3 0.477496C1080 0.479142 1079.4 0.514346 1081.42 0.516314C1083.44 0.518249 1084.78 0.471891 1087.51 0.49428C1089.58 0.511346 1091.64 0.606099 1094.38 0.617144C1094.48 0.52368 1096.36 0.525605 1099.71 0.500933C1100.35 0.496146 1099.66 0.463616 1099.96 0.459673C1101.2 0.442907 1102.35 0.469868 1103.52 0.451617C1103.81 0.447233 1103.82 0.415315 1104.05 0.40993C1106.04 0.362924 1109.31 0.434721 1109.87 0.447222C1112.03 0.494698 1113.04 0.453185 1114.69 0.47188C1116.34 0.490574 1113.87 0.513942 1115.8 0.525286C1119.79 0.548749 1124.92 0.543594 1128.98 0.545061C1130.6 0.545449 1129.5 0.502843 1129.73 0.50191C1133.07 0.491103 1136.46 0.536424 1138.31 0.451556C1140.64 0.670994 1140.33 0.430271 1145.12 0.4742C1145.49 0.477753 1145.97 0.581523 1144.53 0.596758C1143.08 0.611978 1140.89 0.579541 1138.88 0.603289C1138.4 0.608862 1135.68 0.706101 1135.31 0.711992C1132.4 0.758027 1131.99 0.602956 1131.83 0.594439C1130.09 0.502523 1126.76 0.60728 1125.88 0.614519C1121.87 0.647687 1118.47 0.625878 1115.11 0.649553C1112.92 0.664854 1112.71 0.766432 1110.98 0.763322C1105.26 0.753046 1103.26 0.611344 1097.87 0.734209C1096.71 0.760413 1097.86 0.871434 1093.72 0.784135C1093.46 0.778632 1090.38 0.698769 1088.6 0.749284C1088.38 0.755653 1088.38 0.788009 1088.09 0.790727C1086.12 0.808308 1084.8 0.782532 1082.65 0.794877C1080.5 0.807223 1077.92 0.825627 1075.46 0.814653C1073.98 0.80809 1072.09 0.747808 1071.38 0.733049C1069.38 0.690533 1067.23 0.760241 1066 0.708757C1064.75 0.657014 1067.19 0.578433 1063.91 0.545C1063.79 0.629062 1063.51 0.715343 1063.32 0.799882C1056.14 0.796922 1049.08 0.76974 1041.88 0.773454C1040.98 0.773999 1041.9 0.819191 1040.94 0.820939C1036.9 0.828119 1033.37 0.795903 1029.19 0.808732C1025.94 0.818836 1022.39 0.866685 1019 0.878739C1016.93 0.782549 1011.9 0.815203 1008.24 0.806413C1006.96 0.803376 1007.05 0.777685 1006.14 0.769304C1002.71 0.738306 1004.31 0.823309 1003.37 0.836686C999.334 0.893778 998.989 0.701379 994.227 0.706132C993.974 0.706319 990.89 0.808876 990.466 0.815263C987.767 0.856909 990.019 0.779567 988.33 0.771989C985.246 0.758142 983.103 0.733649 979.485 0.763688C978.43 0.772586 975.899 0.836509 973.85 0.787065C973.58 0.78059 973.729 0.746692 973.513 0.744707C969.585 0.711615 969.482 0.818129 967.238 0.854203C964.994 0.890269 961.527 0.816741 960.822 0.795549C958.977 0.740727 962.236 0.77212 962.336 0.76674C963.51 0.702717 960.982 0.71374 959.05 0.70833C958.771 0.603891 956.069 0.61016 957.048 0.703142C957.159 0.713298 958.662 0.703558 959.05 0.70833C957.355 0.810799 954.386 0.823922 951.107 0.728166C949.572 0.683287 951.023 0.63096 946.36 0.650102C944.244 0.658744 945.061 0.730655 943.194 0.750261C938.928 0.794993 933.383 0.727912 928.985 0.738481C927.389 0.742318 928.944 0.781682 927.853 0.785661C924.957 0.796343 922.404 0.766808 919.496 0.781938C919.232 0.783359 919.876 0.824565 918.972 0.82509C912.117 0.829875 906.148 0.803482 898.991 0.802751C895.533 0.802416 889.35 0.825142 885.767 0.820573C879.558 0.812897 871.92 0.752977 866.616 0.767534C863.157 0.776851 863.916 0.818066 862.434 0.846147C859.573 0.900579 854.51 0.803078 853.828 0.78798C853.807 0.787481 856.784 0.777765 855.196 0.756608C854.272 0.712525 853.862 0.787789 853.828 0.78798C853.381 0.778227 847.434 0.768871 846.253 0.77675C845.611 0.781055 845.97 0.820104 845.636 0.821611C837.684 0.856555 829.719 0.86648 821.654 0.848222C821.512 0.847433 821.726 0.803755 821.392 0.802446C816.723 0.783025 813.733 0.836457 809.882 0.86818C806.032 0.899889 802.979 0.889269 800.7 0.814286C797.795 0.823727 793.627 0.790578 791.229 0.770463C788.83 0.750349 788.496 0.835372 788.285 0.837052C781.703 0.89085 777.898 0.842185 771.07 0.834611C767.823 0.830865 761.383 0.843197 757.869 0.852494C755.09 0.859984 753.417 0.840059 750.857 0.8528C750.511 0.854501 750.861 0.892357 750.755 0.893815C747.898 0.939108 749.271 0.846562 748.682 0.830033C746.543 0.769927 745.222 0.737915 741.564 0.766191C740.72 0.772666 738.262 0.90592 736.724 0.913712C734.724 0.9236 735.479 0.875837 733.385 0.887406C733.205 0.888353 733.243 0.917819 731.95 0.91652C725.951 0.910877 719.411 0.893731 713.177 0.896684C712.325 0.896974 713.417 0.943712 712.186 0.944901C706.413 0.950441 700.085 0.948712 694.461 0.926835C693.076 0.921303 693.944 0.888578 693.644 0.878861C691.799 0.820069 689.182 0.905493 688.751 0.907121C678.452 0.948171 670.571 0.870864 660.075 0.90767C659.504 0.909831 655.106 1.00141 653.144 0.922868C653.009 0.917642 651.068 0.837289 649.352 0.892228C649.245 0.895665 650.455 0.937033 648.344 0.932816C646.233 0.928609 642.835 0.956234 639.934 0.910783C639.015 0.896465 636.844 0.816309 634.104 0.880204C633.925 0.884665 629.695 1.02914 628.185 0.929459C627.94 0.913051 628.196 0.807566 624.925 0.86165C624.301 0.872135 625.435 0.895663 623.789 0.910355C621.266 0.932999 617.924 0.904747 614.824 0.951737C614.283 0.960056 611.981 1.03165 610.135 0.977311C609.846 0.9688 610.395 0.933584 609.42 0.929643C604.783 0.910738 599.928 0.934294 595.22 0.909928C593.552 0.901367 594.405 0.844435 592.667 0.829179C590.928 0.813928 587.426 0.799257 585.606 0.825273C583.787 0.8513 585.774 0.942035 583.049 0.949296C571.199 0.98083 559.461 0.927602 547.628 0.919816C545.873 0.918653 547.328 0.951121 544.742 0.951737C535.207 0.954153 518.745 0.984595 510.472 0.915604C503.843 0.860347 512.185 0.818279 507.119 0.795793C504.675 0.785066 502.03 0.890555 501.44 0.893876C495.676 0.927611 491.669 0.880882 486.481 0.895219C485.409 0.898194 486.46 0.940949 485.548 0.943009C482.434 0.950424 479.16 0.93134 476.184 0.93483C474.848 0.936495 475.095 0.96915 473.866 0.96663C470.926 0.960975 468.326 0.947249 465.46 0.916642C465.199 0.913853 466.96 0.873231 464.785 0.87172C461.265 0.869391 456.896 0.839197 452.845 0.870378C451.644 0.879757 451.596 0.95439 449.013 0.902848C448.472 0.892083 449.163 0.802466 446.154 0.879899C445.648 0.892767 440.593 0.99721 438.112 0.929887C437.458 0.912168 435.788 0.838833 434.343 0.850358C434.147 0.852197 434.932 0.892285 433.734 0.896195C429.514 0.909279 425.091 0.905002 420.755 0.917558C419.597 0.92099 421.322 0.962473 419.596 0.966263C414.851 0.976749 408.926 0.966186 404.286 0.953202C402.575 0.948336 403.758 0.913973 403.633 0.910233C401.632 0.849408 400.448 0.931508 399.784 0.936295C395.651 0.96496 392.505 0.926395 388.696 0.936601C387.645 0.939313 388.39 0.978459 388.181 0.981949C386.011 1.01605 387.628 0.945754 386.254 0.938004C382.406 0.916062 378.116 0.919208 374.225 0.92421C372.796 0.926105 374.402 0.971496 373.12 0.972672C365.527 0.980494 357.635 0.97615 350.225 0.951127C348.83 0.946333 349.708 0.911381 349.417 0.903397C347.413 0.847545 344.476 0.923728 343.8 0.930985C340.727 0.964121 339.534 0.933212 336.82 0.938981C323.563 0.967705 307.195 0.947234 294.681 0.934586C278.375 0.918309 265.721 0.885059 250.172 0.893693C249.183 0.894198 250.18 0.940695 249.328 0.941727C238.329 0.952936 227.5 0.934767 216.478 0.948197C215.574 0.949217 216.878 0.993296 215.426 0.996415C212.449 1.00312 208.677 1.00072 205.666 0.986649C204.198 0.979868 206.167 0.942043 204.689 0.93599C201.248 0.921809 197.559 0.91867 194.024 0.925736C192.519 0.92884 194.789 0.973922 192.834 0.974442C179.514 0.978915 166.433 0.986679 152.973 0.9283C152.05 0.92429 151.241 0.832665 149.279 0.850236C149.131 0.875664 149.139 0.905576 149.074 0.932755C129.685 0.947396 110.493 0.915633 91.0484 0.910722C90.2286 0.910525 91.6454 0.959073 90.0582 0.958939C80.8719 0.958222 71.9514 0.971671 62.5549 0.923417C61.6226 0.918698 62.1009 0.833291 59.3534 0.846208C58.8688 0.848565 54.7308 0.859955 53.6609 0.878495C53.5156 0.881292 54.2706 0.921156 52.9371 0.922318C45.1883 0.928372 37.0679 0.919271 29.3324 0.894914C28.084 0.890906 29.4135 0.848454 28.5243 0.845231C22.2167 0.822696 15.356 0.854967 9.3288 0.816423C5.29443 0.79047 6.78807 0.717087 4.64426 0.644853C4.34104 0.634662 1.84284 0.633047 1.71365 0.591021C1.38199 0.48534 2.59204 0.369621 2.09552 0.256976C1.99062 0.232713 -1.35511 0.258846 0.625777 0.200214C0.764163 0.19629 3.18984 0.17683 3.78728 0.15694C4.20324 0.143188 3.45367 0.100447 4.30236 0.0828434C5.15098 0.0652564 6.0835 0.101084 7.49051 0.080402C8.89688 0.0594636 8.27849 0.0108407 11.0872 0.0050849ZM780.43 0.680559C778.209 0.639728 777.881 0.789275 780.283 0.753496C780.399 0.751589 780.544 0.682562 780.43 0.680559ZM1049.12 0.656938C1046.21 0.590977 1044.23 0.687966 1046.28 0.738908C1048.32 0.789796 1050 0.676934 1049.12 0.656938ZM1079.22 0.608782C1075.83 0.556775 1075.3 0.768839 1078.93 0.725969C1079.14 0.723546 1079.42 0.611802 1079.22 0.608782ZM14.5861 0.624285C14.5555 0.622299 12.7597 0.620363 12.7168 0.622331C11.7605 0.669827 15.3514 0.673665 14.5861 0.624285ZM1109.1 0.556353C1108.04 0.527666 1104.99 0.560781 1106.3 0.596453C1107.36 0.625149 1110.42 0.592037 1109.1 0.556353ZM664.586 0.520952C664.551 0.518724 663.264 0.516717 663.29 0.529314C663.377 0.569886 665.169 0.558436 664.586 0.520952ZM1159.87 0.553911C1152.37 0.545929 1147.82 0.370754 1155.99 0.390521C1157.47 0.394097 1152.8 0.446383 1154.69 0.462176C1158.13 0.490948 1160.42 0.38096 1163.94 0.439898C1164.57 0.450686 1160.3 0.554756 1159.86 0.554155C1159.86 0.554074 1159.87 0.553993 1159.87 0.553911ZM779.151 0.500933C779.107 0.498955 777.324 0.49708 777.282 0.499041C776.316 0.546518 779.907 0.550323 779.151 0.500933ZM589.461 0.428484C589.362 0.424271 585.226 0.420329 585.091 0.424212C582.934 0.50185 591.296 0.510048 589.461 0.428484ZM899.182 0.391497C901.126 0.343735 903.453 0.338112 905.003 0.398089C903.07 0.394905 901.125 0.394436 899.182 0.391497Z" fill="white"/>
</svg>
