<svg width="4" height="360" viewBox="0 0 4 360" fill="none" xmlns="http://www.w3.org/2000/svg">
<path d="M0.00508478 356.571C-0.00794172 354.554 0.00598652 351.909 0.0251039 349.9C0.0310332 349.27 0.0575373 349.589 0.0628235 349.154C0.0731286 348.303 0.0601299 347.511 0.0724059 346.671C0.076604 346.392 0.118586 346.739 0.122027 346.447C0.140581 344.847 0.129888 343.333 0.138812 341.712C0.182841 333.727 0.198601 325.878 0.217729 317.796C0.224 315.131 0.262101 311.891 0.245438 309.139C0.243456 308.817 0.206606 309.009 0.203568 308.948C0.157073 307.989 0.231465 308.308 0.241349 307.682C0.280375 305.197 0.283769 302.434 0.269547 300.042C0.263388 299.025 0.190195 300.045 0.231278 299.02C0.234054 298.949 0.273186 299.207 0.277359 298.928C0.286746 298.296 0.279752 297.095 0.282852 296.605C0.289026 295.66 0.288632 295.503 0.289078 294.609C0.290028 293.387 0.30948 291.934 0.300613 290.623C0.298604 290.343 0.25849 290.713 0.251663 290.267C0.244848 289.82 0.248249 288.638 0.257705 288.24C0.267167 287.841 0.298696 288.011 0.305923 287.941C0.366921 287.36 0.282439 285.993 0.280349 285.818C0.24475 282.61 0.292876 279.86 0.292739 276.85C0.292533 274.565 0.276644 272.121 0.278823 269.946C0.281574 267.356 0.303311 265.16 0.299574 262.643C0.299226 262.378 0.252061 262.689 0.25154 262.364C0.246051 258.918 0.251192 255.495 0.283033 252.063C0.286268 251.719 0.327679 252.163 0.333387 251.819C0.36742 249.714 0.449174 246.383 0.268873 245.132C0.275913 243.706 0.283188 241.975 0.319532 240.699C0.342924 239.877 0.388037 240.676 0.368787 239.665C0.364498 239.437 0.32499 239.734 0.321546 239.392C0.307083 237.953 0.319925 236.381 0.299512 234.958C0.295267 234.668 0.259866 234.747 0.253492 234.665C0.201865 233.976 0.287207 232.828 0.293408 232.578C0.339652 230.672 0.321454 229.281 0.322583 227.506C0.322865 227.094 0.275314 227.581 0.273877 227.185C0.267062 225.129 0.271149 223 0.292248 220.987C0.297056 220.539 0.337561 220.951 0.341931 220.737C0.360706 219.794 0.284203 219.585 0.300732 218.68C0.304119 218.489 0.338794 218.597 0.342602 218.562C0.402383 218.017 0.317678 217.544 0.315808 217.404C0.290255 215.632 0.378683 214.5 0.366161 212.788C0.364574 212.584 0.320699 213.045 0.31892 212.47C0.306808 208.635 0.318861 204.58 0.353954 200.785C0.359351 200.194 0.39231 200.616 0.396373 200.579C0.459857 199.973 0.374796 199.582 0.371593 199.389C0.348534 197.871 0.419867 196.453 0.318553 195.422C0.353712 188.993 0.296819 182.594 0.387583 176.218C0.388634 176.137 0.430527 176.282 0.432444 176.12C0.455966 174.173 0.390857 174.547 0.311228 173.258C0.291233 172.934 0.387372 171.946 0.394419 171.859C0.420387 171.541 0.482712 171.871 0.487741 171.764C0.527233 170.882 0.321121 171.026 0.321055 169.836C0.321398 169.799 0.359336 169.955 0.363108 169.855C0.37495 169.545 0.359875 169.237 0.372934 168.934C0.403152 168.239 0.503305 167.991 0.445016 166.93C0.437452 166.796 0.320536 167.001 0.326059 165.939C0.32836 165.515 0.326356 163.64 0.333933 163.115C0.3415 162.59 0.379176 162.951 0.380808 162.913C0.430627 161.499 0.451275 162.035 0.525033 161.327C0.598513 160.619 0.423257 160.815 0.403696 160.526C0.38419 160.237 0.425295 159.201 0.439584 158.946C0.45388 158.691 0.47782 159.009 0.48591 158.782C0.538764 157.281 0.398919 158.123 0.371103 157.629C0.30524 156.463 0.43521 155.554 0.447946 154.487C0.451385 154.198 0.421783 154.434 0.419015 154.176C0.408443 153.158 0.448997 152.545 0.411813 151.386C0.405753 151.196 0.327611 150.259 0.384957 149.653C0.393226 149.567 0.425615 149.811 0.43287 149.377C0.443758 148.728 0.450837 147.559 0.440011 146.862C0.432001 146.347 0.378632 146.937 0.395211 146.289C0.402614 146.002 0.433835 146.535 0.445138 145.994C0.456437 145.456 0.455066 144.08 0.453988 143.557C0.452886 143.034 0.412403 143.32 0.409676 143.278C0.394054 143.022 0.374533 142.019 0.374581 141.931C0.369639 137.46 0.437876 133.337 0.415291 128.985C0.413577 128.643 0.370888 128.871 0.370186 128.818C0.3523 127.649 0.465801 128.571 0.503791 127.754C0.417162 127.872 0.432848 127.39 0.423347 126.566C0.418699 126.169 0.385155 126.385 0.381721 126.349C0.330773 125.761 0.39658 125.351 0.410042 125.245C0.459562 124.855 0.40105 124.431 0.43415 124.166C0.467003 123.901 0.515707 124.511 0.515083 123.721C0.484072 123.499 0.403034 124.086 0.3899 123.486C0.34022 121.223 0.403803 116.999 0.410407 115.179C0.417007 113.363 0.411285 112.776 0.422492 111.718C0.442756 109.807 0.382631 110.507 0.355109 109.32C0.327592 108.13 0.475528 108.709 0.507331 108.538C0.539119 108.37 0.506396 108.186 0.523871 107.977C0.541342 107.769 0.562965 108.22 0.569525 107.73C0.576079 107.24 0.519526 105.9 0.486273 105.727C0.415825 105.359 0.341886 105.963 0.367866 104.666C0.369407 104.592 0.408307 104.834 0.412238 104.548C0.442184 102.28 0.44404 99.9238 0.470526 97.6584C0.474229 97.3469 0.517503 97.6255 0.520147 97.4442C0.547826 95.556 0.474861 96.2309 0.393805 95.1961C0.501673 95.4284 0.567667 94.8562 0.568304 93.4232C0.568725 92.5617 0.521613 92.7101 0.488409 92.1529C0.4784 91.9857 0.510748 91.3762 0.488592 91.2657C0.416168 90.9015 0.335094 91.4756 0.367377 89.9982C0.368911 89.9333 0.408555 90.1397 0.410956 89.9158C0.426671 88.4679 0.350916 88.2947 0.341742 86.7297C0.334543 85.5031 0.380737 83.3214 0.38825 81.9246C0.509525 81.954 0.481755 80.6346 0.398138 80.0995C0.401561 79.193 0.396834 78.214 0.408392 77.3378C0.412332 77.0363 0.447444 77.2343 0.451238 77.1963C0.510753 76.6133 0.429403 76.2192 0.426214 76.0235C0.395212 73.903 0.456868 72.1751 0.396612 70.1513C0.394441 70.0795 0.3102 69.9631 0.371709 69.4221C0.375949 69.3871 0.414277 70.0555 0.417241 69.1035C0.420212 68.1513 0.465371 66.3563 0.426335 65.0344C0.416938 64.7145 0.348551 63.9055 0.401982 63.256C0.409238 63.1695 0.433398 63.2641 0.446843 63.1393C0.489682 62.7355 0.404536 62.5152 0.476872 62.0406C0.549206 61.5662 0.603378 60.5791 0.553471 59.246C0.55202 59.2035 0.484533 58.8879 0.4856 58.4687C0.487361 57.7994 0.50142 56.8494 0.500981 56.1506C0.500746 55.816 0.45884 56.0302 0.458073 55.9721C0.43459 53.7224 0.471949 52.1213 0.488163 49.7112C0.491218 49.2694 0.434073 47.9998 0.479252 47.1445C0.528709 46.2054 0.734443 47.1704 0.685428 45.0118C0.665823 44.1411 0.404813 43.0388 0.540042 41.4742C0.506533 38.4397 0.575743 35.6333 0.527896 32.5904C0.525776 32.4536 0.45293 32.0208 0.453922 31.6991C0.455535 31.2214 0.489581 30.9594 0.491824 30.6183C0.50208 29.1894 0.47295 27.8817 0.477481 26.5039C0.479127 25.9809 0.514332 26.1638 0.516299 25.5399C0.518234 24.9164 0.471876 24.5006 0.494265 23.6557C0.511331 23.0176 0.606084 22.3796 0.617129 21.5326C0.523665 21.5003 0.52559 20.9186 0.500918 19.8846C0.496131 19.6859 0.463601 19.899 0.459658 19.805C0.442892 19.4224 0.469853 19.0683 0.451602 18.705C0.447218 18.6166 0.4153 18.6124 0.409915 18.5402C0.362909 17.9258 0.434706 16.9136 0.447207 16.7398C0.494683 16.0736 0.453169 15.7621 0.471865 15.2512C0.490558 14.7409 0.513927 15.5038 0.525271 14.9078C0.548734 13.6725 0.543579 12.0851 0.545046 10.8305C0.545434 10.3299 0.502828 10.6715 0.501894 10.5998C0.491088 9.56467 0.536409 8.51782 0.45154 7.94385C0.670978 7.22614 0.430256 7.31967 0.474184 5.83997C0.477737 5.72342 0.581508 5.57516 0.596742 6.02261C0.611963 6.47006 0.579525 7.14862 0.603273 7.76944C0.608846 7.91653 0.706086 8.75861 0.711976 8.8736C0.758012 9.77371 0.60294 9.90118 0.594423 9.94888C0.502508 10.4889 0.607265 11.5181 0.614504 11.7891C0.647671 13.0289 0.625863 14.0823 0.649538 15.1193C0.664839 15.7975 0.766417 15.8639 0.763307 16.3965C0.753031 18.1669 0.61133 18.7849 0.734194 20.4532C0.760398 20.8109 0.871419 20.4554 0.78412 21.7372C0.778617 21.8177 0.698754 22.7694 0.749269 23.3192C0.755639 23.3883 0.787994 23.3861 0.790712 23.4772C0.808294 24.0875 0.782517 24.4946 0.794863 25.1595C0.807208 25.8243 0.825612 26.6237 0.814638 27.3828C0.808076 27.8402 0.747793 28.4273 0.733034 28.6463C0.690518 29.2646 0.760227 29.9276 0.708743 30.3107C0.656999 30.697 0.578418 29.9418 0.544986 30.9548C0.629048 30.9923 0.715329 31.0785 0.799868 31.1388C0.796908 33.3587 0.769726 35.5431 0.77344 37.7704C0.773984 38.0465 0.819176 37.7642 0.820925 38.0602C0.828105 39.3092 0.795889 40.4001 0.808718 41.6953C0.818822 42.6979 0.866671 43.7973 0.878726 44.8456C0.782535 45.4861 0.81519 47.0417 0.806399 48.1718C0.803362 48.5676 0.777671 48.5412 0.76929 48.8227C0.738293 49.8848 0.823296 49.3871 0.836673 49.6783C0.893765 50.9275 0.701365 51.0345 0.706119 52.5072C0.706306 52.5853 0.808863 53.5391 0.81525 53.6704C0.856895 54.5052 0.779553 53.8085 0.771976 54.331C0.758128 55.2847 0.733636 55.9475 0.763675 57.0666C0.772573 57.3929 0.836496 58.1756 0.787052 58.8093C0.780577 58.8927 0.746678 58.8466 0.744693 58.9137C0.711602 60.1281 0.818116 60.1601 0.85419 60.8541C0.890256 61.5483 0.816728 62.6203 0.795536 62.8385C0.740714 63.4094 0.772107 62.4011 0.766727 62.3702C0.702704 62.0072 0.713727 62.789 0.708317 63.3865C0.603878 63.473 0.610147 64.3084 0.703129 64.0058C0.713285 63.9714 0.703545 63.5064 0.708317 63.3865C0.810786 63.9109 0.823909 64.8292 0.728153 65.8433C0.683274 66.318 0.630947 65.8693 0.65009 67.3113C0.658731 67.9658 0.730642 67.713 0.750248 68.2905C0.79498 69.61 0.727899 71.3246 0.738468 72.6851C0.742306 73.1787 0.78167 72.6978 0.785648 73.0352C0.796331 73.9307 0.766796 74.7205 0.781925 75.6198C0.783346 75.7012 0.824552 75.5022 0.825077 75.7818C0.829863 77.902 0.80347 79.748 0.802739 81.9616C0.802404 83.0312 0.82513 84.9433 0.820561 86.0513C0.812885 87.9716 0.752966 90.3339 0.767522 91.9743C0.77684 93.0443 0.818054 92.8095 0.846135 93.268C0.900568 94.1527 0.803067 95.7185 0.787969 95.9294C0.787469 95.9359 0.777753 95.0151 0.756597 95.5064C0.712514 95.7921 0.787778 95.919 0.787969 95.9294C0.778216 96.0679 0.76886 97.9071 0.776738 98.2722C0.781044 98.4707 0.820092 98.3597 0.821599 98.4631C0.856544 100.922 0.866468 103.386 0.848211 105.88C0.847422 105.924 0.803744 105.858 0.802435 105.961C0.783014 107.405 0.836446 108.33 0.868169 109.521C0.899879 110.712 0.889258 111.656 0.814276 112.361C0.823717 113.259 0.790567 114.548 0.770453 115.29C0.750339 116.032 0.835361 116.135 0.837042 116.201C0.89084 118.236 0.842174 119.413 0.834601 121.525C0.830854 122.529 0.843187 124.521 0.852484 125.608C0.859974 126.467 0.840049 126.984 0.852789 127.776C0.854491 127.883 0.892347 127.775 0.893805 127.808C0.939098 128.691 0.846552 128.267 0.830023 128.449C0.769917 129.11 0.737905 129.519 0.766181 130.65C0.772656 130.911 0.90591 131.672 0.913702 132.147C0.92359 132.766 0.875827 132.532 0.887396 133.18C0.888343 133.235 0.917809 133.224 0.91651 133.624C0.910867 135.479 0.893721 137.502 0.896674 139.43C0.896964 139.693 0.943703 139.356 0.944892 139.736C0.950432 141.522 0.948702 143.479 0.926826 145.218C0.921294 145.646 0.888569 145.378 0.878852 145.471C0.82006 146.042 0.905484 146.851 0.907111 146.984C0.948162 150.169 0.870855 152.607 0.907661 155.853C0.909822 156.03 1.0014 157.39 0.922859 157.997C0.917634 158.038 0.83728 158.639 0.892219 159.17C0.895656 159.203 0.937024 158.828 0.932808 159.481C0.928601 160.134 0.956226 161.185 0.910774 162.082C0.896456 162.366 0.816301 163.038 0.880196 163.885C0.884656 163.941 1.02913 165.249 0.929451 165.716C0.913043 165.792 0.807557 165.713 0.861641 166.724C0.872126 166.917 0.895655 166.566 0.910347 167.076C0.932991 167.856 0.904738 168.889 0.951729 169.848C0.960048 170.016 1.03164 170.728 0.977303 171.299C0.968792 171.388 0.933575 171.218 0.929634 171.52C0.91073 172.954 0.934286 174.455 0.90992 175.911C0.901359 176.427 0.844427 176.163 0.829171 176.701C0.81392 177.239 0.799249 178.322 0.825265 178.885C0.851292 179.447 0.942027 178.833 0.949288 179.676C0.980822 183.34 0.927594 186.971 0.919808 190.63C0.918646 191.173 0.951113 190.723 0.95173 191.523C0.954145 194.472 0.984588 199.563 0.915598 202.122C0.86034 204.172 0.818272 201.592 0.795786 203.159C0.785059 203.915 0.890548 204.733 0.893869 204.915C0.927604 206.698 0.880875 207.937 0.895212 209.542C0.898187 209.873 0.940943 209.548 0.943003 209.83C0.950417 210.794 0.931333 211.806 0.934824 212.727C0.936488 213.14 0.969144 213.064 0.966623 213.444C0.960969 214.353 0.947242 215.157 0.916636 216.043C0.913847 216.124 0.873225 215.579 0.871714 216.252C0.869384 217.341 0.839191 218.692 0.870371 219.945C0.879751 220.316 0.954384 220.331 0.902842 221.13C0.892077 221.297 0.802459 221.084 0.879893 222.014C0.892761 222.171 0.997204 223.734 0.929881 224.501C0.912162 224.704 0.838827 225.22 0.850352 225.667C0.852191 225.728 0.892279 225.485 0.896189 225.855C0.909273 227.161 0.904996 228.529 0.917552 229.87C0.920984 230.228 0.962467 229.694 0.966258 230.228C0.976743 231.696 0.966181 233.528 0.953197 234.963C0.948331 235.492 0.913967 235.126 0.910228 235.165C0.849403 235.784 0.931503 236.15 0.93629 236.356C0.964955 237.634 0.92639 238.607 0.936595 239.785C0.939308 240.11 0.978454 239.879 0.981944 239.944C1.01605 240.615 0.945748 240.115 0.937999 240.54C0.916057 241.73 0.919203 243.057 0.924205 244.26C0.9261 244.702 0.971491 244.205 0.972667 244.602C0.980489 246.95 0.976146 249.391 0.951122 251.683C0.946328 252.114 0.911376 251.843 0.903393 251.933C0.84754 252.553 0.923724 253.461 0.930981 253.67C0.964116 254.62 0.933207 254.99 0.938976 255.829C0.967701 259.929 0.947229 264.991 0.934582 268.861C0.918306 273.905 0.885055 277.818 0.89369 282.627C0.894195 282.933 0.940692 282.625 0.941724 282.888C0.952933 286.29 0.934764 289.639 0.948194 293.048C0.949214 293.328 0.993294 292.924 0.996412 293.373C1.00312 294.294 1.00072 295.461 0.986646 296.392C0.979865 296.846 0.94204 296.237 0.935987 296.694C0.921806 297.758 0.918667 298.899 0.925734 299.993C0.928837 300.458 0.973919 299.756 0.97444 300.361C0.978912 304.48 0.986677 308.526 0.928298 312.689C0.924288 312.974 0.832663 313.225 0.850234 313.831C0.875662 313.877 0.905574 313.875 0.932753 313.895C0.947394 319.891 0.915631 325.827 0.91072 331.841C0.910524 332.094 0.959071 331.656 0.958938 332.147C0.95822 334.988 0.97167 337.747 0.923416 340.653C0.918697 340.941 0.83329 340.794 0.846207 341.643C0.848564 341.793 0.859954 343.073 0.878494 343.404C0.881291 343.449 0.921156 343.215 0.922318 343.628C0.928371 346.024 0.91927 348.536 0.894913 350.928C0.890906 351.314 0.848453 350.903 0.845231 351.178C0.822695 353.129 0.854967 355.251 0.816423 357.115C0.79047 358.363 0.717087 357.901 0.644853 358.564C0.634662 358.657 0.633047 359.43 0.591021 359.47C0.48534 359.573 0.369621 359.198 0.256976 359.352C0.232713 359.384 0.258846 360.419 0.200214 359.806C0.19629 359.764 0.17683 359.013 0.15694 358.829C0.143188 358.7 0.100447 358.932 0.0828434 358.669C0.0652563 358.407 0.101084 358.119 0.0804019 357.683C0.0594635 357.248 0.0108405 357.44 0.00508478 356.571ZM0.680548 118.63C0.639717 119.317 0.789265 119.418 0.753485 118.675C0.751578 118.639 0.682551 118.595 0.680548 118.63ZM0.656924 35.5306C0.590963 36.4285 0.687952 37.0429 0.738894 36.4095C0.789781 35.7761 0.676919 35.257 0.656924 35.5306ZM0.608767 26.2197C0.55676 27.2691 0.768824 27.4342 0.725954 26.3103C0.723532 26.2449 0.611787 26.1583 0.608767 26.2197ZM0.624284 355.489C0.622298 355.498 0.620363 356.054 0.622331 356.067C0.669827 356.363 0.673665 355.252 0.624284 355.489ZM0.556338 16.9801C0.527651 17.3077 0.560766 18.2509 0.596438 17.8439C0.625134 17.5163 0.592022 16.5721 0.556338 16.9801ZM0.520943 154.458C0.518715 154.469 0.516708 154.867 0.529305 154.859C0.569877 154.832 0.558427 154.278 0.520943 154.458ZM0.553896 1.27652C0.545913 3.59665 0.370738 5.00342 0.390505 2.47678C0.394081 2.01929 0.446367 3.46286 0.46216 2.88052C0.490932 1.81491 0.380944 1.10736 0.439882 0.0199585C0.45067 -0.17691 0.55474 1.1442 0.55414 1.28064C0.554058 1.27927 0.553977 1.27789 0.553896 1.27652ZM0.500922 119.025C0.498945 119.039 0.49707 119.59 0.49903 119.604C0.546507 119.902 0.550312 118.792 0.500922 119.025ZM0.428476 177.693C0.424263 177.723 0.420321 179.002 0.424204 179.044C0.501842 179.711 0.51004 177.125 0.428476 177.693ZM0.391485 81.9026C0.343723 81.3011 0.338099 80.5817 0.398077 80.1022C0.394893 80.7 0.394424 81.3017 0.391485 81.9026Z" fill="white"/>
<path d="M3.00508 354.657C2.99206 353.278 3.00599 351.471 3.0251 350.098C3.03103 349.668 3.05754 349.886 3.06282 349.588C3.07313 349.007 3.06013 348.466 3.07241 347.892C3.0766 347.701 3.11859 347.938 3.12203 347.739C3.14058 346.645 3.12989 345.611 3.13881 344.503C3.18284 339.047 3.1986 333.684 3.21773 328.161C3.224 326.34 3.2621 324.126 3.24544 322.245C3.24346 322.025 3.20661 322.156 3.20357 322.114C3.15707 321.459 3.23147 321.677 3.24135 321.249C3.28038 319.551 3.28377 317.663 3.26955 316.029C3.26339 315.334 3.1902 316.031 3.23128 315.331C3.23405 315.282 3.27319 315.458 3.27736 315.268C3.28675 314.835 3.27975 314.015 3.28285 313.68C3.28903 313.034 3.28863 312.927 3.28908 312.316C3.29003 311.481 3.30948 310.488 3.30061 309.592C3.29861 309.401 3.25849 309.654 3.25166 309.349C3.24485 309.044 3.24825 308.236 3.25771 307.964C3.26717 307.692 3.2987 307.808 3.30592 307.759C3.36692 307.363 3.28244 306.429 3.28035 306.309C3.24475 304.117 3.29288 302.238 3.29274 300.181C3.29253 298.619 3.27665 296.949 3.27882 295.463C3.28157 293.693 3.30331 292.193 3.29958 290.473C3.29923 290.291 3.25206 290.504 3.25154 290.282C3.24605 287.927 3.25119 285.588 3.28303 283.243C3.28627 283.008 3.32768 283.311 3.33339 283.076C3.36742 281.638 3.44918 279.361 3.26887 278.507C3.27592 277.533 3.28319 276.35 3.31953 275.478C3.34293 274.916 3.38804 275.462 3.36879 274.771C3.3645 274.616 3.32499 274.818 3.32155 274.584C3.30708 273.601 3.31993 272.527 3.29951 271.554C3.29527 271.356 3.25987 271.411 3.25349 271.354C3.20187 270.883 3.28721 270.099 3.29341 269.928C3.33965 268.626 3.32146 267.675 3.32258 266.462C3.32287 266.181 3.27532 266.514 3.27388 266.243C3.26706 264.838 3.27115 263.383 3.29225 262.008C3.29706 261.702 3.33756 261.983 3.34193 261.837C3.36071 261.192 3.2842 261.05 3.30073 260.431C3.30412 260.301 3.3388 260.374 3.3426 260.351C3.40238 259.979 3.31768 259.655 3.31581 259.559C3.29026 258.349 3.37868 257.575 3.36616 256.405C3.36458 256.266 3.3207 256.581 3.31892 256.188C3.30681 253.568 3.31886 250.796 3.35396 248.203C3.35935 247.8 3.39231 248.087 3.39638 248.062C3.45986 247.648 3.3748 247.381 3.3716 247.249C3.34854 246.212 3.41987 245.243 3.31856 244.538C3.35371 240.145 3.29682 235.772 3.38759 231.415C3.38864 231.36 3.43053 231.459 3.43245 231.349C3.45597 230.018 3.39086 230.274 3.31123 229.393C3.29124 229.171 3.38737 228.497 3.39442 228.437C3.42039 228.219 3.48271 228.445 3.48774 228.372C3.52724 227.769 3.32112 227.868 3.32106 227.055C3.3214 227.029 3.35934 227.136 3.36311 227.068C3.37495 226.856 3.35988 226.645 3.37294 226.438C3.40315 225.963 3.50331 225.794 3.44502 225.069C3.43745 224.977 3.32054 225.117 3.32606 224.391C3.32836 224.102 3.32636 222.821 3.33394 222.462C3.3415 222.103 3.37918 222.35 3.38081 222.324C3.43063 221.358 3.45128 221.724 3.52504 221.24C3.59852 220.756 3.42326 220.89 3.4037 220.693C3.38419 220.495 3.4253 219.787 3.43959 219.613C3.45388 219.439 3.47782 219.656 3.48591 219.501C3.53877 218.475 3.39892 219.051 3.37111 218.713C3.30524 217.916 3.43521 217.295 3.44795 216.566C3.45139 216.369 3.42179 216.53 3.41902 216.354C3.40845 215.658 3.449 215.239 3.41182 214.447C3.40576 214.317 3.32761 213.677 3.38496 213.263C3.39323 213.204 3.42562 213.371 3.43287 213.074C3.44376 212.631 3.45084 211.832 3.44001 211.356C3.432 211.004 3.37864 211.407 3.39521 210.964C3.40262 210.768 3.43384 211.132 3.44514 210.763C3.45644 210.395 3.45507 209.455 3.45399 209.097C3.45289 208.74 3.41241 208.935 3.40968 208.907C3.39406 208.732 3.37454 208.047 3.37458 207.986C3.36964 204.931 3.43788 202.114 3.41529 199.139C3.41358 198.906 3.37089 199.062 3.37019 199.026C3.3523 198.227 3.4658 198.857 3.50379 198.299C3.41717 198.379 3.43285 198.05 3.42335 197.487C3.4187 197.216 3.38516 197.363 3.38172 197.339C3.33078 196.936 3.39658 196.656 3.41004 196.584C3.45957 196.318 3.40105 196.028 3.43415 195.847C3.46701 195.665 3.51571 196.082 3.51509 195.543C3.48408 195.391 3.40304 195.792 3.3899 195.382C3.34022 193.836 3.40381 190.949 3.41041 189.706C3.41701 188.465 3.41129 188.064 3.4225 187.341C3.44276 186.035 3.38263 186.513 3.35511 185.702C3.3276 184.889 3.47553 185.284 3.50733 185.167C3.53912 185.053 3.5064 184.927 3.52387 184.785C3.54135 184.642 3.56297 184.95 3.56953 184.616C3.57608 184.281 3.51953 183.365 3.48628 183.246C3.41583 182.996 3.34189 183.408 3.36787 182.522C3.36941 182.471 3.40831 182.636 3.41224 182.441C3.44219 180.891 3.44404 179.281 3.47053 177.733C3.47423 177.52 3.51751 177.711 3.52015 177.587C3.54783 176.297 3.47486 176.758 3.39381 176.051C3.50168 176.209 3.56767 175.818 3.56831 174.839C3.56873 174.25 3.52162 174.352 3.48841 173.971C3.4784 173.857 3.51075 173.44 3.4886 173.365C3.41617 173.116 3.3351 173.508 3.36738 172.499C3.36891 172.454 3.40856 172.596 3.41096 172.442C3.42667 171.453 3.35092 171.335 3.34175 170.265C3.33455 169.427 3.38074 167.936 3.38825 166.982C3.50953 167.002 3.48176 166.1 3.39814 165.735C3.40156 165.115 3.39684 164.446 3.4084 163.847C3.41234 163.641 3.44745 163.777 3.45124 163.751C3.51076 163.352 3.42941 163.083 3.42622 162.949C3.39522 161.5 3.45687 160.32 3.39662 158.937C3.39445 158.888 3.3102 158.808 3.37171 158.438C3.37595 158.415 3.41428 158.871 3.41725 158.221C3.42022 157.57 3.46538 156.343 3.42634 155.44C3.41694 155.222 3.34855 154.669 3.40199 154.225C3.40924 154.166 3.4334 154.231 3.44685 154.145C3.48969 153.869 3.40454 153.719 3.47688 153.394C3.54921 153.07 3.60338 152.396 3.55348 151.485C3.55202 151.456 3.48454 151.24 3.4856 150.954C3.48737 150.496 3.50142 149.847 3.50098 149.37C3.50075 149.141 3.45884 149.287 3.45808 149.248C3.43459 147.71 3.47195 146.616 3.48817 144.969C3.49122 144.667 3.43408 143.8 3.47926 143.215C3.52871 142.574 3.73445 143.233 3.68543 141.758C3.66583 141.163 3.40482 140.41 3.54005 139.341C3.50654 137.267 3.57575 135.349 3.5279 133.27C3.52578 133.177 3.45293 132.881 3.45393 132.661C3.45554 132.335 3.48959 132.156 3.49183 131.923C3.50208 130.946 3.47295 130.053 3.47749 129.111C3.47913 128.754 3.51434 128.879 3.5163 128.452C3.51824 128.026 3.47188 127.742 3.49427 127.165C3.51134 126.729 3.60609 126.293 3.61713 125.714C3.52367 125.692 3.52559 125.294 3.50092 124.588C3.49614 124.452 3.46361 124.598 3.45966 124.533C3.4429 124.272 3.46986 124.03 3.45161 123.782C3.44722 123.721 3.4153 123.719 3.40992 123.669C3.36291 123.249 3.43471 122.558 3.44721 122.439C3.49469 121.984 3.45317 121.771 3.47187 121.422C3.49056 121.073 3.51393 121.594 3.52528 121.187C3.54874 120.343 3.54358 119.258 3.54505 118.401C3.54544 118.059 3.50283 118.292 3.5019 118.243C3.49109 117.536 3.53641 116.821 3.45155 116.428C3.67098 115.938 3.43026 116.002 3.47419 114.991C3.47774 114.911 3.58151 114.81 3.59675 115.115C3.61197 115.421 3.57953 115.885 3.60328 116.309C3.60885 116.41 3.70609 116.985 3.71198 117.064C3.75802 117.679 3.60295 117.766 3.59443 117.798C3.50251 118.167 3.60727 118.871 3.61451 119.056C3.64768 119.903 3.62587 120.623 3.64954 121.332C3.66484 121.795 3.76642 121.84 3.76331 122.204C3.75304 123.414 3.61133 123.836 3.7342 124.976C3.7604 125.221 3.87142 124.978 3.78413 125.854C3.77862 125.909 3.69876 126.559 3.74927 126.935C3.75564 126.982 3.788 126.981 3.79072 127.043C3.8083 127.46 3.78252 127.738 3.79487 128.192C3.80721 128.647 3.82562 129.193 3.81464 129.712C3.80808 130.024 3.7478 130.425 3.73304 130.575C3.69052 130.997 3.76023 131.451 3.70875 131.712C3.657 131.976 3.57842 131.46 3.54499 132.152C3.62905 132.178 3.71533 132.237 3.79987 132.278C3.79691 133.795 3.76973 135.288 3.77344 136.81C3.77399 136.998 3.81918 136.806 3.82093 137.008C3.82811 137.861 3.79589 138.607 3.80872 139.492C3.81883 140.177 3.86668 140.928 3.87873 141.645C3.78254 142.082 3.81519 143.145 3.8064 143.917C3.80337 144.188 3.77768 144.17 3.76929 144.362C3.7383 145.088 3.8233 144.748 3.83668 144.947C3.89377 145.8 3.70137 145.874 3.70612 146.88C3.70631 146.933 3.80887 147.585 3.81525 147.675C3.8569 148.245 3.77956 147.769 3.77198 148.126C3.75813 148.778 3.73364 149.231 3.76368 149.995C3.77258 150.218 3.8365 150.753 3.78706 151.186C3.78058 151.243 3.74668 151.212 3.7447 151.258C3.71161 152.088 3.81812 152.109 3.85419 152.584C3.89026 153.058 3.81673 153.791 3.79554 153.94C3.74072 154.33 3.77211 153.641 3.76673 153.62C3.70271 153.372 3.71373 153.906 3.70832 154.314C3.60388 154.373 3.61015 154.944 3.70313 154.737C3.71329 154.714 3.70355 154.396 3.70832 154.314C3.81079 154.672 3.82391 155.3 3.72816 155.993C3.68328 156.317 3.63095 156.011 3.65009 156.996C3.65874 157.443 3.73065 157.271 3.75025 157.665C3.79498 158.567 3.7279 159.739 3.73847 160.668C3.74231 161.006 3.78167 160.677 3.78565 160.907C3.79633 161.519 3.7668 162.059 3.78193 162.674C3.78335 162.729 3.82456 162.593 3.82508 162.784C3.82987 164.233 3.80347 165.494 3.80274 167.007C3.80241 167.738 3.82513 169.045 3.82056 169.802C3.81289 171.114 3.75297 172.728 3.76753 173.849C3.77684 174.58 3.81806 174.42 3.84614 174.733C3.90057 175.338 3.80307 176.408 3.78797 176.552C3.78747 176.556 3.77776 175.927 3.7566 176.263C3.71252 176.458 3.78778 176.545 3.78797 176.552C3.77822 176.646 3.76886 177.903 3.77674 178.153C3.78105 178.288 3.8201 178.212 3.8216 178.283C3.85655 179.964 3.86647 181.647 3.84821 183.352C3.84743 183.382 3.80375 183.336 3.80244 183.407C3.78302 184.394 3.83645 185.025 3.86817 185.839C3.89988 186.653 3.88926 187.298 3.81428 187.78C3.82372 188.394 3.79057 189.275 3.77046 189.782C3.75034 190.288 3.83536 190.359 3.83705 190.404C3.89084 191.795 3.84218 192.599 3.8346 194.042C3.83086 194.728 3.84319 196.089 3.85249 196.832C3.85998 197.419 3.84005 197.773 3.85279 198.314C3.85449 198.387 3.89235 198.313 3.89381 198.335C3.9391 198.939 3.84656 198.649 3.83003 198.773C3.76992 199.225 3.73791 199.505 3.76618 200.278C3.77266 200.456 3.90591 200.976 3.91371 201.301C3.92359 201.723 3.87583 201.564 3.8874 202.006C3.88835 202.044 3.91781 202.036 3.91651 202.309C3.91087 203.577 3.89372 204.96 3.89668 206.277C3.89697 206.457 3.94371 206.226 3.94489 206.486C3.95043 207.706 3.94871 209.044 3.92683 210.233C3.9213 210.525 3.88857 210.342 3.87886 210.405C3.82006 210.795 3.90549 211.348 3.90711 211.439C3.94817 213.616 3.87086 215.281 3.90766 217.5C3.90982 217.62 4.0014 218.55 3.92286 218.964C3.91764 218.993 3.83728 219.403 3.89222 219.766C3.89566 219.788 3.93703 219.533 3.93281 219.979C3.9286 220.425 3.95623 221.143 3.91078 221.756C3.89646 221.95 3.8163 222.409 3.8802 222.988C3.88466 223.026 4.02913 223.92 3.92945 224.239C3.91305 224.291 3.80756 224.237 3.86164 224.928C3.87213 225.06 3.89566 224.82 3.91035 225.168C3.93299 225.701 3.90474 226.408 3.95173 227.063C3.96005 227.177 4.03165 227.664 3.97731 228.054C3.96879 228.115 3.93358 227.999 3.92964 228.205C3.91073 229.185 3.93429 230.211 3.90992 231.206C3.90136 231.559 3.84443 231.378 3.82917 231.746C3.81392 232.113 3.79925 232.853 3.82527 233.238C3.85129 233.622 3.94203 233.202 3.94929 233.778C3.98082 236.283 3.9276 238.763 3.91981 241.264C3.91865 241.635 3.95112 241.328 3.95173 241.874C3.95415 243.889 3.98459 247.368 3.9156 249.117C3.86034 250.518 3.81827 248.755 3.79579 249.825C3.78506 250.342 3.89055 250.901 3.89387 251.026C3.92761 252.244 3.88088 253.091 3.89521 254.187C3.89819 254.413 3.94094 254.191 3.943 254.384C3.95042 255.042 3.93134 255.734 3.93483 256.363C3.93649 256.645 3.96915 256.593 3.96663 256.853C3.96097 257.474 3.94724 258.024 3.91664 258.63C3.91385 258.685 3.87323 258.312 3.87172 258.772C3.86939 259.516 3.83919 260.44 3.87037 261.296C3.87975 261.55 3.95439 261.559 3.90284 262.105C3.89208 262.22 3.80246 262.074 3.87989 262.71C3.89276 262.817 3.99721 263.885 3.92988 264.409C3.91216 264.548 3.83883 264.901 3.85035 265.206C3.85219 265.247 3.89228 265.081 3.89619 265.335C3.90927 266.226 3.905 267.161 3.91755 268.078C3.92099 268.322 3.96247 267.958 3.96626 268.322C3.97674 269.325 3.96618 270.577 3.9532 271.558C3.94833 271.92 3.91397 271.67 3.91023 271.696C3.8494 272.119 3.9315 272.369 3.93629 272.51C3.96496 273.383 3.92639 274.048 3.9366 274.853C3.93931 275.075 3.97846 274.918 3.98195 274.962C4.01605 275.42 3.94575 275.079 3.938 275.369C3.91606 276.182 3.9192 277.089 3.92421 277.911C3.9261 278.213 3.97149 277.874 3.97267 278.145C3.98049 279.749 3.97615 281.417 3.95112 282.983C3.94633 283.278 3.91138 283.093 3.90339 283.154C3.84754 283.578 3.92373 284.198 3.93098 284.341C3.96412 284.991 3.93321 285.243 3.93898 285.816C3.9677 288.618 3.94723 292.077 3.93458 294.722C3.91831 298.168 3.88506 300.842 3.89369 304.129C3.8942 304.338 3.94069 304.127 3.94173 304.307C3.95293 306.632 3.93477 308.92 3.9482 311.249C3.94921 311.441 3.99329 311.165 3.99641 311.472C4.00312 312.101 4.00072 312.898 3.98665 313.534C3.97987 313.845 3.94204 313.429 3.93599 313.741C3.92181 314.468 3.91867 315.248 3.92573 315.995C3.92884 316.313 3.97392 315.833 3.97444 316.246C3.97891 319.061 3.98668 321.826 3.9283 324.671C3.92429 324.866 3.83266 325.037 3.85023 325.451C3.87566 325.483 3.90557 325.481 3.93275 325.495C3.9474 329.592 3.91563 333.648 3.91072 337.758C3.91052 337.931 3.95907 337.632 3.95894 337.967C3.95822 339.909 3.97167 341.794 3.92342 343.78C3.9187 343.977 3.83329 343.876 3.84621 344.456C3.84856 344.559 3.85995 345.433 3.87849 345.659C3.88129 345.69 3.92116 345.53 3.92232 345.812C3.92837 347.45 3.91927 349.166 3.89491 350.801C3.89091 351.065 3.84845 350.784 3.84523 350.972C3.8227 352.305 3.85497 353.755 3.81642 355.028C3.79047 355.881 3.71709 355.565 3.64485 356.018C3.63466 356.083 3.63305 356.611 3.59102 356.638C3.48534 356.708 3.36962 356.452 3.25698 356.557C3.23271 356.579 3.25885 357.286 3.20021 356.868C3.19629 356.839 3.17683 356.326 3.15694 356.2C3.14319 356.112 3.10045 356.27 3.08284 356.091C3.06526 355.911 3.10108 355.714 3.0804 355.417C3.05946 355.12 3.01084 355.25 3.00508 354.657ZM3.68055 192.064C3.63972 192.533 3.78927 192.602 3.75349 192.095C3.75158 192.07 3.68255 192.04 3.68055 192.064ZM3.65693 135.279C3.59097 135.893 3.68796 136.313 3.7389 135.88C3.78979 135.447 3.67692 135.092 3.65693 135.279ZM3.60877 128.917C3.55676 129.634 3.76883 129.747 3.72596 128.979C3.72354 128.934 3.61179 128.875 3.60877 128.917ZM3.62428 353.917C3.6223 353.924 3.62036 354.303 3.62233 354.312C3.66983 354.515 3.67366 353.756 3.62428 353.917ZM3.55634 122.603C3.52766 122.827 3.56077 123.472 3.59644 123.193C3.62514 122.969 3.59203 122.324 3.55634 122.603ZM3.52095 216.546C3.51872 216.554 3.51671 216.826 3.52931 216.82C3.56988 216.802 3.55843 216.423 3.52095 216.546ZM3.5539 111.872C3.54592 113.458 3.37074 114.419 3.39051 112.692C3.39409 112.38 3.44637 113.366 3.46217 112.968C3.49094 112.24 3.38095 111.757 3.43989 111.014C3.45067 110.879 3.55475 111.782 3.55414 111.875C3.55406 111.874 3.55398 111.873 3.5539 111.872ZM3.50093 192.334C3.49895 192.343 3.49707 192.72 3.49903 192.729C3.54651 192.933 3.55032 192.174 3.50093 192.334ZM3.42848 232.423C3.42427 232.444 3.42032 233.318 3.42421 233.347C3.50184 233.803 3.51004 232.035 3.42848 232.423ZM3.39149 166.967C3.34373 166.556 3.3381 166.064 3.39808 165.737C3.3949 166.145 3.39443 166.556 3.39149 166.967Z" fill="white"/>
</svg>
