<svg width="1" height="458" viewBox="0 0 1 458" fill="none" xmlns="http://www.w3.org/2000/svg">
<path d="M0.00508493 453.638C-0.00794148 451.071 0.00598687 447.707 0.0251043 445.15C0.0310336 444.349 0.0575377 444.754 0.062824 444.201C0.0731291 443.119 0.0601305 442.112 0.0724065 441.042C0.0766045 440.688 0.118587 441.129 0.122028 440.758C0.140582 438.722 0.129888 436.796 0.138812 434.734C0.182843 424.575 0.198602 414.59 0.217731 404.307C0.224002 400.917 0.262103 396.795 0.245441 393.293C0.243458 392.884 0.206608 393.128 0.203571 393.05C0.157075 391.83 0.231467 392.236 0.241351 391.44C0.280377 388.278 0.283771 384.763 0.269549 381.72C0.263391 380.426 0.190198 381.724 0.23128 380.42C0.234056 380.33 0.273188 380.658 0.277362 380.303C0.286749 379.498 0.279755 377.971 0.282855 377.347C0.289028 376.145 0.288635 375.946 0.289081 374.809C0.290031 373.254 0.309483 371.405 0.300616 369.737C0.298607 369.381 0.258493 369.852 0.251666 369.284C0.244851 368.716 0.248252 367.212 0.257709 366.705C0.26717 366.198 0.298699 366.414 0.305926 366.324C0.366925 365.586 0.282442 363.847 0.280353 363.623C0.244753 359.543 0.29288 356.044 0.292743 352.215C0.292536 349.307 0.276648 346.198 0.278827 343.432C0.281578 340.136 0.303315 337.342 0.299579 334.14C0.29923 333.803 0.252065 334.199 0.251544 333.786C0.246056 329.401 0.251197 325.047 0.283038 320.681C0.286273 320.243 0.327684 320.807 0.333392 320.37C0.367424 317.691 0.449179 313.453 0.268878 311.863C0.275918 310.049 0.283193 307.846 0.319537 306.223C0.342929 305.177 0.388042 306.193 0.368792 304.907C0.364503 304.618 0.324995 304.995 0.321551 304.56C0.307088 302.729 0.31993 300.729 0.299518 298.918C0.295273 298.55 0.259872 298.651 0.253497 298.546C0.201871 297.669 0.287213 296.209 0.293414 295.89C0.339658 293.467 0.32146 291.696 0.322589 289.438C0.322871 288.914 0.27532 289.534 0.273883 289.029C0.267068 286.414 0.271155 283.705 0.292254 281.145C0.297062 280.575 0.337567 281.099 0.341937 280.827C0.360712 279.627 0.284209 279.36 0.300738 278.209C0.304125 277.967 0.3388 278.104 0.342608 278.059C0.402389 277.366 0.317684 276.765 0.315814 276.586C0.290261 274.332 0.378689 272.892 0.366168 270.714C0.36458 270.454 0.320706 271.041 0.318927 270.309C0.306815 265.431 0.318867 260.271 0.353961 255.443C0.359358 254.692 0.392317 255.228 0.39638 255.18C0.459864 254.41 0.374803 253.912 0.3716 253.667C0.348541 251.736 0.419874 249.932 0.31856 248.62C0.35372 240.441 0.296827 232.299 0.387591 224.188C0.388642 224.085 0.430535 224.27 0.432452 224.064C0.455974 221.586 0.390866 222.062 0.311236 220.423C0.291241 220.01 0.38738 218.754 0.394427 218.643C0.420396 218.238 0.48272 218.658 0.487749 218.522C0.527241 217.4 0.32113 217.583 0.321063 216.069C0.321407 216.022 0.359344 216.221 0.363116 216.094C0.374958 215.699 0.359883 215.307 0.372943 214.921C0.403161 214.037 0.503313 213.722 0.445025 212.372C0.43746 212.201 0.320545 212.462 0.326068 211.111C0.328369 210.572 0.326365 208.187 0.333941 207.519C0.341509 206.851 0.379185 207.309 0.380816 207.262C0.430636 205.463 0.451284 206.145 0.525042 205.244C0.598522 204.343 0.423265 204.593 0.403704 204.225C0.384199 203.857 0.425303 202.538 0.439593 202.214C0.453888 201.89 0.477829 202.294 0.485918 202.006C0.538773 200.097 0.398928 201.168 0.371112 200.539C0.305249 199.055 0.435219 197.9 0.447955 196.541C0.451394 196.174 0.421792 196.474 0.419024 196.147C0.408452 194.85 0.449006 194.071 0.411822 192.596C0.405762 192.355 0.327621 191.163 0.384966 190.391C0.393236 190.282 0.425624 190.593 0.432879 190.04C0.443767 189.215 0.450846 187.728 0.44002 186.841C0.43201 186.186 0.378642 186.937 0.39522 186.113C0.402623 185.746 0.433844 186.425 0.445147 185.737C0.456447 185.052 0.455075 183.302 0.453997 182.636C0.452895 181.971 0.412413 182.335 0.409686 182.281C0.394063 181.956 0.374542 180.68 0.374591 180.567C0.369649 174.88 0.437886 169.635 0.415301 164.097C0.413587 163.663 0.370898 163.952 0.370196 163.886C0.35231 162.398 0.465811 163.571 0.503802 162.532C0.417172 162.682 0.432858 162.068 0.423357 161.02C0.418709 160.515 0.385165 160.79 0.381732 160.744C0.330783 159.995 0.39659 159.474 0.410052 159.34C0.459572 158.844 0.401061 158.304 0.434161 157.966C0.467013 157.629 0.515717 158.405 0.515093 157.4C0.484083 157.118 0.403044 157.865 0.38991 157.102C0.340231 154.222 0.403813 148.848 0.410418 146.533C0.417017 144.223 0.411296 143.477 0.422503 142.13C0.442767 139.699 0.382641 140.59 0.35512 139.08C0.327603 137.565 0.475539 138.302 0.507342 138.084C0.53913 137.87 0.506407 137.637 0.523882 137.371C0.541353 137.106 0.562976 137.68 0.569536 137.057C0.57609 136.433 0.519537 134.729 0.486285 134.508C0.415836 134.04 0.341897 134.809 0.367877 133.159C0.369419 133.064 0.408318 133.372 0.412249 133.009C0.442195 130.123 0.444052 127.125 0.470538 124.243C0.47424 123.847 0.517514 124.201 0.520159 123.971C0.547838 121.568 0.474872 122.427 0.393817 121.111C0.501684 121.406 0.567679 120.678 0.568316 118.855C0.568736 117.759 0.521625 117.948 0.488421 117.239C0.478411 117.026 0.51076 116.251 0.488604 116.11C0.41618 115.647 0.335106 116.377 0.367388 114.498C0.368923 114.415 0.408567 114.678 0.410967 114.393C0.426682 112.551 0.350928 112.331 0.341754 110.339C0.334555 108.779 0.380749 106.003 0.388262 104.226C0.509537 104.264 0.481767 102.585 0.39815 101.904C0.401573 100.751 0.396846 99.5054 0.408404 98.3908C0.412344 98.0072 0.447457 98.2592 0.45125 98.2109C0.510765 97.4691 0.429415 96.9677 0.426226 96.7188C0.395224 94.021 0.456881 91.8229 0.396624 89.2481C0.394454 89.1567 0.310213 89.0087 0.371722 88.3203C0.375962 88.2758 0.41429 89.1262 0.417254 87.915C0.420225 86.7036 0.465384 84.42 0.426348 82.7383C0.416951 82.3313 0.348564 81.3018 0.401995 80.4757C0.409251 80.3656 0.433411 80.4861 0.446856 80.3272C0.489695 79.8136 0.404549 79.5331 0.476885 78.9295C0.549219 78.3258 0.603391 77.0702 0.553484 75.3741C0.552033 75.3201 0.484546 74.9185 0.485613 74.3852C0.487375 73.5337 0.501433 72.3251 0.500994 71.436C0.500759 71.0104 0.458853 71.2828 0.458086 71.2089C0.434604 68.3468 0.471963 66.3098 0.488177 63.2437C0.491232 62.6816 0.434086 61.0665 0.479266 59.9783C0.528723 58.7836 0.734456 60.0113 0.685442 57.265C0.665837 56.1573 0.404826 54.755 0.540056 52.7644C0.506547 48.9038 0.575757 45.3335 0.52791 41.4622C0.525791 41.2881 0.452945 40.7375 0.453936 40.3283C0.455549 39.7207 0.489596 39.3872 0.491839 38.9533C0.502094 37.1353 0.472965 35.4717 0.477495 33.7189C0.479142 33.0534 0.514346 33.2861 0.516314 32.4924C0.518249 31.6992 0.471891 31.1702 0.49428 30.0953C0.511346 29.2834 0.606099 28.4719 0.617144 27.3943C0.52368 27.3532 0.525605 26.6131 0.500933 25.2977C0.496146 25.0449 0.463616 25.316 0.459673 25.1964C0.442907 24.7096 0.469868 24.2592 0.451617 23.7969C0.447233 23.6845 0.415315 23.6791 0.40993 23.5872C0.362924 22.8056 0.434721 21.5179 0.447222 21.2968C0.494698 20.4492 0.453185 20.053 0.47188 19.4029C0.490574 18.7538 0.513942 19.7243 0.525286 18.9661C0.548749 17.3944 0.543594 15.375 0.545061 13.7788C0.545449 13.1419 0.502843 13.5765 0.501909 13.4853C0.491103 12.1684 0.536424 10.8365 0.451556 10.1064C0.670994 9.19324 0.430271 9.31226 0.4742 7.42975C0.477753 7.2814 0.581523 7.09286 0.596758 7.66211C0.611978 8.23145 0.579541 9.09464 0.603289 9.88446C0.608862 10.0716 0.706102 11.143 0.711992 11.2892C0.758027 12.4344 0.602956 12.5965 0.594438 12.6572C0.502523 13.3442 0.60728 14.6536 0.614519 14.9983C0.647687 16.5757 0.625878 17.9159 0.649553 19.2351C0.664854 20.098 0.766432 20.1824 0.763322 20.86C0.753046 23.1123 0.611344 23.8986 0.734209 26.021C0.760413 26.4761 0.871434 26.0238 0.784135 27.6546C0.778632 27.757 0.698769 28.9677 0.749284 29.6673C0.755653 29.7551 0.788009 29.7524 0.790727 29.8682C0.808308 30.6447 0.782532 31.1625 0.794877 32.0085C0.807223 32.8542 0.825627 33.8713 0.814653 34.837C0.80809 35.4191 0.747808 36.1658 0.733049 36.4444C0.690533 37.2311 0.760241 38.0746 0.708757 38.562C0.657014 39.0534 0.578433 38.0927 0.545 39.3813C0.629062 39.429 0.715343 39.5387 0.799882 39.6155C0.796922 42.4398 0.76974 45.2187 0.773454 48.0524C0.773999 48.4037 0.819191 48.0444 0.820939 48.421C0.828119 50.01 0.795903 51.3978 0.808732 53.0457C0.818836 54.3213 0.866685 55.7198 0.878739 57.0536C0.782549 57.8684 0.815203 59.8474 0.806413 61.2852C0.803376 61.7888 0.777685 61.7552 0.769304 62.1133C0.738306 63.4646 0.823309 62.8313 0.836686 63.2018C0.893778 64.7911 0.701379 64.9271 0.706133 66.8009C0.706319 66.9001 0.808876 68.1136 0.815263 68.2807C0.856909 69.3427 0.779567 68.4565 0.771989 69.1211C0.758142 70.3345 0.733649 71.1776 0.763688 72.6014C0.772586 73.0165 0.836509 74.0124 0.787065 74.8185C0.78059 74.9246 0.746692 74.8659 0.744707 74.9513C0.711615 76.4964 0.818129 76.537 0.854203 77.42C0.890269 78.3031 0.816741 79.667 0.795549 79.9446C0.740727 80.6708 0.77212 79.3881 0.76674 79.3488C0.702717 78.8869 0.71374 79.8816 0.70833 80.6417C0.603891 80.7517 0.61016 81.8146 0.703142 81.4297C0.713298 81.3858 0.703558 80.7943 0.70833 80.6417C0.810799 81.3089 0.823922 82.4771 0.728166 83.7673C0.683287 84.3713 0.63096 83.8003 0.650102 85.635C0.658744 86.4677 0.730655 86.1459 0.750261 86.8807C0.794993 88.5594 0.727912 90.7409 0.738481 92.4715C0.742318 93.0996 0.781682 92.4878 0.785661 92.9171C0.796343 94.0563 0.766808 95.0611 0.781938 96.2052C0.783359 96.3088 0.824565 96.0556 0.82509 96.4113C0.829875 99.1086 0.803482 101.457 0.802751 104.273C0.802416 105.634 0.825142 108.067 0.820573 109.476C0.812897 111.919 0.752977 114.925 0.767534 117.012C0.776851 118.373 0.818066 118.074 0.846147 118.658C0.900579 119.783 0.803078 121.775 0.78798 122.044C0.787481 122.052 0.777765 120.88 0.756608 121.505C0.712525 121.869 0.787789 122.03 0.78798 122.044C0.778227 122.22 0.768871 124.56 0.77675 125.024C0.781055 125.277 0.820104 125.135 0.821611 125.267C0.856555 128.396 0.86648 131.53 0.848222 134.703C0.847433 134.759 0.803755 134.675 0.802446 134.806C0.783025 136.643 0.836457 137.82 0.86818 139.335C0.899889 140.85 0.889269 142.051 0.814286 142.948C0.823727 144.091 0.790578 145.731 0.770463 146.675C0.750349 147.618 0.835372 147.75 0.837052 147.833C0.89085 150.423 0.842185 151.92 0.834611 154.607C0.830865 155.884 0.843197 158.418 0.852494 159.801C0.859984 160.894 0.840059 161.552 0.8528 162.56C0.854501 162.696 0.892357 162.558 0.893815 162.6C0.939108 163.724 0.846562 163.184 0.830033 163.416C0.769927 164.257 0.737915 164.777 0.766191 166.216C0.772666 166.548 0.90592 167.516 0.913712 168.121C0.9236 168.908 0.875837 168.611 0.887406 169.435C0.888353 169.505 0.917819 169.49 0.91652 169.999C0.910877 172.359 0.893731 174.933 0.896684 177.386C0.896974 177.721 0.943712 177.291 0.944901 177.775C0.950441 180.047 0.948712 182.537 0.926835 184.75C0.921303 185.295 0.888578 184.953 0.878861 185.071C0.820069 185.797 0.905493 186.827 0.907121 186.997C0.948171 191.049 0.870864 194.15 0.90767 198.28C0.909831 198.505 1.00141 200.235 0.922868 201.007C0.917642 201.06 0.837289 201.824 0.892228 202.499C0.895665 202.541 0.937033 202.065 0.932816 202.896C0.928609 203.726 0.956234 205.063 0.910783 206.205C0.896465 206.566 0.816309 207.421 0.880204 208.499C0.884665 208.569 1.02914 210.234 0.929459 210.828C0.913051 210.924 0.807566 210.823 0.86165 212.11C0.872135 212.356 0.895663 211.91 0.910355 212.557C0.932999 213.55 0.904747 214.865 0.951737 216.085C0.960056 216.298 1.03165 217.203 0.977311 217.93C0.9688 218.044 0.933584 217.827 0.929643 218.211C0.910738 220.036 0.934294 221.946 0.909928 223.798C0.901367 224.455 0.844435 224.119 0.829179 224.803C0.813928 225.487 0.799257 226.865 0.825273 227.581C0.8513 228.297 0.942035 227.515 0.949296 228.587C0.98083 233.25 0.927602 237.869 0.919816 242.524C0.918653 243.215 0.951121 242.642 0.951737 243.66C0.954153 247.412 0.984595 253.889 0.915604 257.144C0.860347 259.753 0.818279 256.47 0.795793 258.463C0.785066 259.425 0.890555 260.466 0.893876 260.698C0.927611 262.966 0.880882 264.542 0.895219 266.584C0.898194 267.006 0.940949 266.592 0.943009 266.951C0.950424 268.176 0.93134 269.465 0.93483 270.636C0.936495 271.161 0.96915 271.064 0.96663 271.548C0.960975 272.704 0.947249 273.727 0.916642 274.855C0.913853 274.958 0.873231 274.265 0.87172 275.121C0.869391 276.506 0.839197 278.225 0.870378 279.819C0.879757 280.291 0.95439 280.31 0.902848 281.326C0.892083 281.54 0.802465 281.268 0.879899 282.452C0.892767 282.651 0.99721 284.639 0.929887 285.616C0.912168 285.873 0.838833 286.53 0.850358 287.099C0.852197 287.176 0.892285 286.867 0.896195 287.338C0.909279 288.999 0.905002 290.739 0.917558 292.445C0.92099 292.901 0.962473 292.222 0.966263 292.901C0.976749 294.768 0.966186 297.099 0.953202 298.925C0.948336 299.598 0.913973 299.133 0.910233 299.182C0.849408 299.97 0.931508 300.435 0.936295 300.697C0.96496 302.323 0.926395 303.561 0.936601 305.059C0.939313 305.473 0.978459 305.18 0.981949 305.262C1.01605 306.116 0.945754 305.48 0.938004 306.02C0.916062 307.534 0.919208 309.222 0.92421 310.753C0.926105 311.316 0.971496 310.684 0.972672 311.188C0.980494 314.176 0.97615 317.281 0.951127 320.197C0.946333 320.746 0.911381 320.4 0.903397 320.515C0.847545 321.303 0.923728 322.459 0.930985 322.725C0.964121 323.934 0.933212 324.403 0.938981 325.471C0.967705 330.687 0.947234 337.128 0.934586 342.052C0.918309 348.468 0.885059 353.446 0.893693 359.565C0.894198 359.954 0.940695 359.562 0.941727 359.897C0.952936 364.225 0.934767 368.485 0.948197 372.822C0.949217 373.178 0.993296 372.665 0.996415 373.236C1.00312 374.408 1.00072 375.892 0.986649 377.076C0.979868 377.654 0.942043 376.879 0.93599 377.461C0.921809 378.815 0.91867 380.266 0.925736 381.657C0.92884 382.249 0.973922 381.356 0.974442 382.126C0.978915 387.366 0.986679 392.513 0.9283 397.81C0.92429 398.173 0.832665 398.491 0.850236 399.263C0.875664 399.321 0.905576 399.318 0.932755 399.344C0.947396 406.973 0.915633 414.524 0.910722 422.175C0.910525 422.498 0.959073 421.94 0.958939 422.565C0.958222 426.179 0.971671 429.689 0.923417 433.386C0.918698 433.753 0.833291 433.565 0.846208 434.646C0.848565 434.837 0.859955 436.465 0.878495 436.886C0.881292 436.943 0.921156 436.646 0.922318 437.171C0.928372 440.22 0.919271 443.415 0.894914 446.459C0.890906 446.95 0.848454 446.427 0.845231 446.777C0.822696 449.258 0.854967 451.958 0.816423 454.329C0.79047 455.917 0.717087 455.329 0.644853 456.173C0.634662 456.292 0.633047 457.275 0.591021 457.326C0.48534 457.456 0.369621 456.98 0.256976 457.175C0.232713 457.217 0.258846 458.533 0.200214 457.754C0.19629 457.699 0.17683 456.745 0.15694 456.51C0.143188 456.346 0.100447 456.641 0.0828434 456.307C0.0652564 455.973 0.101084 455.606 0.080402 455.053C0.0594636 454.499 0.0108407 454.743 0.00508493 453.638ZM0.680559 150.924C0.639728 151.797 0.789275 151.926 0.753496 150.981C0.751589 150.936 0.682562 150.879 0.680559 150.924ZM0.656938 45.2028C0.590977 46.3451 0.687966 47.1268 0.738908 46.321C0.789796 45.5152 0.676934 44.8548 0.656938 45.2028ZM0.608782 33.3572C0.556775 34.6922 0.768839 34.9025 0.725969 33.4725C0.723546 33.3894 0.611802 33.2791 0.608782 33.3572ZM0.624285 452.261C0.622299 452.273 0.620363 452.979 0.622331 452.996C0.669827 453.373 0.673665 451.96 0.624285 452.261ZM0.556353 21.6025C0.527666 22.0193 0.560781 23.2194 0.596453 22.7014C0.625149 22.2846 0.592037 21.0834 0.556353 21.6025ZM0.520952 196.505C0.518724 196.518 0.516717 197.025 0.529314 197.015C0.569886 196.98 0.558436 196.276 0.520952 196.505ZM0.553911 1.62402C0.545929 4.57581 0.370754 6.36545 0.390521 3.151C0.394097 2.56891 0.446383 4.40561 0.462176 3.66467C0.490948 2.30899 0.38096 1.40881 0.439898 0.0253906C0.450686 -0.225006 0.554756 1.4556 0.554155 1.62927C0.554074 1.62756 0.553993 1.62573 0.553911 1.62402ZM0.500933 151.427C0.498955 151.444 0.49708 152.146 0.499041 152.162C0.546518 152.542 0.550323 151.13 0.500933 151.427ZM0.428484 226.064C0.424271 226.103 0.420329 227.731 0.424212 227.784C0.50185 228.633 0.510048 225.342 0.428484 226.064ZM0.391497 104.198C0.343735 103.433 0.338112 102.518 0.398089 101.908C0.394905 102.668 0.394436 103.434 0.391497 104.198Z" fill="white" fill-opacity="0.6"/>
</svg>
