<svg width="24" height="24" viewBox="0 0 24 24" fill="none" xmlns="http://www.w3.org/2000/svg">
<g clip-path="url(#clip0_435_1946)">
<path fill-rule="evenodd" clip-rule="evenodd" d="M12 24C18.6273 24 24 18.6273 24 12C24 5.37273 18.6273 0 12 0C5.37273 0 0 5.37273 0 12C0 18.6273 5.37273 24 12 24ZM3.97527 11.3891C3.92361 11.4093 3.87917 11.4445 3.84768 11.4902C3.81619 11.5359 3.79908 11.59 3.79855 11.6455C3.79855 11.7567 3.87164 11.8615 3.97527 11.9007L7.23382 13.0898L13.9473 9.624C13.9828 9.60753 14.0229 9.60397 14.0607 9.61393C14.0986 9.62389 14.1318 9.64674 14.1545 9.67854C14.1759 9.71126 14.1852 9.7504 14.1808 9.78923C14.1764 9.82805 14.1587 9.86414 14.1305 9.89127L9.612 13.944L14.6749 18.0207C14.748 18.0731 14.8462 18.0862 14.9302 18.0556C14.9721 18.0396 15.0094 18.0137 15.0391 17.9801C15.0687 17.9464 15.0897 17.9061 15.1004 17.8625L17.7818 6.58473C17.7929 6.53647 17.7909 6.48613 17.7759 6.43893C17.7609 6.39174 17.7336 6.34941 17.6967 6.31636C17.6592 6.284 17.6138 6.26228 17.565 6.25345C17.5163 6.24462 17.4661 6.24902 17.4196 6.26618L3.97527 11.3891Z" fill="white"/>
</g>
<defs>
<clipPath id="clip0_435_1946">
<rect width="24" height="24" fill="white"/>
</clipPath>
</defs>
</svg>
