<svg width="24" height="24" viewBox="0 0 24 24" fill="none" xmlns="http://www.w3.org/2000/svg">
<g clip-path="url(#clip0_435_1950)">
<path fill-rule="evenodd" clip-rule="evenodd" d="M16.4637 13.8957C16.9028 14.1006 17.3408 14.305 17.4579 14.3635L17.9277 14.5984C18.0451 15.0683 18.0451 15.5381 17.8102 16.0079C17.3404 16.7126 16.6357 17.2999 15.8135 17.4173C15.1088 17.5348 14.5215 17.5348 13.9343 17.2999C13.481 17.2092 13.0976 17.0485 12.6762 16.8719C12.5517 16.8197 12.4239 16.7662 12.2899 16.7126C10.2932 15.773 8.64889 14.2461 7.35689 12.3668C6.65219 11.4272 6.29979 10.3701 6.18239 9.31307C6.18239 8.37337 6.53469 7.55127 7.23939 6.84647C7.35689 6.72907 7.70929 6.49417 7.94419 6.49417H8.53139C8.76629 6.49417 9.00129 6.49417 9.11869 7.31627C9.35359 7.90357 9.94089 9.31307 10.0583 9.43047C10.1758 9.54797 10.1758 9.78287 10.0583 9.90027C10.0583 10.0178 9.94089 10.2527 9.82339 10.3701C9.65969 10.452 9.55306 10.5909 9.46368 10.7073C9.42481 10.7579 9.38921 10.8043 9.35359 10.8399C9.23619 10.9574 9.11869 11.1923 9.23619 11.4272C9.70599 12.1319 10.2932 12.8366 10.8805 13.4239C11.5852 14.0112 12.4074 14.481 13.2296 14.8333C13.4645 14.9508 13.6994 14.9508 13.8168 14.7159C13.9342 14.5984 14.1104 14.3635 14.2866 14.1286C14.4628 13.8937 14.639 13.6588 14.7565 13.5414C14.9914 13.3065 15.2263 13.3065 15.4612 13.4239C15.579 13.4828 16.0219 13.6895 16.4637 13.8957ZM3.83329 3.67527C8.41399 -0.905429 15.8135 -0.905429 20.3942 3.67527C22.5084 5.90687 23.8004 8.84317 23.6829 11.897C23.6829 18.357 18.515 23.5249 12.055 23.5249C10.1758 23.5249 8.29649 23.0551 6.53469 22.1155L0.309692 23.7598L1.95409 17.7697C-0.629908 13.189 0.0747924 7.43377 3.83329 3.67527Z" fill="white"/>
</g>
<defs>
<clipPath id="clip0_435_1950">
<rect width="24" height="24" fill="white"/>
</clipPath>
</defs>
</svg>
