<svg width="25" height="24" viewBox="0 0 25 24" fill="none" xmlns="http://www.w3.org/2000/svg">
<path fill-rule="evenodd" clip-rule="evenodd" d="M24.9 12.0002C24.9 18.6269 19.5269 24 12.8998 24C6.27317 24 0.900024 18.6269 0.900024 12.0002C0.900024 5.37315 6.27317 0 12.8998 0C19.5269 0 24.9 5.37315 24.9 12.0002Z" fill="#FB3F1C"/>
<path fill-rule="evenodd" clip-rule="evenodd" d="M14.7643 19.3605H17.3897V4.36816H13.585C9.75716 4.36816 7.74838 6.3282 7.74838 9.223C7.74664 11.5055 8.86505 12.9068 10.8155 14.2898L7.39502 19.3605H10.2315L14.038 13.6797L12.7125 12.7993C11.114 11.7218 10.3312 10.8845 10.3312 9.06852C10.3312 7.47185 11.4557 6.39479 13.5946 6.39479H14.7643V19.3605Z" fill="white"/>
</svg>
