<svg width="60" height="44" viewBox="0 0 60 44" fill="none" xmlns="http://www.w3.org/2000/svg">
<path fill-rule="evenodd" clip-rule="evenodd" d="M13.5897 18.2282L19.1066 18.1358L19.6741 15.5999C20.5044 12.4839 21.6135 9.50291 23.369 6.85228C23.6744 6.39129 23.9971 5.94519 24.3449 5.52032C25.4116 4.21732 26.6421 3.08166 28.2334 2.39952C29.767 1.74208 31.9095 1.66829 33.7154 1.90701C35.4698 2.13896 37.0302 2.74382 38.267 3.56651C40.1973 4.85037 41.5169 6.51871 42.6031 8.55241C42.7819 8.88735 42.9502 9.25038 43.1166 9.60813C43.2635 9.92393 43.4875 10.3988 43.578 10.7195L46.0585 10.7311C46.0013 9.57012 44.7513 7.85972 44.0645 6.99678C43.9987 6.91412 43.9127 6.8083 43.8483 6.73919C42.8637 5.68344 42.3325 5.10572 41.1245 4.16736C40.4225 3.6221 39.6797 3.08966 38.8475 2.59929C35.4537 0.599573 31.3167 -0.820014 26.6795 0.539447C22.8558 1.66039 20.0177 3.8873 17.7094 6.92618C15.7514 9.50388 13.7783 13.9985 13.5897 18.2282Z" fill="white"/>
<path fill-rule="evenodd" clip-rule="evenodd" d="M46.3653 35.3955L44.3212 35.3861C44.2577 35.4616 44.1488 35.7355 44.0946 35.8482C43.5702 36.9407 42.8442 37.9252 42.027 38.7536C38.7505 42.0751 33.7452 43.0117 29.1188 41.6632C27.0231 41.0523 25.1675 39.9548 23.7563 38.5078C21.4025 36.0943 19.862 32.5603 19.1213 28.9057L13.5876 28.8194C13.5972 30.1502 13.672 30.604 14.0707 31.8922C14.9064 34.5926 16.1784 36.6623 17.9665 38.5956C19.02 39.7345 20.6068 40.9397 21.9513 41.6807C27.518 44.7487 33.3162 44.637 38.9 42.0769C40.5722 41.3102 42.0502 40.4037 43.2923 39.4007C43.9798 38.8454 44.5191 38.3264 45.0885 37.6758C45.4029 37.3166 46.3115 36.0839 46.3653 35.3955Z" fill="white"/>
<path fill-rule="evenodd" clip-rule="evenodd" d="M47.3116 22.6423C47.516 22.3722 47.7531 22.1113 48.1761 22.0146C48.6147 21.9142 49.0966 21.9865 49.4383 22.1727C50.0712 22.5178 50.4201 23.221 50.4363 24.1637C50.4623 25.6647 49.5416 26.6941 48.3099 26.5365C47.767 26.467 47.5781 26.1581 47.3657 26.0067L47.3546 28.1561L46.6464 28.1566L46.6522 22.0597L47.2998 22.0691L47.3116 22.6423ZM43.3811 21.9929C44.6209 21.7919 45.6421 22.6087 45.7368 23.9268C45.8301 25.2249 45.3732 26.3592 43.9968 26.5327C42.5826 26.7109 41.7763 25.8322 41.6562 24.5835C41.5154 23.1194 42.1377 22.1945 43.3811 21.9929ZM32.6149 25.0524L33.3401 25.1479C33.2981 25.639 32.8117 26.142 32.4679 26.321C31.2117 26.975 28.9772 26.3716 29.4001 23.7214C29.5705 22.6536 30.4112 21.7838 31.7195 21.9902C32.3263 22.0859 32.7123 22.3796 32.9851 22.7612C33.2849 23.1805 33.3881 23.762 33.3822 24.4257L30.1096 24.4388C30.0441 25.7149 31.3189 26.2988 32.0984 25.7716C32.4192 25.5547 32.4825 25.2517 32.6149 25.0524ZM28.0515 24.1704C28.3376 24.3397 28.6928 24.4469 28.7668 25.0952C28.8269 25.6222 28.5486 26.0321 28.2528 26.2124C27.8676 26.4474 27.368 26.4583 26.8306 26.4583C26.489 26.4582 25.447 26.5017 25.1857 26.4407L25.1842 22.0733C25.5036 22.0173 26.3169 22.0607 26.6828 22.0606C27.1295 22.0606 27.6687 22.0551 28.0072 22.2427C28.635 22.5905 28.8963 23.6086 28.0515 24.1704ZM37.7433 22.0712L41.2765 22.0646L41.2859 22.6559L39.8741 22.6599L39.8706 26.4583L39.1533 26.456L39.1509 22.6632L37.7426 22.6571L37.7433 22.0712ZM35.7526 24.1933C36.0735 24.3911 35.9186 24.1831 36.3275 24.5955C36.5889 24.8591 36.9238 25.4644 37.1285 25.8072C37.2378 25.99 37.4351 26.2791 37.4999 26.4535L36.7282 26.4565C36.5827 26.2902 36.1524 25.504 36.0357 25.3022C35.7883 24.8742 35.5586 24.4182 35.0366 24.422L35.0354 26.4556C34.8864 26.4668 34.5568 26.4748 34.4219 26.4637C34.2594 26.4503 34.317 26.3694 34.317 25.9417C34.3171 24.8172 34.2694 23.059 34.3206 22.0743L35.0331 22.0614L35.0366 23.9673C35.4413 23.9609 35.5456 23.9002 35.7137 23.5936C36.2952 22.5331 36.1076 21.9884 37.3488 22.0658L37.3583 22.651C36.7542 22.6881 36.8016 22.5563 36.4815 23.354C36.3092 23.7834 36.1623 24.0227 35.7526 24.1933ZM23.3701 28.9364L51.0068 28.9374L51.0083 19.3459H23.3885L23.3701 28.9364Z" fill="white"/>
<path d="M25.9153 24.5222C26.694 24.5008 28.0359 24.3285 28.0308 25.2006C28.0281 25.664 27.706 25.8136 27.2735 25.8505C26.8572 25.886 26.35 25.8812 25.9171 25.8687L25.9153 24.5222Z" fill="white"/>
<path d="M25.9176 22.6615C26.3075 22.6485 26.804 22.6411 27.1823 22.6875C27.5677 22.7348 27.8453 22.8772 27.8351 23.3039C27.8161 24.0955 26.5708 23.9385 25.9161 23.9227L25.9176 22.6615Z" fill="white"/>
<path d="M30.1387 23.8504C30.2793 22.0905 32.562 22.1511 32.6113 23.8497L30.1387 23.8504Z" fill="white"/>
<path d="M42.389 24.4897C42.129 22.0907 44.9158 21.9224 44.9981 24.0442C45.0784 26.1114 43.5605 26.3253 42.8 25.5708C42.5281 25.3011 42.4416 24.9756 42.389 24.4897Z" fill="white"/>
<path d="M47.3111 24.6082C47.0243 22.118 49.5302 21.8716 49.6859 23.8998C49.8446 25.9666 48.4586 26.3307 47.7436 25.6508C47.4771 25.3973 47.3665 25.0889 47.3111 24.6082Z" fill="white"/>
<path fill-rule="evenodd" clip-rule="evenodd" d="M10.0823 22.2603C10.5289 22.1592 10.8843 22.4077 11.0843 22.6516C11.5172 23.1795 11.5062 24.3836 11.2179 24.98C10.7445 25.9594 9.11387 25.9264 9.07207 24.1047C9.05085 23.1799 9.3218 22.4323 10.0823 22.2603ZM9.07197 22.2381L9.06702 21.7201L8.37747 21.718L8.36883 27.8555L9.12711 27.8588L9.13561 25.7357C9.39958 25.9282 9.54892 26.1847 10.1066 26.2459C10.5949 26.2995 11.0053 26.1287 11.304 25.9261C12.8784 24.8584 12.3899 21.2369 9.99992 21.6566C9.44267 21.7545 9.23997 22.142 9.07197 22.2381Z" fill="white"/>
<path fill-rule="evenodd" clip-rule="evenodd" d="M18.5772 25.035L18.5721 21.7207L17.8108 21.721L17.8109 26.1612L18.634 26.1626C19.0456 25.4437 19.6918 24.4519 20.1582 23.6929C20.2287 23.5783 20.599 22.9344 20.6803 22.8906L20.6821 26.155L21.453 26.156L21.4549 26.0306C21.461 25.2084 21.4876 22.3661 21.4461 21.7198C20.4629 21.6887 20.6812 21.6577 20.3665 22.1551C20.1714 22.4633 19.9733 22.7975 19.7689 23.1261C19.6176 23.3693 18.6158 25.0126 18.5772 25.035Z" fill="white"/>
<path fill-rule="evenodd" clip-rule="evenodd" d="M14.6918 22.2888C15.5837 22.1329 16.1318 22.8886 16.1606 23.718C16.1768 24.185 16.14 24.6405 15.9513 24.9877C15.5499 25.7263 14.5705 25.8337 13.9934 25.2449C13.7398 24.9863 13.6347 24.6195 13.5971 24.161C13.5157 23.1706 13.8526 22.4354 14.6918 22.2888ZM14.6683 21.6406C13.3541 21.8101 12.718 22.7037 12.8164 24.1941C12.8641 24.9162 13.0986 25.3883 13.4684 25.7416C13.8371 26.0938 14.435 26.3208 15.161 26.238C15.8188 26.163 16.2735 25.8331 16.5546 25.4451C16.8905 24.9814 16.9854 24.3541 16.95 23.6621C16.8891 22.4682 15.9808 21.4713 14.6683 21.6406Z" fill="white"/>
<path fill-rule="evenodd" clip-rule="evenodd" d="M3.81476 24.6183L3.1148 24.5223C3.04562 24.892 2.96125 25.1518 2.73448 25.362C2.30758 25.7577 0.88798 25.9597 0.803925 24.075C0.716978 22.1248 2.11749 22.1024 2.56675 22.3932C2.87117 22.5901 2.92683 22.7458 3.05447 23.1461L3.76951 23.0493C3.8606 22.7667 3.45172 22.1352 3.06819 21.8911C2.66356 21.6335 1.98303 21.5548 1.44867 21.7048C0.403817 21.9982 -0.000434726 22.8301 0.0226605 24.1046C0.0434566 25.2519 0.644487 26.103 1.71683 26.2356C2.7899 26.3683 3.57117 25.8204 3.8234 24.8468C3.84953 24.746 3.86977 24.7053 3.81476 24.6183Z" fill="white"/>
<path fill-rule="evenodd" clip-rule="evenodd" d="M4.10539 22.3727C4.31808 22.3421 5.15725 22.3389 5.38461 22.3573C5.55815 22.3713 5.49813 22.4065 5.49813 22.8895C5.4981 23.4444 5.51991 25.8779 5.49103 26.1377L6.2492 26.1517L6.25261 22.3545L7.6603 22.3444L7.66382 21.7305L4.10654 21.7299L4.10539 22.3727Z" fill="white"/>
<path fill-rule="evenodd" clip-rule="evenodd" d="M20.912 20.0886L20.3897 20.0844C20.3045 20.3069 20.3368 20.3504 20.1879 20.4945C20.0601 20.6181 19.8881 20.651 19.6808 20.6526C19.1838 20.6564 19.1179 20.4699 18.9715 20.0911L18.4484 20.0838C18.4864 21.5768 20.8729 21.5725 20.912 20.0886Z" fill="white"/>
</svg>
