<?xml version="1.0" encoding="UTF-8"?>
<!DOCTYPE svg PUBLIC "-//W3C//DTD SVG 1.1//EN" "http://www.w3.org/Graphics/SVG/1.1/DTD/svg11.dtd">
<!-- Creator: CorelDRAW 2019 (64-Bit) -->
<svg xmlns="http://www.w3.org/2000/svg" xml:space="preserve" width="297mm" height="210mm" version="1.1" style="shape-rendering:geometricPrecision; text-rendering:geometricPrecision; image-rendering:optimizeQuality; fill-rule:evenodd; clip-rule:evenodd"
viewBox="0 0 29700 21000"
 xmlns:xlink="http://www.w3.org/1999/xlink"
 xmlns:xodm="http://www.corel.com/coreldraw/odm/2003">
 <defs>
  <style type="text/css">
   <![CDATA[
    .fil2 {fill:#020202}
    .fil1 {fill:#1F1B20}
    .fil4 {fill:#51504F}
    .fil5 {fill:#A6A5A5}
    .fil3 {fill:#FCFCFC}
    .fil0 {fill:white}
   ]]>
  </style>
 </defs>
 <g id="Слой_x0020_1">
  <metadata id="CorelCorpID_0Corel-Layer"/>
  <g id="_2185910708624">
   <path class="fil0" d="M19200.95 13532.9c-15.45,197.04 -276.27,549.87 -366.52,652.69 -163.48,186.22 -318.28,334.79 -515.66,493.73 -356.55,287.09 -780.85,546.56 -1260.89,766.01 -1602.97,732.79 -3267.47,764.75 -4865.51,-113.4 -385.97,-212.1 -841.52,-557.08 -1143.93,-883.06 -513.33,-553.37 -878.48,-1145.78 -1118.4,-1918.71 -114.45,-368.73 -135.92,-498.61 -138.66,-879.55l1588.55 24.7c212.65,1046.07 654.89,2057.61 1330.6,2748.44 405.11,414.16 937.81,728.31 1539.43,903.16 1328.11,385.99 2765,117.91 3705.59,-832.82 234.59,-237.12 443,-518.91 593.56,-831.6 15.55,-32.28 46.81,-110.68 65.05,-132.28l586.79 2.69zm1341.07 -1838.29c-90.64,10.68 -236.65,2.1 -333.29,2.1 -2462.5,0 -4925.01,0 -7387.52,0 -279.13,0 -234.71,20.53 -233.82,-89.32l0.07 -2010.34c0,-214.57 -10.08,-454.51 1.01,-665.94 64.7,-16.85 403.06,-5.13 495.67,-5.13l5479.15 0c121.45,0 1913.02,-10.63 1981.74,4.45l-3.01 2764.18zm-12046.99 -1927.76c48.23,-27.51 106.42,-138.43 266.39,-166.44 686.1,-120.13 826.33,916.46 374.38,1222.05 -85.75,57.99 -203.57,106.9 -343.76,91.55 -160.09,-17.53 -202.96,-90.94 -278.74,-146.05l-2.44 607.7 -217.68 -0.93 2.48 -1756.75 197.95 0.61 1.42 148.26zm1606.57 -171.03c376.76,-48.45 637.51,236.89 655.01,578.63 10.15,198.07 -17.1,377.62 -113.52,510.34 -80.7,111.07 -211.22,205.48 -400.05,226.95 -208.42,23.71 -380.08,-41.28 -485.9,-142.09 -106.16,-101.13 -173.49,-236.24 -187.18,-442.93 -28.25,-426.59 154.36,-682.39 531.64,-730.9zm1122.13 971.59c11.09,-6.4 298.67,-476.77 342.1,-546.38 58.69,-94.07 115.55,-189.72 171.55,-277.95 90.35,-142.35 27.69,-133.5 309.92,-124.57 11.93,184.98 4.29,998.53 2.54,1233.88l-0.54 35.88 -221.31 -0.29 -0.52 -934.37c-23.35,12.53 -129.65,196.84 -149.87,229.65 -133.9,217.26 -319.41,501.12 -437.57,706.89l-236.3 -0.39 -0.02 -1270.93 218.55 -0.07 1.47 948.65zm-3756.69 315.62c8.29,-74.35 2.03,-770.91 2.04,-929.73 0,-138.26 17.23,-148.32 -32.59,-152.34 -65.27,-5.26 -306.17,-4.34 -367.23,4.43 -23.99,-27.53 -14.07,-160.43 -8.13,-194.28l1036.9 3.38c10.34,47.3 10.62,139.62 0.45,186.13 -42.35,15.79 -333.44,6.07 -403.28,6.07l-2.15 1082.87c-33.19,14.11 -76.35,8 -113.5,8 -48.91,0 -97.74,8.72 -112.51,-14.53zm-481.21 -434.9c15.79,24.9 9.98,36.55 2.48,65.41 -72.41,278.66 -296.69,435.49 -604.74,397.51 -307.84,-37.96 -480.38,-281.57 -486.35,-609.95 -6.63,-364.81 109.42,-602.92 409.37,-686.89 153.4,-42.94 348.76,-20.41 464.92,53.31 110.1,69.87 227.48,250.62 201.33,331.51l-205.27 27.71c-36.64,-114.56 -52.62,-159.13 -140.01,-215.51 -128.97,-83.22 -531.02,-76.82 -506.06,481.39 24.13,539.48 431.66,481.65 554.21,368.39 65.1,-60.16 89.32,-134.53 109.18,-240.34l200.94 27.46zm4700.27 -1180.35c42.76,-41.25 33.49,-53.69 57.94,-117.4l149.95 1.21c-11.24,424.74 -696.33,425.98 -707.25,-1.36l150.18 2.07c42.03,108.44 60.93,161.82 203.61,160.73 59.52,-0.45 108.9,-9.88 145.57,-45.25zm-1894.14 -648.7c54.16,-1210.67 620.57,-2497.16 1182.65,-3234.98 662.65,-869.82 1477.41,-1507.23 2575.1,-1828.08 1331.21,-389.12 2518.82,17.21 3493.08,589.59 238.9,140.36 452.16,292.76 653.67,448.83 346.8,268.59 499.27,433.95 781.92,736.14 18.51,19.78 43.18,50.07 62.07,73.73 197.17,247 556.01,736.57 572.43,1068.88l-712.07 -3.32c-25.99,-91.8 -90.3,-227.72 -132.46,-318.11 -47.77,-102.4 -96.08,-206.31 -147.43,-302.18 -311.8,-582.11 -690.63,-1059.64 -1244.76,-1427.12 -355.06,-235.48 -803.02,-408.61 -1306.65,-475 -518.42,-68.33 -1133.48,-47.21 -1573.73,140.97 -456.81,195.25 -810.05,520.31 -1116.27,893.27 -99.86,121.61 -192.5,249.3 -280.16,381.25 -503.97,758.69 -822.36,1611.95 -1060.7,2503.83l-162.94 725.86 -1583.75 26.44zm-5393.03 1461.45c0,723.69 49.17,1392.5 206.87,2083.25l178.39 695.25c108.98,381.6 306.13,914.52 485.46,1270.3l192.3 384.47c228.44,460.62 701.13,1178.18 1047.02,1573.87l339 390.44c31.67,31.27 43.9,45.93 72.51,80.16 83.34,99.7 199.09,199.86 292.24,293.01l487.46 445.53c379.67,330.82 794.47,625.27 1226.35,885.62l371.21 214.03c35.03,20.91 58.08,30.7 94.1,50.1l387.18 198.05c68.95,34.5 134.85,58.55 203.63,93.24 131.04,66.11 270.39,117.2 405.54,171.22 141.44,56.52 278.31,107.12 428.15,157.09 629.54,209.92 1216.03,348.15 1889.71,442.76 86.47,12.14 173.92,23.61 259.05,29.32 178.57,11.99 362.26,43.66 543.02,42.22 97.51,-0.78 182.26,8.38 288.48,8.38l526.14 0.28c453.64,-13.57 994.92,-78.45 1436.71,-157.85 710.77,-127.76 1348.84,-331.38 2013.75,-598.63l306.64 -134.41c224.44,-114.42 457.1,-214.94 673.63,-344.18l363.87 -212.9c181.8,-108.01 355.33,-224.26 524.41,-349.21l573.58 -444.24c78.31,-68.26 163.78,-130.35 237.41,-203.64 12.84,-12.77 20.35,-22.14 33.83,-34.02l411.23 -394.55c50.29,-49.88 93.86,-94.23 144.29,-144.08l275.76 -309.49c159.39,-178.96 305.13,-368.57 449.09,-560.25 339.52,-452.05 624.84,-941.03 878.92,-1445.11 18.59,-36.88 30.52,-70.17 47.96,-104.71l178.17 -398.61c82.79,-208.32 167.47,-421.29 238.67,-634.96 11.4,-34.23 21.36,-73.52 33.77,-110.42 174.43,-518.42 332.41,-1244.5 380.4,-1799.46 24.25,-280.53 51.12,-548.35 51.12,-831 0,-532.98 -14.69,-892.97 -82.32,-1410.51 -85.31,-652.85 -236.34,-1276.55 -459.28,-1873.25 -105.97,-283.64 -208.41,-557.8 -343.32,-827.18l-294.41 -570.74c-176.76,-306.24 -359.38,-612.4 -572.73,-894.63l-518.48 -652.01c-200.74,-237.35 -419.84,-455.61 -640.62,-674.07 -107.96,-106.82 -228.35,-201.87 -339.45,-305.16 -18.43,-17.14 -24.25,-18.05 -42.25,-34.09l-403.97 -325.46c-308.38,-230.73 -628.95,-445.14 -959.11,-643.95l-667.65 -358.65c-35.55,-17.92 -63.54,-27.17 -99.08,-45.11 -130.41,-65.85 -271.17,-121.95 -404.45,-180.79 -66.81,-29.5 -135.36,-54.42 -205.72,-82.67 -287.7,-115.51 -573.75,-208.59 -876.03,-294.44 -808.43,-229.58 -1693.88,-369.53 -2556.66,-369.53 -632.51,0 -1246.04,36.01 -1844.09,149.1l-717.37 156.25c-81.03,20.26 -152.67,42.54 -234.05,62.8 -288.66,71.89 -603.01,184.42 -877.13,293.36 -276.49,109.88 -546.16,226.57 -811.32,359.16 -256.07,128.03 -512.23,265.34 -750.87,419.61 -30.93,19.99 -59.02,34.28 -90.02,54.18l-607.45 418.84c-115.1,86.28 -219.02,166.19 -329.11,256.14 -105.95,86.57 -210.12,186.09 -316.77,268.47 -30.82,23.81 -44.19,45.38 -75.01,69.18 -83.86,64.76 -481.89,461.16 -515.07,502.75l-276.41 308.84c-118.67,121.89 -286.07,342.4 -391.15,482.47 -42.77,57.01 -86.61,111.11 -126.77,170.1 -77.93,114.45 -167.83,227.65 -238.77,346.48l-224.62 360.63c-111.49,184.24 -210.72,373.18 -307.29,566.34l-189.28 395.97c-30.68,68.29 -59.75,135.51 -88.65,208.22 -171.91,432.56 -320.41,867.51 -433.96,1321.79 -168.29,673.32 -266.33,1357.04 -266.33,2074.69z"/>
   <path class="fil1" d="M19472.59 9882.55c58.68,-77.32 126.74,-152 248.17,-179.69 125.93,-28.72 264.26,-8.04 362.34,45.27 181.7,98.77 281.85,300.06 286.52,569.88 7.44,429.62 -256.87,724.27 -610.44,679.16 -155.86,-19.88 -210.08,-108.31 -271.07,-151.63l-3.18 615.21 -203.31 0.15 1.68 -1745.12 185.91 2.7 3.38 164.07zm-1128.34 -185.89c355.9,-57.53 649.06,176.25 676.26,553.55 26.77,371.55 -104.38,696.21 -499.52,745.87 -405.97,51.02 -637.43,-200.48 -671.9,-557.9 -40.42,-419.09 138.22,-683.83 495.16,-741.52zm-3090.67 875.72l208.17 27.34c-12.06,140.57 -151.7,284.55 -250.37,335.77 -360.64,187.19 -1002.11,14.49 -880.7,-744.07 48.92,-305.64 290.27,-554.6 665.83,-495.54 174.21,27.4 285.03,111.47 363.34,220.69 86.06,120.03 115.68,286.45 114,476.42l-939.48 3.77c-18.81,365.24 347.16,532.37 570.92,381.49 92.1,-62.1 110.28,-148.81 148.29,-205.87zm-1310.05 -252.45c82.14,48.46 184.1,79.15 205.34,264.71 17.26,150.85 -62.63,268.16 -147.53,319.78 -110.6,67.25 -254.01,70.39 -408.3,70.37 -98.06,-0.02 -397.19,12.44 -472.2,-5.03l-0.43 -1250.09c91.7,-16.03 325.16,-3.6 430.22,-3.62 128.24,-0.02 283.01,-1.58 380.19,52.1 180.23,99.57 255.24,390.97 12.71,551.78zm2782.26 -600.87l1014.3 -1.89 2.7 169.26 -405.3 1.16 -1 1087.2 -205.94 -0.64 -0.68 -1085.62 -404.29 -1.76 0.21 -167.71zm-571.48 607.43c92.12,56.6 47.65,-2.93 165.04,115.12 75.03,75.44 171.18,248.7 229.96,346.81 31.36,52.34 88.01,135.09 106.61,185.01l-221.53 0.85c-41.77,-47.61 -165.3,-272.63 -198.8,-330.4 -71.02,-122.49 -136.96,-253.03 -286.81,-251.95l-0.34 582.08c-42.78,3.21 -137.42,5.5 -176.14,2.33 -46.63,-3.82 -30.11,-27 -30.1,-149.4 0.01,-321.87 -13.66,-825.13 1.02,-1106.99l204.54 -3.68 1.02 545.53c116.16,-1.83 146.12,-19.21 194.38,-106.97 166.91,-303.55 113.06,-459.47 469.39,-437.29l2.72 167.49c-173.42,10.61 -159.82,-27.12 -251.71,201.22 -49.46,122.91 -91.63,191.39 -209.25,240.24zm-3554.67 1357.62l7933.73 0.28 0.45 -2745.37 -7928.89 0 -5.29 2745.09z"/>
   <path class="fil2" d="M9791.96 8619.08l1583.75 -26.44 162.94 -725.86c238.34,-891.88 556.73,-1745.14 1060.7,-2503.83 87.66,-131.95 180.3,-259.64 280.16,-381.25 306.22,-372.96 659.46,-698.02 1116.27,-893.27 440.25,-188.18 1055.31,-209.3 1573.73,-140.97 503.63,66.39 951.59,239.52 1306.65,475 554.13,367.48 932.96,845.01 1244.76,1427.12 51.35,95.87 99.66,199.78 147.43,302.18 42.16,90.39 106.47,226.31 132.46,318.11l712.07 3.32c-16.42,-332.31 -375.26,-821.88 -572.43,-1068.88 -18.89,-23.66 -43.56,-53.95 -62.07,-73.73 -282.65,-302.19 -435.12,-467.55 -781.92,-736.14 -201.51,-156.07 -414.77,-308.47 -653.67,-448.83 -974.26,-572.38 -2161.87,-978.71 -3493.08,-589.59 -1097.69,320.85 -1912.45,958.26 -2575.1,1828.08 -562.08,737.82 -1128.49,2024.31 -1182.65,3234.98z"/>
   <path class="fil2" d="M19200.95 13532.9l-586.79 -2.69c-18.24,21.6 -49.5,100 -65.05,132.28 -150.56,312.69 -358.97,594.48 -593.56,831.6 -940.59,950.73 -2377.48,1218.81 -3705.59,832.82 -601.62,-174.85 -1134.32,-489 -1539.43,-903.16 -675.71,-690.83 -1117.95,-1702.37 -1330.6,-2748.44l-1588.55 -24.7c2.74,380.94 24.21,510.82 138.66,879.55 239.92,772.93 605.07,1365.34 1118.4,1918.71 302.41,325.98 757.96,670.96 1143.93,883.06 1598.04,878.15 3262.54,846.19 4865.51,113.4 480.04,-219.45 904.34,-478.92 1260.89,-766.01 197.38,-158.94 352.18,-307.51 515.66,-493.73 90.25,-102.82 351.07,-455.65 366.52,-652.69z"/>
   <path class="fil1" d="M8785.07 9773.19c128.2,-28.93 230.24,42.21 287.65,112.01 124.28,151.12 121.12,495.75 38.36,666.47 -135.9,280.34 -604.02,270.88 -616.02,-250.53 -6.09,-264.71 71.69,-478.7 290.01,-527.95zm-290.04 -6.34l-1.42 -148.26 -197.95 -0.61 -2.48 1756.75 217.68 0.93 2.44 -607.7c75.78,55.11 118.65,128.52 278.74,146.05 140.19,15.35 258.01,-33.56 343.76,-91.55 451.95,-305.59 311.72,-1342.18 -374.38,-1222.05 -159.97,28.01 -218.16,138.93 -266.39,166.44z"/>
   <path class="fil3" d="M19472.45 10445.25c-82.33,-712.79 637.05,-783.32 681.75,-202.79 45.54,591.59 -352.35,695.82 -557.6,501.21 -76.51,-72.56 -108.26,-160.83 -124.15,-298.42zm0.14 -562.7l-3.38 -164.07 -185.91 -2.7 -1.68 1745.12 203.31 -0.15 3.18 -615.21c60.99,43.32 115.21,131.75 271.07,151.63 353.57,45.11 617.88,-249.54 610.44,-679.16 -4.67,-269.82 -104.82,-471.11 -286.52,-569.88 -98.08,-53.31 -236.41,-73.99 -362.34,-45.27 -121.43,27.69 -189.49,102.37 -248.17,179.69z"/>
   <path class="fil3" d="M13330.3 10420.61c223.53,-6.1 608.77,-55.42 607.29,194.19 -0.78,132.63 -93.24,175.47 -217.39,186.03 -119.5,10.16 -265.13,8.78 -389.38,5.21l-0.52 -385.43zm0.66 -532.57c111.93,-3.72 254.46,-5.84 363.04,7.44 110.66,13.53 190.35,54.3 187.41,176.43 -5.44,226.59 -362.94,181.65 -550.9,177.12l0.45 -360.99zm612.57 431.89c242.53,-160.81 167.52,-452.21 -12.71,-551.78 -97.18,-53.68 -251.95,-52.12 -380.19,-52.1 -105.06,0.02 -338.52,-12.41 -430.22,3.62l0.43 1250.09c75.01,17.47 374.14,5.01 472.2,5.03 154.29,0.02 297.7,-3.12 408.3,-70.37 84.9,-51.62 164.79,-168.93 147.53,-319.78 -21.24,-185.56 -123.2,-216.25 -205.34,-264.71z"/>
   <path class="fil1" d="M11223.73 10567.41l-1.47 -948.65 -218.55 0.07 0.02 1270.93 236.3 0.39c118.16,-205.77 303.67,-489.63 437.57,-706.89 20.22,-32.81 126.52,-217.12 149.87,-229.65l0.52 934.37 221.31 0.29 0.54 -35.88c1.75,-235.35 9.39,-1048.9 -2.54,-1233.88 -282.23,-8.93 -219.57,-17.78 -309.92,124.57 -56,88.23 -112.86,183.88 -171.55,277.95 -43.43,69.61 -331.01,539.98 -342.1,546.38z"/>
   <path class="fil3" d="M14542.72 10228.32c40.36,-503.72 695.67,-486.39 709.81,-0.18l-709.81 0.18zm710.86 344.06c-38.01,57.06 -56.19,143.77 -148.29,205.87 -223.76,150.88 -589.73,-16.25 -570.92,-381.49l939.48 -3.77c1.68,-189.97 -27.94,-356.39 -114,-476.42 -78.31,-109.22 -189.13,-193.29 -363.34,-220.69 -375.56,-59.06 -616.91,189.9 -665.83,495.54 -121.41,758.56 520.06,931.26 880.7,744.07 98.67,-51.22 238.31,-195.2 250.37,-335.77l-208.17 -27.34z"/>
   <path class="fil1" d="M10108.32 9781.35c256.05,-44.6 413.39,171.7 421.66,409.1 4.66,133.67 -5.9,264.04 -60.07,363.42 -115.23,211.42 -396.39,242.15 -562.08,73.62 -72.78,-74.03 -102.95,-179.01 -113.76,-310.25 -23.35,-283.48 73.35,-493.93 314.25,-535.89zm-6.72 -185.53c-377.28,48.51 -559.89,304.31 -531.64,730.9 13.69,206.69 81.02,341.8 187.18,442.93 105.82,100.81 277.48,165.8 485.9,142.09 188.83,-21.47 319.35,-115.88 400.05,-226.95 96.42,-132.72 123.67,-312.27 113.52,-510.34 -17.5,-341.74 -278.25,-627.08 -655.01,-578.63z"/>
   <path class="fil3" d="M18059.44 10411.33c-74.64,-686.69 725.39,-734.84 749.02,-127.52 23.03,591.7 -412.71,652.93 -631.04,436.95 -78.05,-77.2 -102.86,-170.36 -117.98,-309.43zm284.81 -714.67c-356.94,57.69 -535.58,322.43 -495.16,741.52 34.47,357.42 265.93,608.92 671.9,557.9 395.14,-49.66 526.29,-374.32 499.52,-745.87 -27.2,-377.3 -320.36,-611.08 -676.26,-553.55z"/>
   <path class="fil1" d="M18059.44 10411.33c15.12,139.07 39.93,232.23 117.98,309.43 218.33,215.98 654.07,154.75 631.04,-436.95 -23.63,-607.32 -823.66,-559.17 -749.02,127.52z"/>
   <path class="fil1" d="M6985.83 10448.13l-200.94 -27.46c-19.86,105.81 -44.08,180.18 -109.18,240.34 -122.55,113.26 -530.08,171.09 -554.21,-368.39 -24.96,-558.21 377.09,-564.61 506.06,-481.39 87.39,56.38 103.37,100.95 140.01,215.51l205.27 -27.71c26.15,-80.89 -91.23,-261.64 -201.33,-331.51 -116.16,-73.72 -311.52,-96.25 -464.92,-53.31 -299.95,83.97 -416,322.08 -409.37,686.89 5.97,328.38 178.51,571.99 486.35,609.95 308.05,37.98 532.33,-118.85 604.74,-397.51 7.5,-28.86 13.31,-40.51 -2.48,-65.41z"/>
   <path class="fil3" d="M10108.32 9781.35c-240.9,41.96 -337.6,252.41 -314.25,535.89 10.81,131.24 40.98,236.22 113.76,310.25 165.69,168.53 446.85,137.8 562.08,-73.62 54.17,-99.38 64.73,-229.75 60.07,-363.42 -8.27,-237.4 -165.61,-453.7 -421.66,-409.1z"/>
   <path class="fil3" d="M16154.31 10326.49c117.62,-48.85 159.79,-117.33 209.25,-240.24 91.89,-228.34 78.29,-190.61 251.71,-201.22l-2.72 -167.49c-356.33,-22.18 -302.48,133.74 -469.39,437.29 -48.26,87.76 -78.22,105.14 -194.38,106.97l-1.02 -545.53 -204.54 3.68c-14.68,281.86 -1.01,785.12 -1.02,1106.99 -0.01,122.4 -16.53,145.58 30.1,149.4 38.72,3.17 133.36,0.88 176.14,-2.33l0.34 -582.08c149.85,-1.08 215.79,129.46 286.81,251.95 33.5,57.77 157.03,282.79 198.8,330.4l221.53 -0.85c-18.6,-49.92 -75.25,-132.67 -106.61,-185.01 -58.78,-98.11 -154.93,-271.37 -229.96,-346.81 -117.39,-118.05 -72.92,-58.52 -165.04,-115.12z"/>
   <path class="fil1" d="M19472.45 10445.25c15.89,137.59 47.64,225.86 124.15,298.42 205.25,194.61 603.14,90.38 557.6,-501.21 -44.7,-580.53 -764.08,-510 -681.75,202.79z"/>
   <path class="fil3" d="M8785.07 9773.19c-218.32,49.25 -296.1,263.24 -290.01,527.95 12,521.41 480.12,530.87 616.02,250.53 82.76,-170.72 85.92,-515.35 -38.36,-666.47 -57.41,-69.8 -159.45,-140.94 -287.65,-112.01z"/>
   <path class="fil1" d="M7069.26 9805.39c61.06,-8.77 301.96,-9.69 367.23,-4.43 49.82,4.02 32.59,14.08 32.59,152.34 -0.01,158.82 6.25,855.38 -2.04,929.73l217.65 4 0.98 -1086.87 404.11 -2.88 1.01 -175.71 -1021.2 -0.19 -0.33 184.01z"/>
   <polygon class="fil3" points="16725.58,9886.77 17129.87,9888.53 17130.55,10974.15 17336.49,10974.79 17337.49,9887.59 17742.79,9886.43 17740.09,9717.17 16725.79,9719.06 "/>
   <path class="fil4" d="M12604.93 8939.02l7928.89 0 -0.45 2745.37 -7933.73 -0.28 5.29 -2745.09zm7937.09 2755.59l3.01 -2764.18c-68.72,-15.08 -1860.29,-4.45 -1981.74,-4.45l-5479.15 0c-92.61,0 -430.97,-11.72 -495.67,5.13 -11.09,211.43 -1.01,451.37 -1.01,665.94l-0.07 2010.34c-0.89,109.85 -45.31,89.32 233.82,89.32 2462.51,0 4925.02,0 7387.52,0 96.64,0 242.65,8.58 333.29,-2.1z"/>
   <path class="fil1" d="M13330.82 10806.04c124.25,3.57 269.88,4.95 389.38,-5.21 124.15,-10.56 216.61,-53.4 217.39,-186.03 1.48,-249.61 -383.76,-200.29 -607.29,-194.19l0.52 385.43z"/>
   <path class="fil1" d="M14542.72 10228.32l709.81 -0.18c-14.14,-486.21 -669.45,-503.54 -709.81,0.18z"/>
   <path class="fil1" d="M13330.51 10249.03c187.96,4.53 545.46,49.47 550.9,-177.12 2.94,-122.13 -76.75,-162.9 -187.41,-176.43 -108.58,-13.28 -251.11,-11.16 -363.04,-7.44l-0.45 360.99z"/>
   <path class="fil1" d="M11893.99 9151.59l-149.95 -1.21c-24.45,63.71 -15.18,76.15 -57.94,117.4 -36.67,35.37 -86.05,44.8 -145.57,45.25 -142.68,1.09 -161.58,-52.29 -203.61,-160.73l-150.18 -2.07c10.92,427.34 696.01,426.1 707.25,1.36z"/>
   <path class="fil5" d="M7069.26 9805.39l0.33 -184.01 1021.2 0.19 -1.01 175.71 -404.11 2.88 -0.98 1086.87 -217.65 -4c14.77,23.25 63.6,14.53 112.51,14.53 37.15,0 80.31,6.11 113.5,-8l2.15 -1082.87c69.84,0 360.93,9.72 403.28,-6.07 10.17,-46.51 9.89,-138.83 -0.45,-186.13l-1036.9 -3.38c-5.94,33.85 -15.86,166.75 8.13,194.28z"/>
  </g>
 </g>
</svg>
